G04 #@! TF.GenerationSoftware,KiCad,Pcbnew,7.0.11*
G04 #@! TF.CreationDate,2024-07-15T12:45:27+02:00*
G04 #@! TF.ProjectId,NOP100,4e4f5031-3030-42e6-9b69-6361645f7063,221101*
G04 #@! TF.SameCoordinates,Original*
G04 #@! TF.FileFunction,Copper,L2,Inr*
G04 #@! TF.FilePolarity,Positive*
%FSLAX46Y46*%
G04 Gerber Fmt 4.6, Leading zero omitted, Abs format (unit mm)*
G04 Created by KiCad (PCBNEW 7.0.11) date 2024-07-15 12:45:27*
%MOMM*%
%LPD*%
G01*
G04 APERTURE LIST*
G04 #@! TA.AperFunction,ComponentPad*
%ADD10C,3.600000*%
G04 #@! TD*
G04 #@! TA.AperFunction,ComponentPad*
%ADD11C,2.000000*%
G04 #@! TD*
G04 #@! TA.AperFunction,ComponentPad*
%ADD12R,2.000000X2.000000*%
G04 #@! TD*
G04 #@! TA.AperFunction,ComponentPad*
%ADD13C,1.600000*%
G04 #@! TD*
G04 #@! TA.AperFunction,ComponentPad*
%ADD14O,1.600000X1.600000*%
G04 #@! TD*
G04 #@! TA.AperFunction,ComponentPad*
%ADD15R,1.600000X1.600000*%
G04 #@! TD*
G04 #@! TA.AperFunction,ComponentPad*
%ADD16R,1.700000X1.700000*%
G04 #@! TD*
G04 #@! TA.AperFunction,ComponentPad*
%ADD17O,1.700000X1.700000*%
G04 #@! TD*
G04 #@! TA.AperFunction,ComponentPad*
%ADD18R,2.000000X1.700000*%
G04 #@! TD*
G04 #@! TA.AperFunction,ComponentPad*
%ADD19O,2.000000X1.700000*%
G04 #@! TD*
G04 #@! TA.AperFunction,ComponentPad*
%ADD20R,1.600000X2.400000*%
G04 #@! TD*
G04 #@! TA.AperFunction,ComponentPad*
%ADD21O,1.600000X2.400000*%
G04 #@! TD*
G04 #@! TA.AperFunction,ComponentPad*
%ADD22R,1.676400X1.676400*%
G04 #@! TD*
G04 #@! TA.AperFunction,ComponentPad*
%ADD23C,1.524000*%
G04 #@! TD*
G04 #@! TA.AperFunction,ComponentPad*
%ADD24R,1.524000X1.524000*%
G04 #@! TD*
G04 #@! TA.AperFunction,ViaPad*
%ADD25C,0.800000*%
G04 #@! TD*
G04 APERTURE END LIST*
D10*
X46000000Y35500000D03*
X-46000000Y35500000D03*
X-46000000Y-35500000D03*
X46000000Y-35500000D03*
D11*
X22790000Y33310000D03*
X30410000Y33310000D03*
D12*
X22790000Y35850000D03*
D11*
X30410000Y30770000D03*
X22790000Y30770000D03*
X30410000Y35850000D03*
X33560000Y33310000D03*
X41180000Y33310000D03*
D12*
X33560000Y35850000D03*
D11*
X41180000Y30770000D03*
X33560000Y30770000D03*
X41180000Y35850000D03*
X-36550000Y-1940000D03*
X-36550000Y600000D03*
X-36550000Y8220000D03*
X-36550000Y13300000D03*
D13*
X-40481000Y29579000D03*
D14*
X-40481000Y37199000D03*
D15*
X-16480000Y22460000D03*
D14*
X-13940000Y22460000D03*
X-11400000Y22460000D03*
X-8860000Y22460000D03*
X-6320000Y22460000D03*
X-3780000Y22460000D03*
X-1240000Y22460000D03*
X1300000Y22460000D03*
X3840000Y22460000D03*
X6380000Y22460000D03*
X8920000Y22460000D03*
X11460000Y22460000D03*
X14000000Y22460000D03*
X16540000Y22460000D03*
X16540000Y37700000D03*
X14000000Y37700000D03*
X11460000Y37700000D03*
X8920000Y37700000D03*
X6380000Y37700000D03*
X3840000Y37700000D03*
X1300000Y37700000D03*
X-1240000Y37700000D03*
X-3780000Y37700000D03*
X-6320000Y37700000D03*
X-8860000Y37700000D03*
X-11400000Y37700000D03*
X-13940000Y37700000D03*
X-16480000Y37700000D03*
D16*
X-43740000Y22670000D03*
D17*
X-41200000Y22670000D03*
X-38660000Y22670000D03*
X-36120000Y22670000D03*
X-33580000Y22670000D03*
D18*
X-32700000Y-11200000D03*
D19*
X-32700000Y-13740000D03*
X-32700000Y-16320000D03*
X-32700000Y-23900000D03*
X-32700000Y-26440000D03*
D20*
X-33560000Y37200000D03*
D21*
X-36090000Y37200000D03*
X-36090000Y29580000D03*
X-33550000Y29580000D03*
D22*
X25715000Y-6785000D03*
D23*
X25715000Y-4245000D03*
X25715000Y-1705000D03*
X25715000Y835000D03*
X25715000Y3375000D03*
X25715000Y5915000D03*
X25715000Y8455000D03*
X25715000Y10995000D03*
X2855000Y10995000D03*
X2855000Y8455000D03*
X2855000Y5915000D03*
X2855000Y3375000D03*
X2855000Y835000D03*
X2855000Y-1705000D03*
X2855000Y-4245000D03*
D24*
X2855000Y-6785000D03*
D22*
X-2900000Y-6740000D03*
D23*
X-2900000Y-4200000D03*
X-2900000Y-1660000D03*
X-2900000Y880000D03*
X-2900000Y3420000D03*
X-2900000Y5960000D03*
X-2900000Y8500000D03*
X-2900000Y11040000D03*
X-25760000Y11040000D03*
X-25760000Y8500000D03*
X-25760000Y5960000D03*
X-25760000Y3420000D03*
X-25760000Y880000D03*
X-25760000Y-1660000D03*
X-25760000Y-4200000D03*
D24*
X-25760000Y-6740000D03*
D16*
X2900000Y-39760000D03*
D17*
X5440000Y-39760000D03*
X7980000Y-39760000D03*
X10520000Y-39760000D03*
X13060000Y-39760000D03*
X15600000Y-39760000D03*
X18140000Y-39760000D03*
X20680000Y-39760000D03*
X23220000Y-39760000D03*
X25760000Y-39760000D03*
D16*
X-25750000Y-39760000D03*
D17*
X-23210000Y-39760000D03*
X-20670000Y-39760000D03*
X-18130000Y-39760000D03*
X-15590000Y-39760000D03*
X-13050000Y-39760000D03*
X-10510000Y-39760000D03*
X-7970000Y-39760000D03*
X-5430000Y-39760000D03*
X-2890000Y-39760000D03*
D25*
X-42981000Y26700000D03*
X32000000Y40050000D03*
X41840000Y17750000D03*
X4500000Y-3800000D03*
X34200000Y26979000D03*
X23700000Y28400000D03*
X40570000Y26979000D03*
X46000000Y40000000D03*
X-46000000Y40000000D03*
X-20500000Y23700000D03*
X27400000Y26400000D03*
X-25988000Y28976000D03*
X-21314400Y28976000D03*
X-30340000Y28970000D03*
X-27258000Y28976000D03*
X-21081000Y35979000D03*
X25700000Y-12800000D03*
X-2900000Y-12800000D03*
X-23081000Y30979000D03*
X47012500Y31600000D03*
X-9500000Y33400000D03*
X-11400000Y31400000D03*
X14900000Y8400000D03*
X-13300000Y33400000D03*
X20300000Y20600000D03*
X6400000Y20600000D03*
X39290000Y35850000D03*
X38020000Y30770000D03*
X36750000Y30770000D03*
X35480000Y34580000D03*
X21900000Y19000000D03*
X11500000Y19000000D03*
X-5900000Y16600000D03*
X-4300000Y15000000D03*
X-5100000Y15800000D03*
X8900000Y19800000D03*
X21100000Y19800000D03*
X4300000Y17400000D03*
X19400000Y17400000D03*
X-24300000Y17400000D03*
X17900000Y18200000D03*
X5100000Y18200000D03*
X-23500000Y18200000D03*
X-6300000Y20600000D03*
X-21100000Y20600000D03*
X-3800000Y19800000D03*
X-20300000Y19800000D03*
X1300000Y19000000D03*
X6400000Y19000000D03*
X3800000Y19800000D03*
X7600000Y19800000D03*
G04 #@! TA.AperFunction,Conductor*
G36*
X48844501Y42428501D02*
G01*
X48911541Y42408816D01*
X48957295Y42356011D01*
X48968500Y42304501D01*
X48968500Y37520480D01*
X48966361Y37507301D01*
X48968188Y37481595D01*
X48968500Y37472804D01*
X48968500Y37467983D01*
X48968904Y37466267D01*
X48971065Y37461946D01*
X48974708Y37453963D01*
X48984571Y37430155D01*
X48992376Y37419325D01*
X49936909Y35530260D01*
X49950000Y35474805D01*
X49950000Y-35516805D01*
X49936909Y-35572260D01*
X48992376Y-37461325D01*
X48984571Y-37472155D01*
X48974708Y-37495963D01*
X48971065Y-37503946D01*
X48968904Y-37508267D01*
X48968500Y-37509983D01*
X48968500Y-37514804D01*
X48968188Y-37523595D01*
X48966361Y-37549301D01*
X48968500Y-37562480D01*
X48968500Y-42346500D01*
X48948815Y-42413539D01*
X48896011Y-42459294D01*
X48844500Y-42470500D01*
X-48806500Y-42470500D01*
X-48873539Y-42450815D01*
X-48919294Y-42398011D01*
X-48930500Y-42346500D01*
X-48930500Y-40658637D01*
X-27108500Y-40658637D01*
X-27108499Y-40658654D01*
X-27107344Y-40669391D01*
X-27101989Y-40719201D01*
X-27050889Y-40856204D01*
X-26963261Y-40973261D01*
X-26846204Y-41060889D01*
X-26709201Y-41111989D01*
X-26677623Y-41115383D01*
X-26648654Y-41118499D01*
X-26648638Y-41118500D01*
X-24851362Y-41118500D01*
X-24851345Y-41118499D01*
X-24820270Y-41115157D01*
X-24790799Y-41111989D01*
X-24790796Y-41111988D01*
X-24790795Y-41111988D01*
X-24708903Y-41081443D01*
X-24653796Y-41060889D01*
X-24536739Y-40973261D01*
X-24449111Y-40856204D01*
X-24403861Y-40734888D01*
X-24361989Y-40678955D01*
X-24296525Y-40654539D01*
X-24228252Y-40669392D01*
X-24196454Y-40694237D01*
X-24133240Y-40762906D01*
X-23955576Y-40901189D01*
X-23757574Y-41008342D01*
X-23544635Y-41081444D01*
X-23322569Y-41118500D01*
X-23097431Y-41118500D01*
X-22875365Y-41081444D01*
X-22662426Y-41008342D01*
X-22591135Y-40969761D01*
X-22464427Y-40901191D01*
X-22464425Y-40901189D01*
X-22464424Y-40901189D01*
X-22286760Y-40762906D01*
X-22260967Y-40734888D01*
X-22134284Y-40597276D01*
X-22134283Y-40597273D01*
X-22134278Y-40597268D01*
X-22043806Y-40458790D01*
X-21990662Y-40413437D01*
X-21921431Y-40404013D01*
X-21858095Y-40433515D01*
X-21836195Y-40458787D01*
X-21745722Y-40597268D01*
X-21593240Y-40762906D01*
X-21415576Y-40901189D01*
X-21217574Y-41008342D01*
X-21004635Y-41081444D01*
X-20782569Y-41118500D01*
X-20557431Y-41118500D01*
X-20335365Y-41081444D01*
X-20122426Y-41008342D01*
X-20051135Y-40969761D01*
X-19924427Y-40901191D01*
X-19924425Y-40901189D01*
X-19924424Y-40901189D01*
X-19746760Y-40762906D01*
X-19720967Y-40734888D01*
X-19594284Y-40597276D01*
X-19594283Y-40597273D01*
X-19594278Y-40597268D01*
X-19503806Y-40458790D01*
X-19450662Y-40413437D01*
X-19381431Y-40404013D01*
X-19318095Y-40433515D01*
X-19296195Y-40458787D01*
X-19205722Y-40597268D01*
X-19053240Y-40762906D01*
X-18875576Y-40901189D01*
X-18677574Y-41008342D01*
X-18464635Y-41081444D01*
X-18242569Y-41118500D01*
X-18017431Y-41118500D01*
X-17795365Y-41081444D01*
X-17582426Y-41008342D01*
X-17511135Y-40969761D01*
X-17384427Y-40901191D01*
X-17384425Y-40901189D01*
X-17384424Y-40901189D01*
X-17206760Y-40762906D01*
X-17180967Y-40734888D01*
X-17054284Y-40597276D01*
X-17054283Y-40597273D01*
X-17054278Y-40597268D01*
X-16963806Y-40458790D01*
X-16910662Y-40413437D01*
X-16841431Y-40404013D01*
X-16778095Y-40433515D01*
X-16756195Y-40458787D01*
X-16665722Y-40597268D01*
X-16513240Y-40762906D01*
X-16335576Y-40901189D01*
X-16137574Y-41008342D01*
X-15924635Y-41081444D01*
X-15702569Y-41118500D01*
X-15477431Y-41118500D01*
X-15255365Y-41081444D01*
X-15042426Y-41008342D01*
X-14971135Y-40969761D01*
X-14844427Y-40901191D01*
X-14844425Y-40901189D01*
X-14844424Y-40901189D01*
X-14666760Y-40762906D01*
X-14640967Y-40734888D01*
X-14514284Y-40597276D01*
X-14514283Y-40597273D01*
X-14514278Y-40597268D01*
X-14423806Y-40458790D01*
X-14370662Y-40413437D01*
X-14301431Y-40404013D01*
X-14238095Y-40433515D01*
X-14216195Y-40458787D01*
X-14125722Y-40597268D01*
X-13973240Y-40762906D01*
X-13795576Y-40901189D01*
X-13597574Y-41008342D01*
X-13384635Y-41081444D01*
X-13162569Y-41118500D01*
X-12937431Y-41118500D01*
X-12715365Y-41081444D01*
X-12502426Y-41008342D01*
X-12431135Y-40969761D01*
X-12304427Y-40901191D01*
X-12304425Y-40901189D01*
X-12304424Y-40901189D01*
X-12126760Y-40762906D01*
X-12100967Y-40734888D01*
X-11974284Y-40597276D01*
X-11974283Y-40597273D01*
X-11974278Y-40597268D01*
X-11883806Y-40458790D01*
X-11830662Y-40413437D01*
X-11761431Y-40404013D01*
X-11698095Y-40433515D01*
X-11676195Y-40458787D01*
X-11585722Y-40597268D01*
X-11433240Y-40762906D01*
X-11255576Y-40901189D01*
X-11057574Y-41008342D01*
X-10844635Y-41081444D01*
X-10622569Y-41118500D01*
X-10397431Y-41118500D01*
X-10175365Y-41081444D01*
X-9962426Y-41008342D01*
X-9891135Y-40969761D01*
X-9764427Y-40901191D01*
X-9764425Y-40901189D01*
X-9764424Y-40901189D01*
X-9586760Y-40762906D01*
X-9560967Y-40734888D01*
X-9434284Y-40597276D01*
X-9434283Y-40597273D01*
X-9434278Y-40597268D01*
X-9343806Y-40458790D01*
X-9290662Y-40413437D01*
X-9221431Y-40404013D01*
X-9158095Y-40433515D01*
X-9136195Y-40458787D01*
X-9045722Y-40597268D01*
X-8893240Y-40762906D01*
X-8715576Y-40901189D01*
X-8517574Y-41008342D01*
X-8304635Y-41081444D01*
X-8082569Y-41118500D01*
X-7857431Y-41118500D01*
X-7635365Y-41081444D01*
X-7422426Y-41008342D01*
X-7351135Y-40969761D01*
X-7224427Y-40901191D01*
X-7224425Y-40901189D01*
X-7224424Y-40901189D01*
X-7046760Y-40762906D01*
X-7020967Y-40734888D01*
X-6894284Y-40597276D01*
X-6894283Y-40597273D01*
X-6894278Y-40597268D01*
X-6803806Y-40458790D01*
X-6750662Y-40413437D01*
X-6681431Y-40404013D01*
X-6618095Y-40433515D01*
X-6596195Y-40458787D01*
X-6505722Y-40597268D01*
X-6353240Y-40762906D01*
X-6175576Y-40901189D01*
X-5977574Y-41008342D01*
X-5764635Y-41081444D01*
X-5542569Y-41118500D01*
X-5317431Y-41118500D01*
X-5095365Y-41081444D01*
X-4882426Y-41008342D01*
X-4811135Y-40969761D01*
X-4684427Y-40901191D01*
X-4684425Y-40901189D01*
X-4684424Y-40901189D01*
X-4506760Y-40762906D01*
X-4480967Y-40734888D01*
X-4354284Y-40597276D01*
X-4354283Y-40597273D01*
X-4354278Y-40597268D01*
X-4263806Y-40458790D01*
X-4210662Y-40413437D01*
X-4141431Y-40404013D01*
X-4078095Y-40433515D01*
X-4056195Y-40458787D01*
X-3965722Y-40597268D01*
X-3813240Y-40762906D01*
X-3635576Y-40901189D01*
X-3437574Y-41008342D01*
X-3224635Y-41081444D01*
X-3002569Y-41118500D01*
X-2777431Y-41118500D01*
X-2555365Y-41081444D01*
X-2342426Y-41008342D01*
X-2271135Y-40969761D01*
X-2144427Y-40901191D01*
X-2144425Y-40901189D01*
X-2144424Y-40901189D01*
X-1966760Y-40762906D01*
X-1940967Y-40734888D01*
X-1870787Y-40658654D01*
X1541500Y-40658654D01*
X1548011Y-40719202D01*
X1548011Y-40719204D01*
X1599111Y-40856204D01*
X1686739Y-40973261D01*
X1803796Y-41060889D01*
X1940799Y-41111989D01*
X1968050Y-41114918D01*
X2001345Y-41118499D01*
X2001362Y-41118500D01*
X3798638Y-41118500D01*
X3798654Y-41118499D01*
X3825692Y-41115591D01*
X3859201Y-41111989D01*
X3996204Y-41060889D01*
X4113261Y-40973261D01*
X4200889Y-40856204D01*
X4246138Y-40734887D01*
X4288009Y-40678956D01*
X4353474Y-40654539D01*
X4421746Y-40669391D01*
X4453545Y-40694236D01*
X4516760Y-40762906D01*
X4694424Y-40901189D01*
X4694425Y-40901189D01*
X4694427Y-40901191D01*
X4821135Y-40969761D01*
X4892426Y-41008342D01*
X5105365Y-41081444D01*
X5327431Y-41118500D01*
X5552569Y-41118500D01*
X5774635Y-41081444D01*
X5987574Y-41008342D01*
X6185576Y-40901189D01*
X6363240Y-40762906D01*
X6515722Y-40597268D01*
X6606193Y-40458790D01*
X6659338Y-40413437D01*
X6728569Y-40404013D01*
X6791905Y-40433515D01*
X6813804Y-40458787D01*
X6904278Y-40597268D01*
X6904283Y-40597273D01*
X6904284Y-40597276D01*
X7030967Y-40734888D01*
X7056760Y-40762906D01*
X7234424Y-40901189D01*
X7234425Y-40901189D01*
X7234427Y-40901191D01*
X7361135Y-40969761D01*
X7432426Y-41008342D01*
X7645365Y-41081444D01*
X7867431Y-41118500D01*
X8092569Y-41118500D01*
X8314635Y-41081444D01*
X8527574Y-41008342D01*
X8725576Y-40901189D01*
X8903240Y-40762906D01*
X9055722Y-40597268D01*
X9146193Y-40458790D01*
X9199338Y-40413437D01*
X9268569Y-40404013D01*
X9331905Y-40433515D01*
X9353804Y-40458787D01*
X9444278Y-40597268D01*
X9444283Y-40597273D01*
X9444284Y-40597276D01*
X9570967Y-40734888D01*
X9596760Y-40762906D01*
X9774424Y-40901189D01*
X9774425Y-40901189D01*
X9774427Y-40901191D01*
X9901135Y-40969761D01*
X9972426Y-41008342D01*
X10185365Y-41081444D01*
X10407431Y-41118500D01*
X10632569Y-41118500D01*
X10854635Y-41081444D01*
X11067574Y-41008342D01*
X11265576Y-40901189D01*
X11443240Y-40762906D01*
X11595722Y-40597268D01*
X11686193Y-40458790D01*
X11739338Y-40413437D01*
X11808569Y-40404013D01*
X11871905Y-40433515D01*
X11893804Y-40458787D01*
X11984278Y-40597268D01*
X11984283Y-40597273D01*
X11984284Y-40597276D01*
X12110967Y-40734888D01*
X12136760Y-40762906D01*
X12314424Y-40901189D01*
X12314425Y-40901189D01*
X12314427Y-40901191D01*
X12441135Y-40969761D01*
X12512426Y-41008342D01*
X12725365Y-41081444D01*
X12947431Y-41118500D01*
X13172569Y-41118500D01*
X13394635Y-41081444D01*
X13607574Y-41008342D01*
X13805576Y-40901189D01*
X13983240Y-40762906D01*
X14135722Y-40597268D01*
X14226193Y-40458790D01*
X14279338Y-40413437D01*
X14348569Y-40404013D01*
X14411905Y-40433515D01*
X14433804Y-40458787D01*
X14524278Y-40597268D01*
X14524283Y-40597273D01*
X14524284Y-40597276D01*
X14650967Y-40734888D01*
X14676760Y-40762906D01*
X14854424Y-40901189D01*
X14854425Y-40901189D01*
X14854427Y-40901191D01*
X14981135Y-40969761D01*
X15052426Y-41008342D01*
X15265365Y-41081444D01*
X15487431Y-41118500D01*
X15712569Y-41118500D01*
X15934635Y-41081444D01*
X16147574Y-41008342D01*
X16345576Y-40901189D01*
X16523240Y-40762906D01*
X16675722Y-40597268D01*
X16766193Y-40458790D01*
X16819338Y-40413437D01*
X16888569Y-40404013D01*
X16951905Y-40433515D01*
X16973804Y-40458787D01*
X17064278Y-40597268D01*
X17064283Y-40597273D01*
X17064284Y-40597276D01*
X17190967Y-40734888D01*
X17216760Y-40762906D01*
X17394424Y-40901189D01*
X17394425Y-40901189D01*
X17394427Y-40901191D01*
X17521135Y-40969761D01*
X17592426Y-41008342D01*
X17805365Y-41081444D01*
X18027431Y-41118500D01*
X18252569Y-41118500D01*
X18474635Y-41081444D01*
X18687574Y-41008342D01*
X18885576Y-40901189D01*
X19063240Y-40762906D01*
X19215722Y-40597268D01*
X19306193Y-40458790D01*
X19359338Y-40413437D01*
X19428569Y-40404013D01*
X19491905Y-40433515D01*
X19513804Y-40458787D01*
X19604278Y-40597268D01*
X19604283Y-40597273D01*
X19604284Y-40597276D01*
X19730967Y-40734888D01*
X19756760Y-40762906D01*
X19934424Y-40901189D01*
X19934425Y-40901189D01*
X19934427Y-40901191D01*
X20061135Y-40969761D01*
X20132426Y-41008342D01*
X20345365Y-41081444D01*
X20567431Y-41118500D01*
X20792569Y-41118500D01*
X21014635Y-41081444D01*
X21227574Y-41008342D01*
X21425576Y-40901189D01*
X21603240Y-40762906D01*
X21755722Y-40597268D01*
X21846193Y-40458790D01*
X21899338Y-40413437D01*
X21968569Y-40404013D01*
X22031905Y-40433515D01*
X22053804Y-40458787D01*
X22144278Y-40597268D01*
X22144283Y-40597273D01*
X22144284Y-40597276D01*
X22270967Y-40734888D01*
X22296760Y-40762906D01*
X22474424Y-40901189D01*
X22474425Y-40901189D01*
X22474427Y-40901191D01*
X22601135Y-40969761D01*
X22672426Y-41008342D01*
X22885365Y-41081444D01*
X23107431Y-41118500D01*
X23332569Y-41118500D01*
X23554635Y-41081444D01*
X23767574Y-41008342D01*
X23965576Y-40901189D01*
X24143240Y-40762906D01*
X24295722Y-40597268D01*
X24386193Y-40458790D01*
X24439338Y-40413437D01*
X24508569Y-40404013D01*
X24571905Y-40433515D01*
X24593804Y-40458787D01*
X24684278Y-40597268D01*
X24684283Y-40597273D01*
X24684284Y-40597276D01*
X24810967Y-40734888D01*
X24836760Y-40762906D01*
X25014424Y-40901189D01*
X25014425Y-40901189D01*
X25014427Y-40901191D01*
X25141135Y-40969761D01*
X25212426Y-41008342D01*
X25425365Y-41081444D01*
X25647431Y-41118500D01*
X25872569Y-41118500D01*
X26094635Y-41081444D01*
X26307574Y-41008342D01*
X26505576Y-40901189D01*
X26683240Y-40762906D01*
X26835722Y-40597268D01*
X26958860Y-40408791D01*
X27049296Y-40202616D01*
X27104564Y-39984368D01*
X27123156Y-39760000D01*
X27104564Y-39535632D01*
X27049296Y-39317384D01*
X26958860Y-39111209D01*
X26942706Y-39086484D01*
X26835723Y-38922734D01*
X26835715Y-38922723D01*
X26683243Y-38757097D01*
X26683238Y-38757092D01*
X26505577Y-38618812D01*
X26505572Y-38618808D01*
X26307580Y-38511661D01*
X26307577Y-38511659D01*
X26307574Y-38511658D01*
X26307571Y-38511657D01*
X26307569Y-38511656D01*
X26094637Y-38438556D01*
X25872569Y-38401500D01*
X25647431Y-38401500D01*
X25425362Y-38438556D01*
X25212430Y-38511656D01*
X25212419Y-38511661D01*
X25014427Y-38618808D01*
X25014422Y-38618812D01*
X24836761Y-38757092D01*
X24836756Y-38757097D01*
X24684284Y-38922723D01*
X24684276Y-38922734D01*
X24593808Y-39061206D01*
X24540662Y-39106562D01*
X24471431Y-39115986D01*
X24408095Y-39086484D01*
X24386192Y-39061206D01*
X24295723Y-38922734D01*
X24295715Y-38922723D01*
X24143243Y-38757097D01*
X24143238Y-38757092D01*
X23965577Y-38618812D01*
X23965572Y-38618808D01*
X23767580Y-38511661D01*
X23767577Y-38511659D01*
X23767574Y-38511658D01*
X23767571Y-38511657D01*
X23767569Y-38511656D01*
X23554637Y-38438556D01*
X23332569Y-38401500D01*
X23107431Y-38401500D01*
X22885362Y-38438556D01*
X22672430Y-38511656D01*
X22672419Y-38511661D01*
X22474427Y-38618808D01*
X22474422Y-38618812D01*
X22296761Y-38757092D01*
X22296756Y-38757097D01*
X22144284Y-38922723D01*
X22144276Y-38922734D01*
X22053808Y-39061206D01*
X22000662Y-39106562D01*
X21931431Y-39115986D01*
X21868095Y-39086484D01*
X21846192Y-39061206D01*
X21755723Y-38922734D01*
X21755715Y-38922723D01*
X21603243Y-38757097D01*
X21603238Y-38757092D01*
X21425577Y-38618812D01*
X21425572Y-38618808D01*
X21227580Y-38511661D01*
X21227577Y-38511659D01*
X21227574Y-38511658D01*
X21227571Y-38511657D01*
X21227569Y-38511656D01*
X21014637Y-38438556D01*
X20792569Y-38401500D01*
X20567431Y-38401500D01*
X20345362Y-38438556D01*
X20132430Y-38511656D01*
X20132419Y-38511661D01*
X19934427Y-38618808D01*
X19934422Y-38618812D01*
X19756761Y-38757092D01*
X19756756Y-38757097D01*
X19604284Y-38922723D01*
X19604276Y-38922734D01*
X19513808Y-39061206D01*
X19460662Y-39106562D01*
X19391431Y-39115986D01*
X19328095Y-39086484D01*
X19306192Y-39061206D01*
X19215723Y-38922734D01*
X19215715Y-38922723D01*
X19063243Y-38757097D01*
X19063238Y-38757092D01*
X18885577Y-38618812D01*
X18885572Y-38618808D01*
X18687580Y-38511661D01*
X18687577Y-38511659D01*
X18687574Y-38511658D01*
X18687571Y-38511657D01*
X18687569Y-38511656D01*
X18474637Y-38438556D01*
X18252569Y-38401500D01*
X18027431Y-38401500D01*
X17805362Y-38438556D01*
X17592430Y-38511656D01*
X17592419Y-38511661D01*
X17394427Y-38618808D01*
X17394422Y-38618812D01*
X17216761Y-38757092D01*
X17216756Y-38757097D01*
X17064284Y-38922723D01*
X17064276Y-38922734D01*
X16973808Y-39061206D01*
X16920662Y-39106562D01*
X16851431Y-39115986D01*
X16788095Y-39086484D01*
X16766192Y-39061206D01*
X16675723Y-38922734D01*
X16675715Y-38922723D01*
X16523243Y-38757097D01*
X16523238Y-38757092D01*
X16345577Y-38618812D01*
X16345572Y-38618808D01*
X16147580Y-38511661D01*
X16147577Y-38511659D01*
X16147574Y-38511658D01*
X16147571Y-38511657D01*
X16147569Y-38511656D01*
X15934637Y-38438556D01*
X15712569Y-38401500D01*
X15487431Y-38401500D01*
X15265362Y-38438556D01*
X15052430Y-38511656D01*
X15052419Y-38511661D01*
X14854427Y-38618808D01*
X14854422Y-38618812D01*
X14676761Y-38757092D01*
X14676756Y-38757097D01*
X14524284Y-38922723D01*
X14524276Y-38922734D01*
X14433808Y-39061206D01*
X14380662Y-39106562D01*
X14311431Y-39115986D01*
X14248095Y-39086484D01*
X14226192Y-39061206D01*
X14135723Y-38922734D01*
X14135715Y-38922723D01*
X13983243Y-38757097D01*
X13983238Y-38757092D01*
X13805577Y-38618812D01*
X13805572Y-38618808D01*
X13607580Y-38511661D01*
X13607577Y-38511659D01*
X13607574Y-38511658D01*
X13607571Y-38511657D01*
X13607569Y-38511656D01*
X13394637Y-38438556D01*
X13172569Y-38401500D01*
X12947431Y-38401500D01*
X12725362Y-38438556D01*
X12512430Y-38511656D01*
X12512419Y-38511661D01*
X12314427Y-38618808D01*
X12314422Y-38618812D01*
X12136761Y-38757092D01*
X12136756Y-38757097D01*
X11984284Y-38922723D01*
X11984276Y-38922734D01*
X11893808Y-39061206D01*
X11840662Y-39106562D01*
X11771431Y-39115986D01*
X11708095Y-39086484D01*
X11686192Y-39061206D01*
X11595723Y-38922734D01*
X11595715Y-38922723D01*
X11443243Y-38757097D01*
X11443238Y-38757092D01*
X11265577Y-38618812D01*
X11265572Y-38618808D01*
X11067580Y-38511661D01*
X11067577Y-38511659D01*
X11067574Y-38511658D01*
X11067571Y-38511657D01*
X11067569Y-38511656D01*
X10854637Y-38438556D01*
X10632569Y-38401500D01*
X10407431Y-38401500D01*
X10185362Y-38438556D01*
X9972430Y-38511656D01*
X9972419Y-38511661D01*
X9774427Y-38618808D01*
X9774422Y-38618812D01*
X9596761Y-38757092D01*
X9596756Y-38757097D01*
X9444284Y-38922723D01*
X9444276Y-38922734D01*
X9353808Y-39061206D01*
X9300662Y-39106562D01*
X9231431Y-39115986D01*
X9168095Y-39086484D01*
X9146192Y-39061206D01*
X9055723Y-38922734D01*
X9055715Y-38922723D01*
X8903243Y-38757097D01*
X8903238Y-38757092D01*
X8725577Y-38618812D01*
X8725572Y-38618808D01*
X8527580Y-38511661D01*
X8527577Y-38511659D01*
X8527574Y-38511658D01*
X8527571Y-38511657D01*
X8527569Y-38511656D01*
X8314637Y-38438556D01*
X8092569Y-38401500D01*
X7867431Y-38401500D01*
X7645362Y-38438556D01*
X7432430Y-38511656D01*
X7432419Y-38511661D01*
X7234427Y-38618808D01*
X7234422Y-38618812D01*
X7056761Y-38757092D01*
X7056756Y-38757097D01*
X6904284Y-38922723D01*
X6904276Y-38922734D01*
X6813808Y-39061206D01*
X6760662Y-39106562D01*
X6691431Y-39115986D01*
X6628095Y-39086484D01*
X6606192Y-39061206D01*
X6515723Y-38922734D01*
X6515715Y-38922723D01*
X6363243Y-38757097D01*
X6363238Y-38757092D01*
X6185577Y-38618812D01*
X6185572Y-38618808D01*
X5987580Y-38511661D01*
X5987577Y-38511659D01*
X5987574Y-38511658D01*
X5987571Y-38511657D01*
X5987569Y-38511656D01*
X5774637Y-38438556D01*
X5552569Y-38401500D01*
X5327431Y-38401500D01*
X5105362Y-38438556D01*
X4892430Y-38511656D01*
X4892419Y-38511661D01*
X4694427Y-38618808D01*
X4694422Y-38618812D01*
X4516761Y-38757092D01*
X4453548Y-38825760D01*
X4393661Y-38861750D01*
X4323823Y-38859649D01*
X4266207Y-38820124D01*
X4246138Y-38785110D01*
X4200889Y-38663796D01*
X4167214Y-38618812D01*
X4113261Y-38546739D01*
X3996204Y-38459111D01*
X3859203Y-38408011D01*
X3798654Y-38401500D01*
X3798638Y-38401500D01*
X2001362Y-38401500D01*
X2001345Y-38401500D01*
X1940797Y-38408011D01*
X1940795Y-38408011D01*
X1803795Y-38459111D01*
X1686739Y-38546739D01*
X1599111Y-38663795D01*
X1548011Y-38800795D01*
X1548011Y-38800797D01*
X1541500Y-38861345D01*
X1541500Y-40658654D01*
X-1870787Y-40658654D01*
X-1814284Y-40597276D01*
X-1814276Y-40597265D01*
X-1691140Y-40408792D01*
X-1600703Y-40202614D01*
X-1545436Y-39984371D01*
X-1545434Y-39984359D01*
X-1526844Y-39760005D01*
X-1526844Y-39759994D01*
X-1545434Y-39535640D01*
X-1545436Y-39535628D01*
X-1600703Y-39317385D01*
X-1691140Y-39111207D01*
X-1814276Y-38922734D01*
X-1814284Y-38922723D01*
X-1966756Y-38757097D01*
X-1966761Y-38757092D01*
X-2144422Y-38618812D01*
X-2144427Y-38618808D01*
X-2342419Y-38511661D01*
X-2342430Y-38511656D01*
X-2555362Y-38438556D01*
X-2777431Y-38401500D01*
X-3002569Y-38401500D01*
X-3224637Y-38438556D01*
X-3437569Y-38511656D01*
X-3437571Y-38511657D01*
X-3437574Y-38511658D01*
X-3437577Y-38511659D01*
X-3437580Y-38511661D01*
X-3635572Y-38618808D01*
X-3635577Y-38618812D01*
X-3813238Y-38757092D01*
X-3813243Y-38757097D01*
X-3965715Y-38922723D01*
X-3965723Y-38922734D01*
X-4056192Y-39061206D01*
X-4109338Y-39106562D01*
X-4178569Y-39115986D01*
X-4241905Y-39086484D01*
X-4263808Y-39061206D01*
X-4354276Y-38922734D01*
X-4354284Y-38922723D01*
X-4506756Y-38757097D01*
X-4506761Y-38757092D01*
X-4684422Y-38618812D01*
X-4684427Y-38618808D01*
X-4882419Y-38511661D01*
X-4882430Y-38511656D01*
X-5095362Y-38438556D01*
X-5317431Y-38401500D01*
X-5542569Y-38401500D01*
X-5764637Y-38438556D01*
X-5977569Y-38511656D01*
X-5977571Y-38511657D01*
X-5977574Y-38511658D01*
X-5977577Y-38511659D01*
X-5977580Y-38511661D01*
X-6175572Y-38618808D01*
X-6175577Y-38618812D01*
X-6353238Y-38757092D01*
X-6353243Y-38757097D01*
X-6505715Y-38922723D01*
X-6505723Y-38922734D01*
X-6596192Y-39061206D01*
X-6649338Y-39106562D01*
X-6718569Y-39115986D01*
X-6781905Y-39086484D01*
X-6803808Y-39061206D01*
X-6894276Y-38922734D01*
X-6894284Y-38922723D01*
X-7046756Y-38757097D01*
X-7046761Y-38757092D01*
X-7224422Y-38618812D01*
X-7224427Y-38618808D01*
X-7422419Y-38511661D01*
X-7422430Y-38511656D01*
X-7635362Y-38438556D01*
X-7857431Y-38401500D01*
X-8082569Y-38401500D01*
X-8304637Y-38438556D01*
X-8517569Y-38511656D01*
X-8517571Y-38511657D01*
X-8517574Y-38511658D01*
X-8517577Y-38511659D01*
X-8517580Y-38511661D01*
X-8715572Y-38618808D01*
X-8715577Y-38618812D01*
X-8893238Y-38757092D01*
X-8893243Y-38757097D01*
X-9045715Y-38922723D01*
X-9045723Y-38922734D01*
X-9136192Y-39061206D01*
X-9189338Y-39106562D01*
X-9258569Y-39115986D01*
X-9321905Y-39086484D01*
X-9343808Y-39061206D01*
X-9434276Y-38922734D01*
X-9434284Y-38922723D01*
X-9586756Y-38757097D01*
X-9586761Y-38757092D01*
X-9764422Y-38618812D01*
X-9764427Y-38618808D01*
X-9962419Y-38511661D01*
X-9962430Y-38511656D01*
X-10175362Y-38438556D01*
X-10397431Y-38401500D01*
X-10622569Y-38401500D01*
X-10844637Y-38438556D01*
X-11057569Y-38511656D01*
X-11057571Y-38511657D01*
X-11057574Y-38511658D01*
X-11057577Y-38511659D01*
X-11057580Y-38511661D01*
X-11255572Y-38618808D01*
X-11255577Y-38618812D01*
X-11433238Y-38757092D01*
X-11433243Y-38757097D01*
X-11585715Y-38922723D01*
X-11585723Y-38922734D01*
X-11676192Y-39061206D01*
X-11729338Y-39106562D01*
X-11798569Y-39115986D01*
X-11861905Y-39086484D01*
X-11883808Y-39061206D01*
X-11974276Y-38922734D01*
X-11974284Y-38922723D01*
X-12126756Y-38757097D01*
X-12126761Y-38757092D01*
X-12304422Y-38618812D01*
X-12304427Y-38618808D01*
X-12502419Y-38511661D01*
X-12502430Y-38511656D01*
X-12715362Y-38438556D01*
X-12937431Y-38401500D01*
X-13162569Y-38401500D01*
X-13384637Y-38438556D01*
X-13597569Y-38511656D01*
X-13597571Y-38511657D01*
X-13597574Y-38511658D01*
X-13597577Y-38511659D01*
X-13597580Y-38511661D01*
X-13795572Y-38618808D01*
X-13795577Y-38618812D01*
X-13973238Y-38757092D01*
X-13973243Y-38757097D01*
X-14125715Y-38922723D01*
X-14125723Y-38922734D01*
X-14216192Y-39061206D01*
X-14269338Y-39106562D01*
X-14338569Y-39115986D01*
X-14401905Y-39086484D01*
X-14423808Y-39061206D01*
X-14514276Y-38922734D01*
X-14514284Y-38922723D01*
X-14666756Y-38757097D01*
X-14666761Y-38757092D01*
X-14844422Y-38618812D01*
X-14844427Y-38618808D01*
X-15042419Y-38511661D01*
X-15042430Y-38511656D01*
X-15255362Y-38438556D01*
X-15477431Y-38401500D01*
X-15702569Y-38401500D01*
X-15924637Y-38438556D01*
X-16137569Y-38511656D01*
X-16137571Y-38511657D01*
X-16137574Y-38511658D01*
X-16137577Y-38511659D01*
X-16137580Y-38511661D01*
X-16335572Y-38618808D01*
X-16335577Y-38618812D01*
X-16513238Y-38757092D01*
X-16513243Y-38757097D01*
X-16665715Y-38922723D01*
X-16665723Y-38922734D01*
X-16756192Y-39061206D01*
X-16809338Y-39106562D01*
X-16878569Y-39115986D01*
X-16941905Y-39086484D01*
X-16963808Y-39061206D01*
X-17054276Y-38922734D01*
X-17054284Y-38922723D01*
X-17206756Y-38757097D01*
X-17206761Y-38757092D01*
X-17384422Y-38618812D01*
X-17384427Y-38618808D01*
X-17582419Y-38511661D01*
X-17582430Y-38511656D01*
X-17795362Y-38438556D01*
X-18017431Y-38401500D01*
X-18242569Y-38401500D01*
X-18464637Y-38438556D01*
X-18677569Y-38511656D01*
X-18677571Y-38511657D01*
X-18677574Y-38511658D01*
X-18677577Y-38511659D01*
X-18677580Y-38511661D01*
X-18875572Y-38618808D01*
X-18875577Y-38618812D01*
X-19053238Y-38757092D01*
X-19053243Y-38757097D01*
X-19205715Y-38922723D01*
X-19205723Y-38922734D01*
X-19296192Y-39061206D01*
X-19349338Y-39106562D01*
X-19418569Y-39115986D01*
X-19481905Y-39086484D01*
X-19503808Y-39061206D01*
X-19594276Y-38922734D01*
X-19594284Y-38922723D01*
X-19746756Y-38757097D01*
X-19746761Y-38757092D01*
X-19924422Y-38618812D01*
X-19924427Y-38618808D01*
X-20122419Y-38511661D01*
X-20122430Y-38511656D01*
X-20335362Y-38438556D01*
X-20557431Y-38401500D01*
X-20782569Y-38401500D01*
X-21004637Y-38438556D01*
X-21217569Y-38511656D01*
X-21217571Y-38511657D01*
X-21217574Y-38511658D01*
X-21217577Y-38511659D01*
X-21217580Y-38511661D01*
X-21415572Y-38618808D01*
X-21415577Y-38618812D01*
X-21593238Y-38757092D01*
X-21593243Y-38757097D01*
X-21745715Y-38922723D01*
X-21745723Y-38922734D01*
X-21836192Y-39061206D01*
X-21889338Y-39106562D01*
X-21958569Y-39115986D01*
X-22021905Y-39086484D01*
X-22043808Y-39061206D01*
X-22134276Y-38922734D01*
X-22134284Y-38922723D01*
X-22286756Y-38757097D01*
X-22286761Y-38757092D01*
X-22464422Y-38618812D01*
X-22464427Y-38618808D01*
X-22662419Y-38511661D01*
X-22662430Y-38511656D01*
X-22875362Y-38438556D01*
X-23097431Y-38401500D01*
X-23322569Y-38401500D01*
X-23544637Y-38438556D01*
X-23757569Y-38511656D01*
X-23757571Y-38511657D01*
X-23757574Y-38511658D01*
X-23757577Y-38511659D01*
X-23757580Y-38511661D01*
X-23955572Y-38618808D01*
X-23955575Y-38618810D01*
X-23955576Y-38618811D01*
X-24133240Y-38757094D01*
X-24196452Y-38825760D01*
X-24256337Y-38861749D01*
X-24326175Y-38859649D01*
X-24383792Y-38820125D01*
X-24403861Y-38785111D01*
X-24449111Y-38663795D01*
X-24536739Y-38546739D01*
X-24653795Y-38459111D01*
X-24790796Y-38408011D01*
X-24851345Y-38401500D01*
X-24851362Y-38401500D01*
X-26648638Y-38401500D01*
X-26648654Y-38401500D01*
X-26709202Y-38408011D01*
X-26709204Y-38408011D01*
X-26846204Y-38459111D01*
X-26963261Y-38546739D01*
X-27050889Y-38663796D01*
X-27079522Y-38740564D01*
X-27096137Y-38785110D01*
X-27101989Y-38800799D01*
X-27105157Y-38830270D01*
X-27108499Y-38861345D01*
X-27108500Y-38861362D01*
X-27108500Y-40658637D01*
X-48930500Y-40658637D01*
X-48930500Y-37562480D01*
X-48928361Y-37549301D01*
X-48930188Y-37523595D01*
X-48930500Y-37514804D01*
X-48930500Y-37509983D01*
X-48930904Y-37508267D01*
X-48933065Y-37503946D01*
X-48936708Y-37495963D01*
X-48946571Y-37472154D01*
X-48954375Y-37461326D01*
X-49917409Y-35535259D01*
X-49925732Y-35500000D01*
X-48313453Y-35500000D01*
X-48293661Y-35801966D01*
X-48234624Y-36098766D01*
X-48137352Y-36385320D01*
X-48003509Y-36656727D01*
X-47835386Y-36908341D01*
X-47635858Y-37135858D01*
X-47408341Y-37335386D01*
X-47156727Y-37503509D01*
X-46885322Y-37637351D01*
X-46885312Y-37637355D01*
X-46791813Y-37669093D01*
X-46598766Y-37734624D01*
X-46301966Y-37793661D01*
X-46000000Y-37813453D01*
X-45698034Y-37793661D01*
X-45401234Y-37734624D01*
X-45319796Y-37706979D01*
X-45114687Y-37637355D01*
X-45114677Y-37637351D01*
X-44843277Y-37503511D01*
X-44843270Y-37503507D01*
X-44591660Y-37335387D01*
X-44364141Y-37135858D01*
X-44164612Y-36908339D01*
X-43996492Y-36656729D01*
X-43996488Y-36656722D01*
X-43862648Y-36385322D01*
X-43862644Y-36385312D01*
X-43765380Y-36098779D01*
X-43765378Y-36098773D01*
X-43765376Y-36098766D01*
X-43706339Y-35801966D01*
X-43686547Y-35500000D01*
X43686547Y-35500000D01*
X43706339Y-35801966D01*
X43765376Y-36098766D01*
X43765378Y-36098773D01*
X43765380Y-36098779D01*
X43862644Y-36385312D01*
X43862648Y-36385322D01*
X43996488Y-36656722D01*
X43996492Y-36656729D01*
X44164612Y-36908339D01*
X44364141Y-37135858D01*
X44591660Y-37335387D01*
X44843270Y-37503507D01*
X44843277Y-37503511D01*
X45114677Y-37637351D01*
X45114687Y-37637355D01*
X45319796Y-37706979D01*
X45401234Y-37734624D01*
X45698034Y-37793661D01*
X46000000Y-37813453D01*
X46301966Y-37793661D01*
X46598766Y-37734624D01*
X46791813Y-37669093D01*
X46885312Y-37637355D01*
X46885322Y-37637351D01*
X47156727Y-37503509D01*
X47408341Y-37335386D01*
X47635858Y-37135858D01*
X47835386Y-36908341D01*
X48003509Y-36656727D01*
X48137352Y-36385320D01*
X48234624Y-36098766D01*
X48293661Y-35801966D01*
X48313453Y-35500000D01*
X48293661Y-35198034D01*
X48234624Y-34901234D01*
X48137352Y-34614680D01*
X48137344Y-34614663D01*
X48003514Y-34343283D01*
X48003505Y-34343268D01*
X48001242Y-34339881D01*
X47835386Y-34091659D01*
X47791670Y-34041811D01*
X47635858Y-33864141D01*
X47408339Y-33664612D01*
X47156729Y-33496492D01*
X47156722Y-33496488D01*
X46885322Y-33362648D01*
X46885312Y-33362644D01*
X46598779Y-33265380D01*
X46598773Y-33265378D01*
X46598766Y-33265376D01*
X46301966Y-33206339D01*
X46000000Y-33186547D01*
X45698034Y-33206339D01*
X45698028Y-33206340D01*
X45698023Y-33206341D01*
X45401239Y-33265375D01*
X45401225Y-33265378D01*
X45114684Y-33362646D01*
X45114663Y-33362655D01*
X44843283Y-33496485D01*
X44843268Y-33496494D01*
X44591657Y-33664615D01*
X44364141Y-33864141D01*
X44164615Y-34091657D01*
X43996494Y-34343268D01*
X43996485Y-34343283D01*
X43862655Y-34614663D01*
X43862646Y-34614684D01*
X43765378Y-34901225D01*
X43765376Y-34901233D01*
X43765376Y-34901234D01*
X43706339Y-35198034D01*
X43686547Y-35500000D01*
X-43686547Y-35500000D01*
X-43706339Y-35198034D01*
X-43765376Y-34901234D01*
X-43765376Y-34901233D01*
X-43765378Y-34901225D01*
X-43862646Y-34614684D01*
X-43862655Y-34614663D01*
X-43996485Y-34343283D01*
X-43996494Y-34343268D01*
X-44164615Y-34091657D01*
X-44364141Y-33864141D01*
X-44591660Y-33664612D01*
X-44843270Y-33496492D01*
X-44843277Y-33496488D01*
X-45114677Y-33362648D01*
X-45114687Y-33362644D01*
X-45401220Y-33265380D01*
X-45401229Y-33265377D01*
X-45401234Y-33265376D01*
X-45401239Y-33265375D01*
X-45698023Y-33206341D01*
X-45698028Y-33206340D01*
X-45698034Y-33206339D01*
X-46000000Y-33186547D01*
X-46301966Y-33206339D01*
X-46598766Y-33265376D01*
X-46598768Y-33265376D01*
X-46598774Y-33265378D01*
X-46885315Y-33362646D01*
X-46885336Y-33362655D01*
X-47156716Y-33496485D01*
X-47156731Y-33496494D01*
X-47408342Y-33664615D01*
X-47635858Y-33864141D01*
X-47791670Y-34041811D01*
X-47835386Y-34091659D01*
X-48001242Y-34339881D01*
X-48003505Y-34343268D01*
X-48003514Y-34343283D01*
X-48137344Y-34614663D01*
X-48137352Y-34614680D01*
X-48234624Y-34901234D01*
X-48293661Y-35198034D01*
X-48313453Y-35500000D01*
X-49925732Y-35500000D01*
X-49930500Y-35479804D01*
X-49930500Y-23842135D01*
X-34212184Y-23842135D01*
X-34202369Y-24073178D01*
X-34153649Y-24299238D01*
X-34067426Y-24513813D01*
X-33946179Y-24710730D01*
X-33793398Y-24884324D01*
X-33613476Y-25029600D01*
X-33550195Y-25064950D01*
X-33501269Y-25114829D01*
X-33487076Y-25183242D01*
X-33512123Y-25248468D01*
X-33539545Y-25274779D01*
X-33721077Y-25401890D01*
X-33721079Y-25401891D01*
X-33888105Y-25568917D01*
X-34023600Y-25762421D01*
X-34123429Y-25976507D01*
X-34123432Y-25976513D01*
X-34180635Y-26189999D01*
X-34180636Y-26190000D01*
X-33133686Y-26190000D01*
X-33159493Y-26230156D01*
X-33200000Y-26368111D01*
X-33200000Y-26511889D01*
X-33159493Y-26649844D01*
X-33133686Y-26690000D01*
X-34180636Y-26690000D01*
X-34123432Y-26903486D01*
X-34123429Y-26903492D01*
X-34023600Y-27117577D01*
X-34023599Y-27117579D01*
X-33888113Y-27311073D01*
X-33888108Y-27311079D01*
X-33721079Y-27478108D01*
X-33721073Y-27478113D01*
X-33527579Y-27613599D01*
X-33527577Y-27613600D01*
X-33313492Y-27713429D01*
X-33313483Y-27713433D01*
X-33085326Y-27774567D01*
X-33085315Y-27774569D01*
X-32950000Y-27786407D01*
X-32950000Y-26875501D01*
X-32842315Y-26924680D01*
X-32735763Y-26940000D01*
X-32664237Y-26940000D01*
X-32557685Y-26924680D01*
X-32450000Y-26875501D01*
X-32450000Y-27786407D01*
X-32449999Y-27786407D01*
X-32314684Y-27774569D01*
X-32314673Y-27774567D01*
X-32086516Y-27713433D01*
X-32086507Y-27713429D01*
X-31872422Y-27613600D01*
X-31872420Y-27613599D01*
X-31678926Y-27478113D01*
X-31678920Y-27478108D01*
X-31511894Y-27311082D01*
X-31376399Y-27117578D01*
X-31276570Y-26903492D01*
X-31276567Y-26903486D01*
X-31219364Y-26690000D01*
X-32266314Y-26690000D01*
X-32240507Y-26649844D01*
X-32200000Y-26511889D01*
X-32200000Y-26368111D01*
X-32240507Y-26230156D01*
X-32266314Y-26190000D01*
X-31219364Y-26190000D01*
X-31219364Y-26189999D01*
X-31276567Y-25976513D01*
X-31276570Y-25976507D01*
X-31376399Y-25762422D01*
X-31376400Y-25762420D01*
X-31511886Y-25568926D01*
X-31511891Y-25568920D01*
X-31678920Y-25401891D01*
X-31678927Y-25401886D01*
X-31858978Y-25275813D01*
X-31902603Y-25221236D01*
X-31909796Y-25151738D01*
X-31878274Y-25089383D01*
X-31857292Y-25071503D01*
X-31693486Y-24960790D01*
X-31693481Y-24960786D01*
X-31693477Y-24960783D01*
X-31526524Y-24800772D01*
X-31389015Y-24614847D01*
X-31389013Y-24614844D01*
X-31284905Y-24408358D01*
X-31217188Y-24187240D01*
X-31187815Y-23957862D01*
X-31197630Y-23726827D01*
X-31197630Y-23726821D01*
X-31246351Y-23500759D01*
X-31332572Y-23286190D01*
X-31453820Y-23089270D01*
X-31606599Y-22915679D01*
X-31606605Y-22915672D01*
X-31786517Y-22770404D01*
X-31786523Y-22770399D01*
X-31988405Y-22657621D01*
X-32206446Y-22580582D01*
X-32206456Y-22580579D01*
X-32434365Y-22541500D01*
X-32434375Y-22541500D01*
X-32907713Y-22541500D01*
X-32907730Y-22541500D01*
X-33080413Y-22556197D01*
X-33304206Y-22614469D01*
X-33304210Y-22614470D01*
X-33514919Y-22709716D01*
X-33514931Y-22709723D01*
X-33706513Y-22839209D01*
X-33706518Y-22839214D01*
X-33706523Y-22839217D01*
X-33873476Y-22999228D01*
X-34010985Y-23185153D01*
X-34115095Y-23391643D01*
X-34182811Y-23612757D01*
X-34212184Y-23842135D01*
X-49930500Y-23842135D01*
X-49930500Y-16262135D01*
X-34212184Y-16262135D01*
X-34202369Y-16493178D01*
X-34153649Y-16719238D01*
X-34067426Y-16933813D01*
X-33946179Y-17130730D01*
X-33793398Y-17304324D01*
X-33613476Y-17449600D01*
X-33411591Y-17562380D01*
X-33193550Y-17639419D01*
X-33132153Y-17649946D01*
X-32965634Y-17678499D01*
X-32965626Y-17678499D01*
X-32965625Y-17678500D01*
X-32965624Y-17678500D01*
X-32492287Y-17678500D01*
X-32492269Y-17678499D01*
X-32319586Y-17663802D01*
X-32095793Y-17605530D01*
X-32095789Y-17605529D01*
X-31885080Y-17510283D01*
X-31885068Y-17510276D01*
X-31693486Y-17380790D01*
X-31693481Y-17380786D01*
X-31693477Y-17380783D01*
X-31526524Y-17220772D01*
X-31389015Y-17034847D01*
X-31389013Y-17034844D01*
X-31284905Y-16828358D01*
X-31217188Y-16607240D01*
X-31187815Y-16377862D01*
X-31197630Y-16146827D01*
X-31197630Y-16146821D01*
X-31246351Y-15920759D01*
X-31332572Y-15706190D01*
X-31453820Y-15509270D01*
X-31606599Y-15335679D01*
X-31606605Y-15335672D01*
X-31786517Y-15190404D01*
X-31786523Y-15190400D01*
X-31875370Y-15140766D01*
X-31924295Y-15090886D01*
X-31938487Y-15022472D01*
X-31913439Y-14957247D01*
X-31884331Y-14929778D01*
X-31693486Y-14800790D01*
X-31693481Y-14800786D01*
X-31693477Y-14800783D01*
X-31526524Y-14640772D01*
X-31389015Y-14454847D01*
X-31389013Y-14454844D01*
X-31284905Y-14248358D01*
X-31217188Y-14027240D01*
X-31187815Y-13797862D01*
X-31197630Y-13566827D01*
X-31197630Y-13566821D01*
X-31246351Y-13340759D01*
X-31332572Y-13126190D01*
X-31453820Y-12929270D01*
X-31567592Y-12800000D01*
X-3813504Y-12800000D01*
X-3793542Y-12989928D01*
X-3734527Y-13171556D01*
X-3639040Y-13336944D01*
X-3511253Y-13478866D01*
X-3356752Y-13591118D01*
X-3182288Y-13668794D01*
X-2995487Y-13708500D01*
X-2804513Y-13708500D01*
X-2617712Y-13668794D01*
X-2443248Y-13591118D01*
X-2288747Y-13478866D01*
X-2160960Y-13336944D01*
X-2065473Y-13171556D01*
X-2065470Y-13171549D01*
X-2006459Y-12989931D01*
X-2006458Y-12989928D01*
X-1986496Y-12800000D01*
X24786496Y-12800000D01*
X24806458Y-12989928D01*
X24806459Y-12989931D01*
X24865470Y-13171549D01*
X24865473Y-13171556D01*
X24960960Y-13336944D01*
X25088747Y-13478866D01*
X25243248Y-13591118D01*
X25417712Y-13668794D01*
X25604513Y-13708500D01*
X25795487Y-13708500D01*
X25982288Y-13668794D01*
X26156752Y-13591118D01*
X26311253Y-13478866D01*
X26439040Y-13336944D01*
X26534527Y-13171556D01*
X26593542Y-12989928D01*
X26613504Y-12800000D01*
X26593542Y-12610072D01*
X26534527Y-12428444D01*
X26439040Y-12263056D01*
X26311253Y-12121134D01*
X26156752Y-12008882D01*
X25982288Y-11931206D01*
X25982286Y-11931205D01*
X25795487Y-11891500D01*
X25604513Y-11891500D01*
X25417714Y-11931205D01*
X25243246Y-12008883D01*
X25088745Y-12121135D01*
X24960959Y-12263057D01*
X24865473Y-12428443D01*
X24865470Y-12428450D01*
X24819579Y-12569689D01*
X24806458Y-12610072D01*
X24786496Y-12800000D01*
X-1986496Y-12800000D01*
X-2006458Y-12610072D01*
X-2019579Y-12569689D01*
X-2065470Y-12428450D01*
X-2065473Y-12428443D01*
X-2160959Y-12263057D01*
X-2288745Y-12121135D01*
X-2443246Y-12008883D01*
X-2617714Y-11931205D01*
X-2617713Y-11931205D01*
X-2804513Y-11891500D01*
X-2995487Y-11891500D01*
X-3182285Y-11931205D01*
X-3182286Y-11931205D01*
X-3182288Y-11931206D01*
X-3356752Y-12008882D01*
X-3511253Y-12121134D01*
X-3639040Y-12263056D01*
X-3734527Y-12428444D01*
X-3793542Y-12610072D01*
X-3813504Y-12800000D01*
X-31567592Y-12800000D01*
X-31606599Y-12755679D01*
X-31610401Y-12752036D01*
X-31609237Y-12750822D01*
X-31644734Y-12699561D01*
X-31647141Y-12629733D01*
X-31611413Y-12569689D01*
X-31570365Y-12544368D01*
X-31453796Y-12500889D01*
X-31453793Y-12500887D01*
X-31336739Y-12413261D01*
X-31249111Y-12296204D01*
X-31198011Y-12159204D01*
X-31198011Y-12159202D01*
X-31191500Y-12098654D01*
X-31191500Y-10301345D01*
X-31198011Y-10240797D01*
X-31198011Y-10240795D01*
X-31249111Y-10103795D01*
X-31336739Y-9986739D01*
X-31453795Y-9899111D01*
X-31590796Y-9848011D01*
X-31651345Y-9841500D01*
X-31651362Y-9841500D01*
X-33748638Y-9841500D01*
X-33748654Y-9841500D01*
X-33809202Y-9848011D01*
X-33809204Y-9848011D01*
X-33946204Y-9899111D01*
X-34063261Y-9986739D01*
X-34150889Y-10103796D01*
X-34201989Y-10240799D01*
X-34205157Y-10270270D01*
X-34208499Y-10301345D01*
X-34208500Y-10301362D01*
X-34208500Y-12098637D01*
X-34208499Y-12098654D01*
X-34205591Y-12125692D01*
X-34201989Y-12159201D01*
X-34150889Y-12296204D01*
X-34063261Y-12413261D01*
X-33946204Y-12500889D01*
X-33824795Y-12546172D01*
X-33768866Y-12588042D01*
X-33744449Y-12653506D01*
X-33759301Y-12721779D01*
X-33782332Y-12751874D01*
X-33873476Y-12839228D01*
X-34010985Y-13025153D01*
X-34115095Y-13231643D01*
X-34182811Y-13452757D01*
X-34212184Y-13682135D01*
X-34202369Y-13913178D01*
X-34153649Y-14139238D01*
X-34067426Y-14353813D01*
X-33946179Y-14550730D01*
X-33793398Y-14724324D01*
X-33793394Y-14724327D01*
X-33613482Y-14869595D01*
X-33613476Y-14869600D01*
X-33524631Y-14919232D01*
X-33475704Y-14969112D01*
X-33461512Y-15037525D01*
X-33486560Y-15102751D01*
X-33515668Y-15130221D01*
X-33706512Y-15259209D01*
X-33706516Y-15259212D01*
X-33706523Y-15259217D01*
X-33873476Y-15419228D01*
X-34010985Y-15605153D01*
X-34115095Y-15811643D01*
X-34182811Y-16032757D01*
X-34212184Y-16262135D01*
X-49930500Y-16262135D01*
X-49930500Y-4200000D01*
X-27035353Y-4200000D01*
X-27015978Y-4421463D01*
X-26958440Y-4636196D01*
X-26864488Y-4837677D01*
X-26736977Y-5019781D01*
X-26579781Y-5176977D01*
X-26484165Y-5243927D01*
X-26440544Y-5298502D01*
X-26433351Y-5368001D01*
X-26464873Y-5430355D01*
X-26525103Y-5465769D01*
X-26555292Y-5469500D01*
X-26570654Y-5469500D01*
X-26631202Y-5476011D01*
X-26631204Y-5476011D01*
X-26768204Y-5527111D01*
X-26885261Y-5614739D01*
X-26972889Y-5731796D01*
X-27001522Y-5808564D01*
X-27018150Y-5853145D01*
X-27023989Y-5868799D01*
X-27027144Y-5898145D01*
X-27030499Y-5929345D01*
X-27030500Y-5929362D01*
X-27030500Y-7550637D01*
X-27030499Y-7550654D01*
X-27027591Y-7577692D01*
X-27023989Y-7611201D01*
X-26972889Y-7748204D01*
X-26885261Y-7865261D01*
X-26768204Y-7952889D01*
X-26631201Y-8003989D01*
X-26599623Y-8007383D01*
X-26570654Y-8010499D01*
X-26570638Y-8010500D01*
X-24949362Y-8010500D01*
X-24949345Y-8010499D01*
X-24918270Y-8007157D01*
X-24888799Y-8003989D01*
X-24888796Y-8003988D01*
X-24888795Y-8003988D01*
X-24828564Y-7981522D01*
X-24751796Y-7952889D01*
X-24634739Y-7865261D01*
X-24547111Y-7748204D01*
X-24541217Y-7732401D01*
X-24501842Y-7626837D01*
X-4246700Y-7626837D01*
X-4246699Y-7626854D01*
X-4243791Y-7653892D01*
X-4240189Y-7687401D01*
X-4189089Y-7824404D01*
X-4101461Y-7941461D01*
X-3984404Y-8029089D01*
X-3847401Y-8080189D01*
X-3815823Y-8083583D01*
X-3786854Y-8086699D01*
X-3786838Y-8086700D01*
X-2013162Y-8086700D01*
X-2013145Y-8086699D01*
X-1982070Y-8083357D01*
X-1952599Y-8080189D01*
X-1952596Y-8080188D01*
X-1952595Y-8080188D01*
X-1886403Y-8055499D01*
X-1815596Y-8029089D01*
X-1698539Y-7941461D01*
X-1610911Y-7824404D01*
X-1599274Y-7793204D01*
X-1559811Y-7687404D01*
X-1559811Y-7687402D01*
X-1553300Y-7626854D01*
X-1553300Y-5853145D01*
X-1559811Y-5792597D01*
X-1559811Y-5792595D01*
X-1610911Y-5655595D01*
X-1698539Y-5538539D01*
X-1815595Y-5450911D01*
X-1952596Y-5399811D01*
X-2011635Y-5393463D01*
X-2076186Y-5366724D01*
X-2116033Y-5309331D01*
X-2118526Y-5239506D01*
X-2083826Y-5181025D01*
X-2084047Y-5180805D01*
X-2083181Y-5179939D01*
X-2082872Y-5179418D01*
X-2081043Y-5177801D01*
X-1923027Y-5019785D01*
X-1923023Y-5019781D01*
X-1795512Y-4837677D01*
X-1795511Y-4837676D01*
X-1748536Y-4736936D01*
X-1701560Y-4636196D01*
X-1701559Y-4636193D01*
X-1701558Y-4636191D01*
X-1644022Y-4421465D01*
X-1644021Y-4421457D01*
X-1628584Y-4245002D01*
X1579647Y-4245002D01*
X1599021Y-4466457D01*
X1599022Y-4466465D01*
X1656558Y-4681191D01*
X1656559Y-4681193D01*
X1656560Y-4681196D01*
X1703536Y-4781936D01*
X1750511Y-4882676D01*
X1750512Y-4882677D01*
X1878023Y-5064781D01*
X2035219Y-5221977D01*
X2130834Y-5288927D01*
X2174456Y-5343502D01*
X2181649Y-5413001D01*
X2150127Y-5475355D01*
X2089897Y-5510769D01*
X2059708Y-5514500D01*
X2044345Y-5514500D01*
X1983797Y-5521011D01*
X1983795Y-5521011D01*
X1846795Y-5572111D01*
X1729739Y-5659739D01*
X1642111Y-5776795D01*
X1591011Y-5913795D01*
X1591011Y-5913797D01*
X1584500Y-5974345D01*
X1584500Y-7595654D01*
X1591011Y-7656202D01*
X1591011Y-7656204D01*
X1642111Y-7793204D01*
X1729739Y-7910261D01*
X1846796Y-7997889D01*
X1983799Y-8048989D01*
X2011050Y-8051918D01*
X2044345Y-8055499D01*
X2044362Y-8055500D01*
X3665638Y-8055500D01*
X3665654Y-8055499D01*
X3692692Y-8052591D01*
X3726201Y-8048989D01*
X3863204Y-7997889D01*
X3980261Y-7910261D01*
X4067889Y-7793204D01*
X4113151Y-7671854D01*
X24368300Y-7671854D01*
X24374811Y-7732402D01*
X24374811Y-7732404D01*
X24424365Y-7865260D01*
X24425911Y-7869404D01*
X24513539Y-7986461D01*
X24630596Y-8074089D01*
X24767599Y-8125189D01*
X24794850Y-8128118D01*
X24828145Y-8131699D01*
X24828162Y-8131700D01*
X26601838Y-8131700D01*
X26601854Y-8131699D01*
X26628892Y-8128791D01*
X26662401Y-8125189D01*
X26799404Y-8074089D01*
X26916461Y-7986461D01*
X27004089Y-7869404D01*
X27055189Y-7732401D01*
X27060027Y-7687401D01*
X27061699Y-7671854D01*
X27061700Y-7671837D01*
X27061700Y-5898162D01*
X27061699Y-5898145D01*
X27056860Y-5853145D01*
X27055189Y-5837599D01*
X27004089Y-5700596D01*
X26916461Y-5583539D01*
X26799404Y-5495911D01*
X26746051Y-5476011D01*
X26662403Y-5444811D01*
X26603364Y-5438463D01*
X26538813Y-5411724D01*
X26498966Y-5354331D01*
X26496473Y-5284506D01*
X26531172Y-5226024D01*
X26530953Y-5225805D01*
X26531813Y-5224944D01*
X26532126Y-5224418D01*
X26533964Y-5222793D01*
X26534777Y-5221979D01*
X26534781Y-5221977D01*
X26691977Y-5064781D01*
X26819488Y-4882677D01*
X26913440Y-4681196D01*
X26970978Y-4466463D01*
X26990353Y-4245000D01*
X26970978Y-4023537D01*
X26913440Y-3808804D01*
X26819488Y-3607324D01*
X26819486Y-3607321D01*
X26819485Y-3607319D01*
X26691978Y-3425220D01*
X26645862Y-3379104D01*
X26534781Y-3268023D01*
X26352677Y-3140512D01*
X26238738Y-3087381D01*
X26186299Y-3041210D01*
X26167147Y-2974017D01*
X26187363Y-2907135D01*
X26238739Y-2862618D01*
X26247699Y-2858440D01*
X26352677Y-2809488D01*
X26534781Y-2681977D01*
X26691977Y-2524781D01*
X26819488Y-2342677D01*
X26913440Y-2141196D01*
X26970978Y-1926463D01*
X26990353Y-1705000D01*
X26990203Y-1703289D01*
X26970978Y-1483542D01*
X26970978Y-1483537D01*
X26913440Y-1268804D01*
X26819488Y-1067324D01*
X26819486Y-1067321D01*
X26819485Y-1067319D01*
X26691978Y-885220D01*
X26646975Y-840217D01*
X26534781Y-728023D01*
X26352677Y-600512D01*
X26238738Y-547381D01*
X26186299Y-501210D01*
X26167147Y-434017D01*
X26187363Y-367135D01*
X26238739Y-322618D01*
X26247699Y-318440D01*
X26352677Y-269488D01*
X26534781Y-141977D01*
X26691977Y15219D01*
X26819488Y197323D01*
X26913440Y398804D01*
X26970978Y613537D01*
X26990353Y835000D01*
X26970978Y1056463D01*
X26913440Y1271196D01*
X26819488Y1472676D01*
X26691977Y1654781D01*
X26534781Y1811977D01*
X26352677Y1939488D01*
X26238738Y1992618D01*
X26186299Y2038790D01*
X26167147Y2105983D01*
X26187363Y2172865D01*
X26238739Y2217382D01*
X26352673Y2270510D01*
X26352675Y2270511D01*
X26352677Y2270512D01*
X26534781Y2398023D01*
X26691977Y2555219D01*
X26819488Y2737323D01*
X26913440Y2938804D01*
X26970978Y3153537D01*
X26990353Y3375000D01*
X26970978Y3596463D01*
X26913440Y3811196D01*
X26819488Y4012676D01*
X26691977Y4194781D01*
X26534781Y4351977D01*
X26352677Y4479488D01*
X26238738Y4532618D01*
X26186299Y4578790D01*
X26167147Y4645983D01*
X26187363Y4712865D01*
X26238739Y4757382D01*
X26352673Y4810510D01*
X26352675Y4810511D01*
X26352677Y4810512D01*
X26534781Y4938023D01*
X26691977Y5095219D01*
X26819488Y5277323D01*
X26913440Y5478804D01*
X26970978Y5693537D01*
X26990353Y5915000D01*
X26970978Y6136463D01*
X26913440Y6351196D01*
X26819488Y6552676D01*
X26691977Y6734781D01*
X26534781Y6891977D01*
X26352677Y7019488D01*
X26238738Y7072618D01*
X26186299Y7118790D01*
X26167147Y7185983D01*
X26187363Y7252865D01*
X26238739Y7297382D01*
X26352673Y7350510D01*
X26352675Y7350511D01*
X26352677Y7350512D01*
X26534781Y7478023D01*
X26691977Y7635219D01*
X26819488Y7817323D01*
X26913440Y8018804D01*
X26970978Y8233537D01*
X26990353Y8455000D01*
X26989239Y8467729D01*
X26979981Y8573553D01*
X26970978Y8676463D01*
X26913440Y8891196D01*
X26819488Y9092676D01*
X26691977Y9274781D01*
X26534781Y9431977D01*
X26352677Y9559488D01*
X26228682Y9617307D01*
X26176243Y9663479D01*
X26157091Y9730672D01*
X26177306Y9797554D01*
X26228683Y9842071D01*
X26348405Y9897898D01*
X26348411Y9897901D01*
X26413187Y9943258D01*
X26413188Y9943259D01*
X25798398Y10558049D01*
X25847499Y10565450D01*
X25968224Y10623588D01*
X26066450Y10714728D01*
X26133447Y10830772D01*
X26151906Y10911645D01*
X26766740Y10296810D01*
X26812099Y10361590D01*
X26812100Y10361592D01*
X26905419Y10561715D01*
X26905424Y10561729D01*
X26962573Y10775013D01*
X26962575Y10775023D01*
X26981821Y10994999D01*
X26981821Y10995000D01*
X26962575Y11214976D01*
X26962573Y11214986D01*
X26905424Y11428270D01*
X26905420Y11428279D01*
X26812098Y11628409D01*
X26766740Y11693188D01*
X26154319Y11080767D01*
X26153251Y11095028D01*
X26104297Y11219760D01*
X26020752Y11324522D01*
X25910040Y11400004D01*
X25800301Y11433853D01*
X26413188Y12046741D01*
X26348417Y12092094D01*
X26348407Y12092100D01*
X26148284Y12185419D01*
X26148270Y12185424D01*
X25934986Y12242573D01*
X25934976Y12242575D01*
X25715001Y12261821D01*
X25714999Y12261821D01*
X25495023Y12242575D01*
X25495013Y12242573D01*
X25281729Y12185424D01*
X25281720Y12185420D01*
X25081586Y12092096D01*
X25016811Y12046741D01*
X25016810Y12046740D01*
X25631601Y11431950D01*
X25582501Y11424550D01*
X25461776Y11366412D01*
X25363550Y11275272D01*
X25296553Y11159228D01*
X25278093Y11078353D01*
X24663258Y11693188D01*
X24663257Y11693187D01*
X24617903Y11628413D01*
X24524579Y11428279D01*
X24524575Y11428270D01*
X24467426Y11214986D01*
X24467424Y11214976D01*
X24448179Y10995000D01*
X24448179Y10994999D01*
X24467424Y10775023D01*
X24467426Y10775013D01*
X24524575Y10561729D01*
X24524580Y10561715D01*
X24617901Y10361588D01*
X24617902Y10361586D01*
X24663257Y10296811D01*
X24663258Y10296810D01*
X25275680Y10909232D01*
X25276749Y10894972D01*
X25325703Y10770240D01*
X25409248Y10665478D01*
X25519960Y10589996D01*
X25629698Y10556145D01*
X25016810Y9943258D01*
X25016811Y9943257D01*
X25081585Y9897903D01*
X25201317Y9842071D01*
X25253756Y9795899D01*
X25272908Y9728705D01*
X25252692Y9661824D01*
X25201317Y9617307D01*
X25077324Y9559488D01*
X25077323Y9559487D01*
X25077319Y9559485D01*
X24895217Y9431976D01*
X24738023Y9274782D01*
X24610514Y9092680D01*
X24610512Y9092676D01*
X24516561Y8891199D01*
X24459022Y8676464D01*
X24459021Y8676457D01*
X24439647Y8455002D01*
X24439647Y8454997D01*
X24459021Y8233542D01*
X24459022Y8233534D01*
X24516558Y8018808D01*
X24516561Y8018802D01*
X24610511Y7817323D01*
X24677864Y7721135D01*
X24737865Y7635444D01*
X24738027Y7635214D01*
X24895214Y7478027D01*
X24895217Y7478024D01*
X24895219Y7478023D01*
X24996242Y7407285D01*
X25077321Y7350513D01*
X25191262Y7297381D01*
X25243701Y7251208D01*
X25262852Y7184014D01*
X25242636Y7117133D01*
X25191261Y7072618D01*
X25077324Y7019488D01*
X25077321Y7019486D01*
X25077319Y7019485D01*
X24895217Y6891976D01*
X24738023Y6734782D01*
X24610514Y6552680D01*
X24610512Y6552676D01*
X24516561Y6351199D01*
X24459022Y6136464D01*
X24459021Y6136457D01*
X24439647Y5915002D01*
X24439647Y5914997D01*
X24459021Y5693542D01*
X24459022Y5693534D01*
X24516558Y5478808D01*
X24516561Y5478802D01*
X24610511Y5277323D01*
X24738027Y5095214D01*
X24895214Y4938027D01*
X24895217Y4938024D01*
X24895219Y4938023D01*
X24996242Y4867285D01*
X25077321Y4810513D01*
X25191262Y4757381D01*
X25243701Y4711208D01*
X25262852Y4644014D01*
X25242636Y4577133D01*
X25191261Y4532618D01*
X25077324Y4479488D01*
X25077321Y4479486D01*
X25077319Y4479485D01*
X24895217Y4351976D01*
X24738023Y4194782D01*
X24610514Y4012680D01*
X24610512Y4012676D01*
X24516561Y3811199D01*
X24459022Y3596464D01*
X24459021Y3596457D01*
X24439647Y3375002D01*
X24439647Y3374997D01*
X24459021Y3153542D01*
X24459022Y3153534D01*
X24516558Y2938808D01*
X24516561Y2938802D01*
X24610511Y2737323D01*
X24738027Y2555214D01*
X24895214Y2398027D01*
X24895217Y2398024D01*
X24895219Y2398023D01*
X24996242Y2327285D01*
X25077321Y2270513D01*
X25191262Y2217381D01*
X25243701Y2171208D01*
X25262852Y2104014D01*
X25242636Y2037133D01*
X25191261Y1992618D01*
X25077324Y1939488D01*
X25077321Y1939486D01*
X25077319Y1939485D01*
X24895217Y1811976D01*
X24738023Y1654782D01*
X24610514Y1472680D01*
X24610512Y1472676D01*
X24516561Y1271199D01*
X24459022Y1056464D01*
X24459021Y1056457D01*
X24439647Y835002D01*
X24439647Y834997D01*
X24459021Y613542D01*
X24459022Y613534D01*
X24516558Y398808D01*
X24516561Y398802D01*
X24610511Y197323D01*
X24738027Y15214D01*
X24840201Y-86959D01*
X24895219Y-141977D01*
X25077323Y-269488D01*
X25191261Y-322618D01*
X25243700Y-368790D01*
X25262852Y-435984D01*
X25242636Y-502865D01*
X25191261Y-547382D01*
X25077323Y-600512D01*
X25077319Y-600514D01*
X24895217Y-728023D01*
X24738023Y-885217D01*
X24610514Y-1067319D01*
X24610512Y-1067323D01*
X24516561Y-1268800D01*
X24459022Y-1483535D01*
X24459021Y-1483542D01*
X24439647Y-1704997D01*
X24439647Y-1705002D01*
X24459021Y-1926457D01*
X24459022Y-1926465D01*
X24516558Y-2141191D01*
X24516559Y-2141193D01*
X24516560Y-2141196D01*
X24563536Y-2241936D01*
X24610511Y-2342676D01*
X24610512Y-2342677D01*
X24738023Y-2524781D01*
X24895219Y-2681977D01*
X25077323Y-2809488D01*
X25191261Y-2862618D01*
X25243700Y-2908790D01*
X25262852Y-2975984D01*
X25242636Y-3042865D01*
X25191261Y-3087382D01*
X25077323Y-3140512D01*
X25077319Y-3140514D01*
X24895217Y-3268023D01*
X24738023Y-3425217D01*
X24610514Y-3607319D01*
X24610512Y-3607323D01*
X24516561Y-3808800D01*
X24459022Y-4023535D01*
X24459021Y-4023542D01*
X24439647Y-4244997D01*
X24439647Y-4245002D01*
X24459021Y-4466457D01*
X24459022Y-4466465D01*
X24516558Y-4681191D01*
X24516559Y-4681193D01*
X24516560Y-4681196D01*
X24563536Y-4781936D01*
X24610511Y-4882676D01*
X24610512Y-4882677D01*
X24738023Y-5064781D01*
X24738027Y-5064785D01*
X24899047Y-5225805D01*
X24897710Y-5227141D01*
X24931783Y-5278347D01*
X24932897Y-5348207D01*
X24896065Y-5407580D01*
X24832980Y-5437615D01*
X24826635Y-5438463D01*
X24767597Y-5444811D01*
X24767595Y-5444811D01*
X24630595Y-5495911D01*
X24513539Y-5583539D01*
X24425911Y-5700595D01*
X24374811Y-5837595D01*
X24374811Y-5837597D01*
X24368300Y-5898145D01*
X24368300Y-7671854D01*
X4113151Y-7671854D01*
X4118989Y-7656201D01*
X4123827Y-7611201D01*
X4125499Y-7595654D01*
X4125500Y-7595637D01*
X4125500Y-5974362D01*
X4125499Y-5974345D01*
X4120660Y-5929345D01*
X4118989Y-5913799D01*
X4113150Y-5898145D01*
X4096366Y-5853145D01*
X4067889Y-5776796D01*
X3980261Y-5659739D01*
X3863204Y-5572111D01*
X3726203Y-5521011D01*
X3665654Y-5514500D01*
X3665638Y-5514500D01*
X3650292Y-5514500D01*
X3583253Y-5494815D01*
X3537498Y-5442011D01*
X3527554Y-5372853D01*
X3556579Y-5309297D01*
X3579162Y-5288930D01*
X3674781Y-5221977D01*
X3831977Y-5064781D01*
X3959488Y-4882677D01*
X4053440Y-4681196D01*
X4110978Y-4466463D01*
X4130353Y-4245000D01*
X4110978Y-4023537D01*
X4053440Y-3808804D01*
X3959488Y-3607324D01*
X3959486Y-3607321D01*
X3959485Y-3607319D01*
X3831978Y-3425220D01*
X3785862Y-3379104D01*
X3674781Y-3268023D01*
X3492677Y-3140512D01*
X3378738Y-3087381D01*
X3326299Y-3041210D01*
X3307147Y-2974017D01*
X3327363Y-2907135D01*
X3378739Y-2862618D01*
X3387699Y-2858440D01*
X3492677Y-2809488D01*
X3674781Y-2681977D01*
X3831977Y-2524781D01*
X3959488Y-2342677D01*
X4053440Y-2141196D01*
X4110978Y-1926463D01*
X4130353Y-1705000D01*
X4130203Y-1703289D01*
X4110978Y-1483542D01*
X4110978Y-1483537D01*
X4053440Y-1268804D01*
X3959488Y-1067324D01*
X3959486Y-1067321D01*
X3959485Y-1067319D01*
X3831978Y-885220D01*
X3786975Y-840217D01*
X3674781Y-728023D01*
X3492677Y-600512D01*
X3378738Y-547381D01*
X3326299Y-501210D01*
X3307147Y-434017D01*
X3327363Y-367135D01*
X3378739Y-322618D01*
X3387699Y-318440D01*
X3492677Y-269488D01*
X3674781Y-141977D01*
X3831977Y15219D01*
X3959488Y197323D01*
X4053440Y398804D01*
X4110978Y613537D01*
X4130353Y835000D01*
X4110978Y1056463D01*
X4053440Y1271196D01*
X3959488Y1472676D01*
X3831977Y1654781D01*
X3674781Y1811977D01*
X3492677Y1939488D01*
X3378738Y1992618D01*
X3326299Y2038790D01*
X3307147Y2105983D01*
X3327363Y2172865D01*
X3378739Y2217382D01*
X3492673Y2270510D01*
X3492675Y2270511D01*
X3492677Y2270512D01*
X3674781Y2398023D01*
X3831977Y2555219D01*
X3959488Y2737323D01*
X4053440Y2938804D01*
X4110978Y3153537D01*
X4130353Y3375000D01*
X4110978Y3596463D01*
X4053440Y3811196D01*
X3959488Y4012676D01*
X3831977Y4194781D01*
X3674781Y4351977D01*
X3492677Y4479488D01*
X3378738Y4532618D01*
X3326299Y4578790D01*
X3307147Y4645983D01*
X3327363Y4712865D01*
X3378739Y4757382D01*
X3492673Y4810510D01*
X3492675Y4810511D01*
X3492677Y4810512D01*
X3674781Y4938023D01*
X3831977Y5095219D01*
X3959488Y5277323D01*
X4053440Y5478804D01*
X4110978Y5693537D01*
X4130353Y5915000D01*
X4110978Y6136463D01*
X4053440Y6351196D01*
X3959488Y6552676D01*
X3831977Y6734781D01*
X3674781Y6891977D01*
X3492677Y7019488D01*
X3378738Y7072618D01*
X3326299Y7118790D01*
X3307147Y7185983D01*
X3327363Y7252865D01*
X3378739Y7297382D01*
X3492673Y7350510D01*
X3492675Y7350511D01*
X3492677Y7350512D01*
X3674781Y7478023D01*
X3831977Y7635219D01*
X3959488Y7817323D01*
X4053440Y8018804D01*
X4110978Y8233537D01*
X4125541Y8400000D01*
X13986496Y8400000D01*
X14006458Y8210072D01*
X14006458Y8210069D01*
X14006459Y8210068D01*
X14065470Y8028450D01*
X14065473Y8028443D01*
X14160959Y7863057D01*
X14288745Y7721135D01*
X14443246Y7608883D01*
X14617714Y7531205D01*
X14617713Y7531205D01*
X14804513Y7491500D01*
X14995487Y7491500D01*
X15182285Y7531205D01*
X15182286Y7531205D01*
X15182288Y7531206D01*
X15356752Y7608882D01*
X15511253Y7721134D01*
X15639040Y7863056D01*
X15734527Y8028444D01*
X15793542Y8210072D01*
X15813504Y8400000D01*
X15793542Y8589928D01*
X15734527Y8771556D01*
X15639040Y8936944D01*
X15511253Y9078866D01*
X15356752Y9191118D01*
X15182288Y9268794D01*
X14995487Y9308500D01*
X14804513Y9308500D01*
X14617712Y9268794D01*
X14443248Y9191118D01*
X14288747Y9078866D01*
X14160960Y8936944D01*
X14160959Y8936942D01*
X14065473Y8771556D01*
X14065470Y8771549D01*
X14008442Y8596035D01*
X14006458Y8589928D01*
X13986496Y8400000D01*
X4125541Y8400000D01*
X4130353Y8455000D01*
X4129239Y8467729D01*
X4119981Y8573553D01*
X4110978Y8676463D01*
X4053440Y8891196D01*
X3959488Y9092676D01*
X3831977Y9274781D01*
X3674781Y9431977D01*
X3492677Y9559488D01*
X3368682Y9617307D01*
X3316243Y9663479D01*
X3297091Y9730672D01*
X3317306Y9797554D01*
X3368683Y9842071D01*
X3488405Y9897898D01*
X3488411Y9897901D01*
X3553187Y9943258D01*
X3553188Y9943259D01*
X2938398Y10558049D01*
X2987499Y10565450D01*
X3108224Y10623588D01*
X3206450Y10714728D01*
X3273447Y10830772D01*
X3291906Y10911645D01*
X3906740Y10296810D01*
X3952099Y10361590D01*
X3952100Y10361592D01*
X4045419Y10561715D01*
X4045424Y10561729D01*
X4102573Y10775013D01*
X4102575Y10775023D01*
X4121821Y10994999D01*
X4121821Y10995000D01*
X4102575Y11214976D01*
X4102573Y11214986D01*
X4045424Y11428270D01*
X4045420Y11428279D01*
X3952098Y11628409D01*
X3906740Y11693188D01*
X3294319Y11080766D01*
X3293251Y11095028D01*
X3244297Y11219760D01*
X3160752Y11324522D01*
X3050040Y11400004D01*
X2940301Y11433853D01*
X3553188Y12046741D01*
X3488417Y12092094D01*
X3488407Y12092100D01*
X3288284Y12185419D01*
X3288270Y12185424D01*
X3074986Y12242573D01*
X3074976Y12242575D01*
X2855001Y12261821D01*
X2854999Y12261821D01*
X2635023Y12242575D01*
X2635013Y12242573D01*
X2421729Y12185424D01*
X2421720Y12185420D01*
X2221586Y12092096D01*
X2156811Y12046741D01*
X2156810Y12046740D01*
X2771601Y11431950D01*
X2722501Y11424550D01*
X2601776Y11366412D01*
X2503550Y11275272D01*
X2436553Y11159228D01*
X2418093Y11078353D01*
X1803258Y11693188D01*
X1803257Y11693187D01*
X1757903Y11628413D01*
X1664579Y11428279D01*
X1664575Y11428270D01*
X1607426Y11214986D01*
X1607424Y11214976D01*
X1588179Y10995000D01*
X1588179Y10994999D01*
X1607424Y10775023D01*
X1607426Y10775013D01*
X1664575Y10561729D01*
X1664580Y10561715D01*
X1757901Y10361588D01*
X1757902Y10361586D01*
X1803257Y10296811D01*
X1803258Y10296810D01*
X2415680Y10909232D01*
X2416749Y10894972D01*
X2465703Y10770240D01*
X2549248Y10665478D01*
X2659960Y10589996D01*
X2769698Y10556145D01*
X2156810Y9943258D01*
X2156811Y9943257D01*
X2221585Y9897903D01*
X2341317Y9842071D01*
X2393756Y9795899D01*
X2412908Y9728705D01*
X2392692Y9661824D01*
X2341317Y9617307D01*
X2217324Y9559488D01*
X2217323Y9559487D01*
X2217319Y9559485D01*
X2035217Y9431976D01*
X1878023Y9274782D01*
X1750514Y9092680D01*
X1750512Y9092676D01*
X1656561Y8891199D01*
X1599022Y8676464D01*
X1599021Y8676457D01*
X1579647Y8455002D01*
X1579647Y8454997D01*
X1599021Y8233542D01*
X1599022Y8233534D01*
X1656558Y8018808D01*
X1656561Y8018802D01*
X1750511Y7817323D01*
X1817864Y7721135D01*
X1877865Y7635444D01*
X1878027Y7635214D01*
X2035214Y7478027D01*
X2035217Y7478024D01*
X2035219Y7478023D01*
X2136242Y7407285D01*
X2217321Y7350513D01*
X2331262Y7297381D01*
X2383701Y7251208D01*
X2402852Y7184014D01*
X2382636Y7117133D01*
X2331261Y7072618D01*
X2217324Y7019488D01*
X2217321Y7019486D01*
X2217319Y7019485D01*
X2035217Y6891976D01*
X1878023Y6734782D01*
X1750514Y6552680D01*
X1750512Y6552676D01*
X1656561Y6351199D01*
X1599022Y6136464D01*
X1599021Y6136457D01*
X1579647Y5915002D01*
X1579647Y5914997D01*
X1599021Y5693542D01*
X1599022Y5693534D01*
X1656558Y5478808D01*
X1656561Y5478802D01*
X1750511Y5277323D01*
X1878027Y5095214D01*
X2035214Y4938027D01*
X2035217Y4938024D01*
X2035219Y4938023D01*
X2136242Y4867285D01*
X2217321Y4810513D01*
X2331262Y4757381D01*
X2383701Y4711208D01*
X2402852Y4644014D01*
X2382636Y4577133D01*
X2331261Y4532618D01*
X2217324Y4479488D01*
X2217321Y4479486D01*
X2217319Y4479485D01*
X2035217Y4351976D01*
X1878023Y4194782D01*
X1750514Y4012680D01*
X1750512Y4012676D01*
X1656561Y3811199D01*
X1599022Y3596464D01*
X1599021Y3596457D01*
X1579647Y3375002D01*
X1579647Y3374997D01*
X1599021Y3153542D01*
X1599022Y3153534D01*
X1656558Y2938808D01*
X1656561Y2938802D01*
X1750511Y2737323D01*
X1878027Y2555214D01*
X2035214Y2398027D01*
X2035217Y2398024D01*
X2035219Y2398023D01*
X2136242Y2327285D01*
X2217321Y2270513D01*
X2331262Y2217381D01*
X2383701Y2171208D01*
X2402852Y2104014D01*
X2382636Y2037133D01*
X2331261Y1992618D01*
X2217324Y1939488D01*
X2217321Y1939486D01*
X2217319Y1939485D01*
X2035217Y1811976D01*
X1878023Y1654782D01*
X1750514Y1472680D01*
X1750512Y1472676D01*
X1656561Y1271199D01*
X1599022Y1056464D01*
X1599021Y1056457D01*
X1579647Y835002D01*
X1579647Y834997D01*
X1599021Y613542D01*
X1599022Y613534D01*
X1656558Y398808D01*
X1656561Y398802D01*
X1750511Y197323D01*
X1878027Y15214D01*
X1980201Y-86959D01*
X2035219Y-141977D01*
X2217323Y-269488D01*
X2331261Y-322618D01*
X2383700Y-368790D01*
X2402852Y-435984D01*
X2382636Y-502865D01*
X2331261Y-547382D01*
X2217323Y-600512D01*
X2217319Y-600514D01*
X2035217Y-728023D01*
X1878023Y-885217D01*
X1750514Y-1067319D01*
X1750512Y-1067323D01*
X1656561Y-1268800D01*
X1599022Y-1483535D01*
X1599021Y-1483542D01*
X1579647Y-1704997D01*
X1579647Y-1705002D01*
X1599021Y-1926457D01*
X1599022Y-1926465D01*
X1656558Y-2141191D01*
X1656559Y-2141193D01*
X1656560Y-2141196D01*
X1703536Y-2241936D01*
X1750511Y-2342676D01*
X1750512Y-2342677D01*
X1878023Y-2524781D01*
X2035219Y-2681977D01*
X2217323Y-2809488D01*
X2331261Y-2862618D01*
X2383700Y-2908790D01*
X2402852Y-2975984D01*
X2382636Y-3042865D01*
X2331261Y-3087382D01*
X2217323Y-3140512D01*
X2217319Y-3140514D01*
X2035217Y-3268023D01*
X1878023Y-3425217D01*
X1750514Y-3607319D01*
X1750512Y-3607323D01*
X1656561Y-3808800D01*
X1599022Y-4023535D01*
X1599021Y-4023542D01*
X1579647Y-4244997D01*
X1579647Y-4245002D01*
X-1628584Y-4245002D01*
X-1624647Y-4200002D01*
X-1624647Y-4199997D01*
X-1644021Y-3978542D01*
X-1644022Y-3978535D01*
X-1701561Y-3763800D01*
X-1795512Y-3562323D01*
X-1795514Y-3562319D01*
X-1923021Y-3380220D01*
X-2080218Y-3223024D01*
X-2262323Y-3095511D01*
X-2376261Y-3042382D01*
X-2428700Y-2996210D01*
X-2447852Y-2929016D01*
X-2427636Y-2862135D01*
X-2376261Y-2817618D01*
X-2262323Y-2764488D01*
X-2080219Y-2636977D01*
X-1923023Y-2479781D01*
X-1795512Y-2297677D01*
X-1795511Y-2297676D01*
X-1739105Y-2176711D01*
X-1701560Y-2096196D01*
X-1701559Y-2096193D01*
X-1701558Y-2096191D01*
X-1644022Y-1881465D01*
X-1644021Y-1881457D01*
X-1624647Y-1660002D01*
X-1624647Y-1659997D01*
X-1644021Y-1438542D01*
X-1644022Y-1438535D01*
X-1701561Y-1223800D01*
X-1795512Y-1022323D01*
X-1795514Y-1022319D01*
X-1923021Y-840220D01*
X-2080218Y-683024D01*
X-2262323Y-555511D01*
X-2376261Y-502382D01*
X-2428700Y-456210D01*
X-2447852Y-389016D01*
X-2427636Y-322135D01*
X-2376261Y-277618D01*
X-2262323Y-224488D01*
X-2080219Y-96977D01*
X-2070201Y-86959D01*
X-1923027Y60214D01*
X-1795511Y242323D01*
X-1701561Y443802D01*
X-1701558Y443808D01*
X-1644022Y658534D01*
X-1644021Y658542D01*
X-1624647Y879997D01*
X-1624647Y880002D01*
X-1644021Y1101457D01*
X-1644022Y1101464D01*
X-1701561Y1316199D01*
X-1795512Y1517676D01*
X-1795514Y1517680D01*
X-1923021Y1699779D01*
X-1923024Y1699782D01*
X-2080219Y1856977D01*
X-2262323Y1984488D01*
X-2376261Y2037618D01*
X-2428700Y2083790D01*
X-2447852Y2150984D01*
X-2427636Y2217865D01*
X-2376261Y2262382D01*
X-2262323Y2315511D01*
X-2140832Y2400581D01*
X-2080219Y2443023D01*
X-2080217Y2443024D01*
X-2080214Y2443027D01*
X-1923027Y2600214D01*
X-1795511Y2782323D01*
X-1701561Y2983802D01*
X-1701558Y2983808D01*
X-1644022Y3198534D01*
X-1644021Y3198542D01*
X-1624647Y3419997D01*
X-1624647Y3420002D01*
X-1644021Y3641457D01*
X-1644022Y3641464D01*
X-1701561Y3856199D01*
X-1795512Y4057676D01*
X-1795514Y4057680D01*
X-1923021Y4239779D01*
X-1923024Y4239782D01*
X-2080219Y4396977D01*
X-2262323Y4524488D01*
X-2376261Y4577618D01*
X-2428700Y4623790D01*
X-2447852Y4690984D01*
X-2427636Y4757865D01*
X-2376261Y4802382D01*
X-2262323Y4855511D01*
X-2140832Y4940581D01*
X-2080219Y4983023D01*
X-2080217Y4983024D01*
X-2080214Y4983027D01*
X-1923027Y5140214D01*
X-1795511Y5322323D01*
X-1701561Y5523802D01*
X-1701558Y5523808D01*
X-1644022Y5738534D01*
X-1644021Y5738542D01*
X-1624647Y5959997D01*
X-1624647Y5960002D01*
X-1644021Y6181457D01*
X-1644022Y6181464D01*
X-1701561Y6396199D01*
X-1795512Y6597676D01*
X-1795514Y6597680D01*
X-1923021Y6779779D01*
X-1984877Y6841635D01*
X-2080219Y6936977D01*
X-2262323Y7064488D01*
X-2376261Y7117618D01*
X-2428700Y7163790D01*
X-2447852Y7230984D01*
X-2427636Y7297865D01*
X-2376261Y7342382D01*
X-2262323Y7395511D01*
X-2140832Y7480581D01*
X-2080219Y7523023D01*
X-2080217Y7523024D01*
X-2080214Y7523027D01*
X-1923027Y7680214D01*
X-1912042Y7695901D01*
X-1827021Y7817323D01*
X-1795511Y7862323D01*
X-1701561Y8063802D01*
X-1701558Y8063808D01*
X-1644022Y8278534D01*
X-1644021Y8278542D01*
X-1624647Y8499997D01*
X-1624647Y8500002D01*
X-1644021Y8721457D01*
X-1644022Y8721464D01*
X-1701561Y8936199D01*
X-1795512Y9137676D01*
X-1795514Y9137680D01*
X-1923021Y9319779D01*
X-1923024Y9319782D01*
X-2080219Y9476977D01*
X-2262323Y9604488D01*
X-2386317Y9662307D01*
X-2438756Y9708479D01*
X-2457908Y9775673D01*
X-2437692Y9842554D01*
X-2386317Y9887071D01*
X-2266585Y9942903D01*
X-2201811Y9988257D01*
X-2201810Y9988258D01*
X-2816602Y10603049D01*
X-2767501Y10610450D01*
X-2646776Y10668588D01*
X-2548550Y10759728D01*
X-2481553Y10875772D01*
X-2463093Y10956645D01*
X-1848258Y10341810D01*
X-1848257Y10341811D01*
X-1802902Y10406586D01*
X-1802901Y10406588D01*
X-1709580Y10606715D01*
X-1709575Y10606729D01*
X-1652426Y10820013D01*
X-1652424Y10820023D01*
X-1633179Y11039999D01*
X-1633179Y11040000D01*
X-1652424Y11259976D01*
X-1652426Y11259986D01*
X-1709575Y11473270D01*
X-1709579Y11473279D01*
X-1802903Y11673413D01*
X-1848257Y11738187D01*
X-1848258Y11738188D01*
X-2460680Y11125766D01*
X-2461749Y11140028D01*
X-2510703Y11264760D01*
X-2594248Y11369522D01*
X-2704960Y11445004D01*
X-2814698Y11478854D01*
X-2201810Y12091740D01*
X-2266590Y12137099D01*
X-2266592Y12137100D01*
X-2466715Y12230419D01*
X-2466729Y12230424D01*
X-2680013Y12287573D01*
X-2680023Y12287575D01*
X-2899999Y12306821D01*
X-2900001Y12306821D01*
X-3119976Y12287575D01*
X-3119986Y12287573D01*
X-3333270Y12230424D01*
X-3333279Y12230420D01*
X-3533409Y12137098D01*
X-3598188Y12091740D01*
X-2983398Y11476950D01*
X-3032499Y11469550D01*
X-3153224Y11411412D01*
X-3251450Y11320272D01*
X-3318447Y11204228D01*
X-3336906Y11123354D01*
X-3951740Y11738188D01*
X-3997098Y11673409D01*
X-4090420Y11473279D01*
X-4090424Y11473270D01*
X-4147573Y11259986D01*
X-4147575Y11259976D01*
X-4166821Y11040000D01*
X-4166821Y11039999D01*
X-4147575Y10820023D01*
X-4147573Y10820013D01*
X-4090424Y10606729D01*
X-4090419Y10606715D01*
X-3997100Y10406592D01*
X-3997099Y10406590D01*
X-3951740Y10341810D01*
X-3339319Y10954232D01*
X-3338251Y10939972D01*
X-3289297Y10815240D01*
X-3205752Y10710478D01*
X-3095040Y10634996D01*
X-2985301Y10601146D01*
X-3598188Y9988259D01*
X-3598187Y9988258D01*
X-3533411Y9942901D01*
X-3533405Y9942898D01*
X-3413683Y9887071D01*
X-3361243Y9840899D01*
X-3342091Y9773705D01*
X-3362307Y9706824D01*
X-3413680Y9662308D01*
X-3537676Y9604488D01*
X-3719781Y9476977D01*
X-3876977Y9319781D01*
X-4004488Y9137676D01*
X-4098440Y8936196D01*
X-4155978Y8721463D01*
X-4175353Y8500000D01*
X-4155978Y8278537D01*
X-4098440Y8063804D01*
X-4004488Y7862323D01*
X-3876977Y7680219D01*
X-3719781Y7523023D01*
X-3574097Y7421014D01*
X-3537676Y7395511D01*
X-3423738Y7342381D01*
X-3371299Y7296208D01*
X-3352147Y7229015D01*
X-3372363Y7162134D01*
X-3423736Y7117618D01*
X-3537676Y7064488D01*
X-3719781Y6936977D01*
X-3876977Y6779781D01*
X-4004488Y6597676D01*
X-4098440Y6396196D01*
X-4155978Y6181463D01*
X-4175353Y5960000D01*
X-4155978Y5738537D01*
X-4098440Y5523804D01*
X-4004488Y5322323D01*
X-3876977Y5140219D01*
X-3719781Y4983023D01*
X-3574097Y4881014D01*
X-3537676Y4855511D01*
X-3423738Y4802381D01*
X-3371299Y4756208D01*
X-3352147Y4689015D01*
X-3372363Y4622134D01*
X-3423736Y4577618D01*
X-3537676Y4524488D01*
X-3719781Y4396977D01*
X-3876977Y4239781D01*
X-4004488Y4057676D01*
X-4098440Y3856196D01*
X-4155978Y3641463D01*
X-4175353Y3420000D01*
X-4155978Y3198537D01*
X-4098440Y2983804D01*
X-4004488Y2782323D01*
X-3876977Y2600219D01*
X-3719781Y2443023D01*
X-3574097Y2341014D01*
X-3537676Y2315511D01*
X-3423738Y2262381D01*
X-3371299Y2216208D01*
X-3352147Y2149015D01*
X-3372363Y2082134D01*
X-3423736Y2037618D01*
X-3537676Y1984488D01*
X-3719781Y1856977D01*
X-3876977Y1699781D01*
X-4004488Y1517676D01*
X-4098440Y1316196D01*
X-4155978Y1101463D01*
X-4175353Y880000D01*
X-4155978Y658537D01*
X-4098440Y443804D01*
X-4004488Y242323D01*
X-3876977Y60219D01*
X-3719781Y-96977D01*
X-3537677Y-224488D01*
X-3423739Y-277618D01*
X-3371299Y-323790D01*
X-3352147Y-390983D01*
X-3372363Y-457865D01*
X-3423737Y-502381D01*
X-3432698Y-506560D01*
X-3537676Y-555512D01*
X-3537680Y-555514D01*
X-3719782Y-683023D01*
X-3876976Y-840217D01*
X-4004485Y-1022319D01*
X-4004486Y-1022321D01*
X-4004488Y-1022324D01*
X-4098440Y-1223804D01*
X-4155978Y-1438537D01*
X-4175353Y-1660000D01*
X-4155978Y-1881463D01*
X-4098440Y-2096196D01*
X-4004488Y-2297677D01*
X-3876977Y-2479781D01*
X-3719781Y-2636977D01*
X-3537677Y-2764488D01*
X-3423739Y-2817618D01*
X-3371299Y-2863790D01*
X-3352147Y-2930983D01*
X-3372363Y-2997865D01*
X-3423737Y-3042381D01*
X-3432698Y-3046560D01*
X-3537676Y-3095512D01*
X-3537680Y-3095514D01*
X-3719782Y-3223023D01*
X-3876976Y-3380217D01*
X-4004485Y-3562319D01*
X-4004486Y-3562321D01*
X-4004488Y-3562324D01*
X-4098440Y-3763804D01*
X-4155978Y-3978537D01*
X-4175353Y-4200000D01*
X-4155978Y-4421463D01*
X-4098440Y-4636196D01*
X-4004488Y-4837677D01*
X-3876977Y-5019781D01*
X-3719786Y-5176972D01*
X-3715953Y-5180805D01*
X-3717294Y-5182146D01*
X-3683225Y-5233318D01*
X-3682094Y-5303178D01*
X-3718912Y-5362560D01*
X-3781989Y-5392610D01*
X-3788364Y-5393463D01*
X-3847402Y-5399811D01*
X-3847404Y-5399811D01*
X-3981466Y-5449815D01*
X-3984404Y-5450911D01*
X-4101461Y-5538539D01*
X-4189089Y-5655596D01*
X-4190634Y-5659739D01*
X-4234294Y-5776795D01*
X-4240189Y-5792599D01*
X-4243357Y-5822070D01*
X-4246699Y-5853145D01*
X-4246700Y-5853162D01*
X-4246700Y-7626837D01*
X-24501842Y-7626837D01*
X-24496011Y-7611204D01*
X-24496011Y-7611202D01*
X-24489500Y-7550654D01*
X-24489500Y-5929345D01*
X-24496011Y-5868797D01*
X-24496011Y-5868795D01*
X-24547111Y-5731795D01*
X-24634739Y-5614739D01*
X-24751795Y-5527111D01*
X-24888796Y-5476011D01*
X-24949345Y-5469500D01*
X-24949362Y-5469500D01*
X-24964708Y-5469500D01*
X-25031747Y-5449815D01*
X-25077502Y-5397011D01*
X-25087446Y-5327853D01*
X-25058421Y-5264297D01*
X-25035837Y-5243930D01*
X-24940219Y-5176977D01*
X-24783023Y-5019781D01*
X-24655512Y-4837677D01*
X-24655511Y-4837676D01*
X-24608536Y-4736936D01*
X-24561560Y-4636196D01*
X-24561559Y-4636193D01*
X-24561558Y-4636191D01*
X-24504022Y-4421465D01*
X-24504021Y-4421457D01*
X-24484647Y-4200002D01*
X-24484647Y-4199997D01*
X-24504021Y-3978542D01*
X-24504022Y-3978535D01*
X-24561561Y-3763800D01*
X-24655512Y-3562323D01*
X-24655514Y-3562319D01*
X-24783021Y-3380220D01*
X-24940218Y-3223024D01*
X-25122323Y-3095511D01*
X-25236261Y-3042382D01*
X-25288700Y-2996210D01*
X-25307852Y-2929016D01*
X-25287636Y-2862135D01*
X-25236261Y-2817618D01*
X-25122323Y-2764488D01*
X-24940219Y-2636977D01*
X-24783023Y-2479781D01*
X-24655512Y-2297677D01*
X-24655511Y-2297676D01*
X-24599105Y-2176711D01*
X-24561560Y-2096196D01*
X-24561559Y-2096193D01*
X-24561558Y-2096191D01*
X-24504022Y-1881465D01*
X-24504021Y-1881457D01*
X-24484647Y-1660002D01*
X-24484647Y-1659997D01*
X-24504021Y-1438542D01*
X-24504022Y-1438535D01*
X-24561561Y-1223800D01*
X-24655512Y-1022323D01*
X-24655514Y-1022319D01*
X-24783021Y-840220D01*
X-24940218Y-683024D01*
X-25122323Y-555511D01*
X-25236261Y-502382D01*
X-25288700Y-456210D01*
X-25307852Y-389016D01*
X-25287636Y-322135D01*
X-25236261Y-277618D01*
X-25122323Y-224488D01*
X-24940219Y-96977D01*
X-24930201Y-86959D01*
X-24783027Y60214D01*
X-24655511Y242323D01*
X-24561561Y443802D01*
X-24561558Y443808D01*
X-24504022Y658534D01*
X-24504021Y658542D01*
X-24484647Y879997D01*
X-24484647Y880002D01*
X-24504021Y1101457D01*
X-24504022Y1101464D01*
X-24561561Y1316199D01*
X-24655512Y1517676D01*
X-24655514Y1517680D01*
X-24783021Y1699779D01*
X-24783024Y1699782D01*
X-24940219Y1856977D01*
X-25122323Y1984488D01*
X-25236261Y2037618D01*
X-25288700Y2083790D01*
X-25307852Y2150984D01*
X-25287636Y2217865D01*
X-25236261Y2262382D01*
X-25122323Y2315511D01*
X-25000832Y2400581D01*
X-24940219Y2443023D01*
X-24940217Y2443024D01*
X-24940214Y2443027D01*
X-24783027Y2600214D01*
X-24655511Y2782323D01*
X-24561561Y2983802D01*
X-24561558Y2983808D01*
X-24504022Y3198534D01*
X-24504021Y3198542D01*
X-24484647Y3419997D01*
X-24484647Y3420002D01*
X-24504021Y3641457D01*
X-24504022Y3641464D01*
X-24561561Y3856199D01*
X-24655512Y4057676D01*
X-24655514Y4057680D01*
X-24783021Y4239779D01*
X-24783024Y4239782D01*
X-24940219Y4396977D01*
X-25122323Y4524488D01*
X-25236261Y4577618D01*
X-25288700Y4623790D01*
X-25307852Y4690984D01*
X-25287636Y4757865D01*
X-25236261Y4802382D01*
X-25122323Y4855511D01*
X-25000832Y4940581D01*
X-24940219Y4983023D01*
X-24940217Y4983024D01*
X-24940214Y4983027D01*
X-24783027Y5140214D01*
X-24655511Y5322323D01*
X-24561561Y5523802D01*
X-24561558Y5523808D01*
X-24504022Y5738534D01*
X-24504021Y5738542D01*
X-24484647Y5959997D01*
X-24484647Y5960002D01*
X-24504021Y6181457D01*
X-24504022Y6181464D01*
X-24561561Y6396199D01*
X-24655512Y6597676D01*
X-24655514Y6597680D01*
X-24783021Y6779779D01*
X-24844877Y6841635D01*
X-24940219Y6936977D01*
X-25122323Y7064488D01*
X-25236261Y7117618D01*
X-25288700Y7163790D01*
X-25307852Y7230984D01*
X-25287636Y7297865D01*
X-25236261Y7342382D01*
X-25122323Y7395511D01*
X-25000832Y7480581D01*
X-24940219Y7523023D01*
X-24940217Y7523024D01*
X-24940214Y7523027D01*
X-24783027Y7680214D01*
X-24772042Y7695901D01*
X-24687021Y7817323D01*
X-24655511Y7862323D01*
X-24561561Y8063802D01*
X-24561558Y8063808D01*
X-24504022Y8278534D01*
X-24504021Y8278542D01*
X-24484647Y8499997D01*
X-24484647Y8500002D01*
X-24504021Y8721457D01*
X-24504022Y8721464D01*
X-24561561Y8936199D01*
X-24655512Y9137676D01*
X-24655514Y9137680D01*
X-24783021Y9319779D01*
X-24783024Y9319782D01*
X-24940219Y9476977D01*
X-25122323Y9604488D01*
X-25246317Y9662307D01*
X-25298756Y9708479D01*
X-25317908Y9775673D01*
X-25297692Y9842554D01*
X-25246317Y9887071D01*
X-25126585Y9942903D01*
X-25061811Y9988257D01*
X-25061810Y9988258D01*
X-25676602Y10603049D01*
X-25627501Y10610450D01*
X-25506776Y10668588D01*
X-25408550Y10759728D01*
X-25341553Y10875772D01*
X-25323093Y10956645D01*
X-24708258Y10341810D01*
X-24708257Y10341811D01*
X-24662902Y10406586D01*
X-24662901Y10406588D01*
X-24569580Y10606715D01*
X-24569575Y10606729D01*
X-24512426Y10820013D01*
X-24512424Y10820023D01*
X-24493179Y11039999D01*
X-24493179Y11040000D01*
X-24512424Y11259976D01*
X-24512426Y11259986D01*
X-24569575Y11473270D01*
X-24569579Y11473279D01*
X-24662903Y11673413D01*
X-24708257Y11738187D01*
X-24708258Y11738188D01*
X-25320680Y11125766D01*
X-25321749Y11140028D01*
X-25370703Y11264760D01*
X-25454248Y11369522D01*
X-25564960Y11445004D01*
X-25674698Y11478854D01*
X-25061810Y12091740D01*
X-25126590Y12137099D01*
X-25126592Y12137100D01*
X-25326715Y12230419D01*
X-25326729Y12230424D01*
X-25540013Y12287573D01*
X-25540023Y12287575D01*
X-25759999Y12306821D01*
X-25760001Y12306821D01*
X-25979976Y12287575D01*
X-25979986Y12287573D01*
X-26193270Y12230424D01*
X-26193279Y12230420D01*
X-26393409Y12137098D01*
X-26458188Y12091740D01*
X-25843398Y11476950D01*
X-25892499Y11469550D01*
X-26013224Y11411412D01*
X-26111450Y11320272D01*
X-26178447Y11204228D01*
X-26196906Y11123353D01*
X-26811740Y11738188D01*
X-26857098Y11673409D01*
X-26950420Y11473279D01*
X-26950424Y11473270D01*
X-27007573Y11259986D01*
X-27007575Y11259976D01*
X-27026821Y11040000D01*
X-27026821Y11039999D01*
X-27007575Y10820023D01*
X-27007573Y10820013D01*
X-26950424Y10606729D01*
X-26950419Y10606715D01*
X-26857100Y10406592D01*
X-26857099Y10406590D01*
X-26811740Y10341810D01*
X-26199319Y10954232D01*
X-26198251Y10939972D01*
X-26149297Y10815240D01*
X-26065752Y10710478D01*
X-25955040Y10634996D01*
X-25845301Y10601146D01*
X-26458188Y9988259D01*
X-26458187Y9988258D01*
X-26393411Y9942901D01*
X-26393405Y9942898D01*
X-26273683Y9887071D01*
X-26221243Y9840899D01*
X-26202091Y9773705D01*
X-26222307Y9706824D01*
X-26273680Y9662308D01*
X-26397676Y9604488D01*
X-26579781Y9476977D01*
X-26736977Y9319781D01*
X-26864488Y9137676D01*
X-26958440Y8936196D01*
X-27015978Y8721463D01*
X-27035353Y8500000D01*
X-27015978Y8278537D01*
X-26958440Y8063804D01*
X-26864488Y7862323D01*
X-26736977Y7680219D01*
X-26579781Y7523023D01*
X-26434097Y7421014D01*
X-26397676Y7395511D01*
X-26283738Y7342381D01*
X-26231299Y7296208D01*
X-26212147Y7229015D01*
X-26232363Y7162134D01*
X-26283736Y7117618D01*
X-26397676Y7064488D01*
X-26579781Y6936977D01*
X-26736977Y6779781D01*
X-26864488Y6597676D01*
X-26958440Y6396196D01*
X-27015978Y6181463D01*
X-27035353Y5960000D01*
X-27015978Y5738537D01*
X-26958440Y5523804D01*
X-26864488Y5322323D01*
X-26736977Y5140219D01*
X-26579781Y4983023D01*
X-26434097Y4881014D01*
X-26397676Y4855511D01*
X-26283738Y4802381D01*
X-26231299Y4756208D01*
X-26212147Y4689015D01*
X-26232363Y4622134D01*
X-26283736Y4577618D01*
X-26397676Y4524488D01*
X-26579781Y4396977D01*
X-26736977Y4239781D01*
X-26864488Y4057676D01*
X-26958440Y3856196D01*
X-27015978Y3641463D01*
X-27035353Y3420000D01*
X-27015978Y3198537D01*
X-26958440Y2983804D01*
X-26864488Y2782323D01*
X-26736977Y2600219D01*
X-26579781Y2443023D01*
X-26434097Y2341014D01*
X-26397676Y2315511D01*
X-26283738Y2262381D01*
X-26231299Y2216208D01*
X-26212147Y2149015D01*
X-26232363Y2082134D01*
X-26283736Y2037618D01*
X-26397676Y1984488D01*
X-26579781Y1856977D01*
X-26736977Y1699781D01*
X-26864488Y1517676D01*
X-26958440Y1316196D01*
X-27015978Y1101463D01*
X-27035353Y880000D01*
X-27015978Y658537D01*
X-26958440Y443804D01*
X-26864488Y242323D01*
X-26736977Y60219D01*
X-26579781Y-96977D01*
X-26397677Y-224488D01*
X-26283739Y-277618D01*
X-26231299Y-323790D01*
X-26212147Y-390983D01*
X-26232363Y-457865D01*
X-26283737Y-502381D01*
X-26292698Y-506560D01*
X-26397676Y-555512D01*
X-26397680Y-555514D01*
X-26579782Y-683023D01*
X-26736976Y-840217D01*
X-26864485Y-1022319D01*
X-26864486Y-1022321D01*
X-26864488Y-1022324D01*
X-26958440Y-1223804D01*
X-27015978Y-1438537D01*
X-27035353Y-1660000D01*
X-27015978Y-1881463D01*
X-26958440Y-2096196D01*
X-26864488Y-2297677D01*
X-26736977Y-2479781D01*
X-26579781Y-2636977D01*
X-26397677Y-2764488D01*
X-26283739Y-2817618D01*
X-26231299Y-2863790D01*
X-26212147Y-2930983D01*
X-26232363Y-2997865D01*
X-26283737Y-3042381D01*
X-26292698Y-3046560D01*
X-26397676Y-3095512D01*
X-26397680Y-3095514D01*
X-26579782Y-3223023D01*
X-26736976Y-3380217D01*
X-26864485Y-3562319D01*
X-26864486Y-3562321D01*
X-26864488Y-3562324D01*
X-26958440Y-3763804D01*
X-27015978Y-3978537D01*
X-27035353Y-4200000D01*
X-49930500Y-4200000D01*
X-49930500Y-1940000D01*
X-38063165Y-1940000D01*
X-38044535Y-2176711D01*
X-37989105Y-2407594D01*
X-37989104Y-2407596D01*
X-37989104Y-2407597D01*
X-37940564Y-2524785D01*
X-37898240Y-2626963D01*
X-37774176Y-2829416D01*
X-37619969Y-3009969D01*
X-37439416Y-3164176D01*
X-37236963Y-3288240D01*
X-37236960Y-3288241D01*
X-37236959Y-3288242D01*
X-37090717Y-3348816D01*
X-37017594Y-3379105D01*
X-36786711Y-3434535D01*
X-36550000Y-3453165D01*
X-36313289Y-3434535D01*
X-36082406Y-3379105D01*
X-36082404Y-3379104D01*
X-36082402Y-3379104D01*
X-35863040Y-3288242D01*
X-35863037Y-3288240D01*
X-35660589Y-3164179D01*
X-35660586Y-3164178D01*
X-35619797Y-3129340D01*
X-35480031Y-3009969D01*
X-35354181Y-2862618D01*
X-35325821Y-2829413D01*
X-35325820Y-2829410D01*
X-35201759Y-2626962D01*
X-35201757Y-2626959D01*
X-35110895Y-2407597D01*
X-35110895Y-2407595D01*
X-35055465Y-2176714D01*
X-35036835Y-1940000D01*
X-35055465Y-1703285D01*
X-35110895Y-1472404D01*
X-35110895Y-1472402D01*
X-35201757Y-1253040D01*
X-35201759Y-1253037D01*
X-35325820Y-1050589D01*
X-35325821Y-1050586D01*
X-35480031Y-870031D01*
X-35514939Y-840217D01*
X-35603838Y-764289D01*
X-35642031Y-705783D01*
X-35642529Y-635915D01*
X-35605176Y-576869D01*
X-35603838Y-575710D01*
X-35480031Y-469969D01*
X-35354181Y-322618D01*
X-35325821Y-289413D01*
X-35325820Y-289410D01*
X-35201759Y-86962D01*
X-35201757Y-86959D01*
X-35110895Y132402D01*
X-35110895Y132404D01*
X-35055465Y363285D01*
X-35036835Y600000D01*
X-35055465Y836714D01*
X-35110895Y1067595D01*
X-35110895Y1067597D01*
X-35201757Y1286959D01*
X-35201759Y1286962D01*
X-35325820Y1489410D01*
X-35325821Y1489413D01*
X-35467058Y1654779D01*
X-35480031Y1669969D01*
X-35646298Y1811975D01*
X-35660586Y1824178D01*
X-35660589Y1824179D01*
X-35714109Y1856976D01*
X-35863037Y1948240D01*
X-35863040Y1948242D01*
X-36082403Y2039104D01*
X-36082404Y2039104D01*
X-36082406Y2039105D01*
X-36313289Y2094535D01*
X-36550000Y2113165D01*
X-36786711Y2094535D01*
X-37017594Y2039105D01*
X-37017596Y2039104D01*
X-37017597Y2039104D01*
X-37236959Y1948242D01*
X-37236960Y1948241D01*
X-37236963Y1948240D01*
X-37439416Y1824176D01*
X-37619969Y1669969D01*
X-37774176Y1489416D01*
X-37898240Y1286963D01*
X-37989105Y1067594D01*
X-38044535Y836711D01*
X-38063165Y600000D01*
X-38044535Y363289D01*
X-37989105Y132406D01*
X-37989104Y132404D01*
X-37989104Y132402D01*
X-37940565Y15219D01*
X-37898240Y-86963D01*
X-37774176Y-289416D01*
X-37619969Y-469969D01*
X-37496160Y-575711D01*
X-37457968Y-634216D01*
X-37457469Y-704084D01*
X-37494823Y-763131D01*
X-37496057Y-764200D01*
X-37619969Y-870031D01*
X-37774178Y-1050586D01*
X-37774179Y-1050589D01*
X-37898240Y-1253037D01*
X-37898242Y-1253040D01*
X-37989104Y-1472402D01*
X-37989104Y-1472403D01*
X-37989105Y-1472406D01*
X-38044535Y-1703289D01*
X-38063165Y-1940000D01*
X-49930500Y-1940000D01*
X-49930500Y8219994D01*
X-38055141Y8219994D01*
X-38034614Y7972270D01*
X-38034612Y7972261D01*
X-37973587Y7731282D01*
X-37873731Y7503630D01*
X-37773434Y7350116D01*
X-37112772Y8010778D01*
X-37074099Y7917412D01*
X-36977925Y7792075D01*
X-36852588Y7695901D01*
X-36759220Y7657227D01*
X-37420057Y6996390D01*
X-37420056Y6996389D01*
X-37373229Y6959943D01*
X-37154614Y6841635D01*
X-37154603Y6841630D01*
X-36919493Y6760916D01*
X-36674293Y6720000D01*
X-36425707Y6720000D01*
X-36180506Y6760916D01*
X-35945396Y6841630D01*
X-35945390Y6841632D01*
X-35726761Y6959949D01*
X-35679942Y6996388D01*
X-35679942Y6996390D01*
X-36340779Y7657227D01*
X-36247412Y7695901D01*
X-36122075Y7792075D01*
X-36025901Y7917411D01*
X-35987227Y8010779D01*
X-35326564Y7350116D01*
X-35226267Y7503632D01*
X-35126412Y7731282D01*
X-35065387Y7972261D01*
X-35065385Y7972270D01*
X-35044859Y8219994D01*
X-35044859Y8220005D01*
X-35065385Y8467729D01*
X-35065387Y8467738D01*
X-35126412Y8708717D01*
X-35226266Y8936364D01*
X-35326564Y9089882D01*
X-35987226Y8429219D01*
X-36025901Y8522588D01*
X-36122075Y8647925D01*
X-36247412Y8744099D01*
X-36340779Y8782772D01*
X-35679942Y9443609D01*
X-35726768Y9480055D01*
X-35726770Y9480056D01*
X-35945385Y9598364D01*
X-35945396Y9598369D01*
X-36180506Y9679083D01*
X-36425707Y9720000D01*
X-36674293Y9720000D01*
X-36919493Y9679083D01*
X-37154603Y9598369D01*
X-37154614Y9598364D01*
X-37373228Y9480057D01*
X-37373231Y9480055D01*
X-37420056Y9443609D01*
X-36759220Y8782773D01*
X-36852588Y8744099D01*
X-36977925Y8647925D01*
X-37074099Y8522589D01*
X-37112773Y8429220D01*
X-37773434Y9089882D01*
X-37873731Y8936369D01*
X-37973587Y8708717D01*
X-38034612Y8467738D01*
X-38034614Y8467729D01*
X-38055141Y8220005D01*
X-38055141Y8219994D01*
X-49930500Y8219994D01*
X-49930500Y13300000D01*
X-38063165Y13300000D01*
X-38044535Y13063289D01*
X-37989105Y12832406D01*
X-37989104Y12832404D01*
X-37989104Y12832402D01*
X-37898242Y12613040D01*
X-37898240Y12613037D01*
X-37774179Y12410589D01*
X-37774178Y12410586D01*
X-37774176Y12410584D01*
X-37619969Y12230031D01*
X-37500596Y12128076D01*
X-37439413Y12075821D01*
X-37439410Y12075820D01*
X-37236962Y11951759D01*
X-37236959Y11951757D01*
X-37017596Y11860895D01*
X-36786714Y11805465D01*
X-36550000Y11786835D01*
X-36313285Y11805465D01*
X-36082404Y11860895D01*
X-36082402Y11860895D01*
X-35863040Y11951757D01*
X-35863037Y11951759D01*
X-35660589Y12075820D01*
X-35660586Y12075821D01*
X-35480031Y12230031D01*
X-35325821Y12410586D01*
X-35325820Y12410589D01*
X-35201759Y12613037D01*
X-35201757Y12613040D01*
X-35110895Y12832402D01*
X-35110895Y12832404D01*
X-35055465Y13063285D01*
X-35036835Y13300000D01*
X-35055465Y13536714D01*
X-35110895Y13767595D01*
X-35110895Y13767597D01*
X-35201757Y13986959D01*
X-35201759Y13986962D01*
X-35325820Y14189410D01*
X-35325821Y14189413D01*
X-35438323Y14321135D01*
X-35480031Y14369969D01*
X-35660584Y14524176D01*
X-35660586Y14524178D01*
X-35660589Y14524179D01*
X-35863037Y14648240D01*
X-35863040Y14648242D01*
X-36082403Y14739104D01*
X-36082404Y14739104D01*
X-36082406Y14739105D01*
X-36313289Y14794535D01*
X-36550000Y14813165D01*
X-36786711Y14794535D01*
X-37017594Y14739105D01*
X-37017596Y14739104D01*
X-37017597Y14739104D01*
X-37236959Y14648242D01*
X-37236960Y14648241D01*
X-37236963Y14648240D01*
X-37439416Y14524176D01*
X-37619969Y14369969D01*
X-37774176Y14189416D01*
X-37898240Y13986963D01*
X-37989105Y13767594D01*
X-38044535Y13536711D01*
X-38063165Y13300000D01*
X-49930500Y13300000D01*
X-49930500Y17400000D01*
X-25213504Y17400000D01*
X-25193542Y17210072D01*
X-25134527Y17028444D01*
X-25039040Y16863056D01*
X-24911253Y16721134D01*
X-24756752Y16608882D01*
X-24582288Y16531206D01*
X-24582286Y16531205D01*
X-24395487Y16491500D01*
X-24204513Y16491500D01*
X-24017714Y16531205D01*
X-23863200Y16599999D01*
X-23863198Y16600000D01*
X-6813504Y16600000D01*
X-6793542Y16410072D01*
X-6734527Y16228444D01*
X-6639040Y16063056D01*
X-6511253Y15921134D01*
X-6474443Y15894390D01*
X-6370694Y15819011D01*
X-6356752Y15808882D01*
X-6206983Y15742201D01*
X-6182286Y15731205D01*
X-6090343Y15711662D01*
X-6028862Y15678469D01*
X-5995085Y15617306D01*
X-5994835Y15616155D01*
X-5993542Y15610079D01*
X-5993542Y15610072D01*
X-5934527Y15428444D01*
X-5839040Y15263056D01*
X-5773198Y15189931D01*
X-5711254Y15121135D01*
X-5570694Y15019011D01*
X-5556752Y15008882D01*
X-5406983Y14942201D01*
X-5382286Y14931205D01*
X-5290343Y14911662D01*
X-5228862Y14878469D01*
X-5195085Y14817306D01*
X-5194835Y14816155D01*
X-5193542Y14810079D01*
X-5193542Y14810072D01*
X-5134527Y14628444D01*
X-5039040Y14463056D01*
X-4911253Y14321134D01*
X-4756752Y14208882D01*
X-4582288Y14131206D01*
X-4582286Y14131205D01*
X-4395487Y14091500D01*
X-4204513Y14091500D01*
X-4017714Y14131205D01*
X-3843246Y14208883D01*
X-3688745Y14321135D01*
X-3560959Y14463057D01*
X-3465473Y14628443D01*
X-3465470Y14628450D01*
X-3406459Y14810068D01*
X-3406458Y14810069D01*
X-3406458Y14810072D01*
X-3386496Y14999999D01*
X13286296Y14999999D01*
X13307034Y14829198D01*
X13368045Y14668326D01*
X13465786Y14526725D01*
X13465789Y14526722D01*
X13594567Y14412634D01*
X13746920Y14332673D01*
X13913972Y14291500D01*
X14086028Y14291500D01*
X14253079Y14332673D01*
X14405432Y14412634D01*
X14534210Y14526722D01*
X14534213Y14526725D01*
X14534215Y14526727D01*
X14631954Y14668325D01*
X14662459Y14748762D01*
X14692965Y14829198D01*
X14713704Y14999999D01*
X14713704Y15000000D01*
X14692965Y15170801D01*
X14677100Y15212634D01*
X14631954Y15331675D01*
X14534215Y15473273D01*
X14405430Y15587367D01*
X14253083Y15667325D01*
X14086028Y15708500D01*
X13913972Y15708500D01*
X13746920Y15667326D01*
X13746919Y15667325D01*
X13746917Y15667325D01*
X13594570Y15587367D01*
X13594568Y15587365D01*
X13594567Y15587365D01*
X13465789Y15473277D01*
X13465786Y15473274D01*
X13465785Y15473273D01*
X13395570Y15371549D01*
X13368045Y15331673D01*
X13307034Y15170801D01*
X13286296Y15000000D01*
X13286296Y14999999D01*
X-3386496Y14999999D01*
X-3386496Y15000000D01*
X-3406458Y15189928D01*
X-3452514Y15331673D01*
X-3465470Y15371549D01*
X-3465473Y15371556D01*
X-3521343Y15468326D01*
X-3560960Y15536944D01*
X-3678356Y15667326D01*
X-3688745Y15678864D01*
X-3688747Y15678866D01*
X-3843248Y15791118D01*
X-3863195Y15799999D01*
X15886296Y15799999D01*
X15907034Y15629198D01*
X15968045Y15468326D01*
X16065786Y15326725D01*
X16065789Y15326722D01*
X16194567Y15212634D01*
X16346920Y15132673D01*
X16513972Y15091500D01*
X16686028Y15091500D01*
X16853079Y15132673D01*
X17005432Y15212634D01*
X17134210Y15326722D01*
X17134213Y15326725D01*
X17134215Y15326727D01*
X17231954Y15468325D01*
X17277100Y15587365D01*
X17292965Y15629198D01*
X17313704Y15799999D01*
X17313704Y15800000D01*
X17292965Y15970801D01*
X17277100Y16012634D01*
X17231954Y16131675D01*
X17134215Y16273273D01*
X17005430Y16387367D01*
X16853083Y16467325D01*
X16686028Y16508500D01*
X16513972Y16508500D01*
X16346920Y16467326D01*
X16346919Y16467325D01*
X16346917Y16467325D01*
X16194570Y16387367D01*
X16194568Y16387365D01*
X16194567Y16387365D01*
X16065789Y16273277D01*
X16065786Y16273274D01*
X16065785Y16273273D01*
X15995570Y16171549D01*
X15968045Y16131673D01*
X15907034Y15970801D01*
X15886296Y15800000D01*
X15886296Y15799999D01*
X-3863195Y15799999D01*
X-4017712Y15868794D01*
X-4017714Y15868794D01*
X-4017715Y15868795D01*
X-4079923Y15882017D01*
X-4109655Y15888337D01*
X-4171137Y15921529D01*
X-4204914Y15982692D01*
X-4205165Y15983846D01*
X-4206457Y15989925D01*
X-4265470Y16171549D01*
X-4265473Y16171556D01*
X-4321343Y16268326D01*
X-4360960Y16336944D01*
X-4488747Y16478866D01*
X-4643248Y16591118D01*
X-4817712Y16668794D01*
X-4817714Y16668794D01*
X-4817715Y16668795D01*
X-4879923Y16682017D01*
X-4909655Y16688337D01*
X-4971137Y16721529D01*
X-5004914Y16782692D01*
X-5005165Y16783846D01*
X-5006457Y16789925D01*
X-5065470Y16971549D01*
X-5065473Y16971556D01*
X-5098321Y17028450D01*
X-5160960Y17136944D01*
X-5278356Y17267326D01*
X-5288745Y17278864D01*
X-5288747Y17278866D01*
X-5443248Y17391118D01*
X-5617712Y17468794D01*
X-5804513Y17508500D01*
X-5995487Y17508500D01*
X-6182288Y17468794D01*
X-6356752Y17391118D01*
X-6511253Y17278866D01*
X-6639040Y17136944D01*
X-6734527Y16971556D01*
X-6793542Y16789928D01*
X-6813504Y16600000D01*
X-23863198Y16600000D01*
X-23843248Y16608882D01*
X-23843247Y16608882D01*
X-23843246Y16608883D01*
X-23688745Y16721135D01*
X-23560959Y16863057D01*
X-23465473Y17028443D01*
X-23465470Y17028450D01*
X-23406456Y17210077D01*
X-23405164Y17216156D01*
X-23371970Y17277637D01*
X-23310806Y17311411D01*
X-23309658Y17311661D01*
X-23217712Y17331205D01*
X-23074599Y17394923D01*
X-23043248Y17408882D01*
X-23043247Y17408882D01*
X-23043244Y17408884D01*
X-22888745Y17521135D01*
X-22760959Y17663057D01*
X-22665473Y17828443D01*
X-22665470Y17828450D01*
X-22606459Y18010068D01*
X-22606458Y18010069D01*
X-22606458Y18010072D01*
X-22586496Y18200000D01*
X-22606458Y18389928D01*
X-22630219Y18463057D01*
X-22665470Y18571549D01*
X-22665473Y18571556D01*
X-22760959Y18736942D01*
X-22760960Y18736944D01*
X-22888747Y18878866D01*
X-23043248Y18991118D01*
X-23217712Y19068794D01*
X-23404513Y19108500D01*
X-23595487Y19108500D01*
X-23782288Y19068794D01*
X-23956752Y18991118D01*
X-24111253Y18878866D01*
X-24239040Y18736944D01*
X-24334527Y18571556D01*
X-24393542Y18389928D01*
X-24393542Y18389925D01*
X-24394835Y18383846D01*
X-24428027Y18322364D01*
X-24489191Y18288588D01*
X-24490345Y18288337D01*
X-24582284Y18268795D01*
X-24582284Y18268794D01*
X-24582288Y18268794D01*
X-24756752Y18191118D01*
X-24911253Y18078866D01*
X-25039040Y17936944D01*
X-25134527Y17771556D01*
X-25193542Y17589928D01*
X-25213504Y17400000D01*
X-49930500Y17400000D01*
X-49930500Y20600000D01*
X-22013504Y20600000D01*
X-21993542Y20410072D01*
X-21934527Y20228444D01*
X-21839040Y20063056D01*
X-21711253Y19921134D01*
X-21556752Y19808882D01*
X-21481491Y19775374D01*
X-21382286Y19731205D01*
X-21290343Y19711662D01*
X-21228862Y19678469D01*
X-21195085Y19617306D01*
X-21194835Y19616155D01*
X-21193542Y19610079D01*
X-21193542Y19610072D01*
X-21134527Y19428444D01*
X-21039040Y19263056D01*
X-20911253Y19121134D01*
X-20756752Y19008882D01*
X-20582288Y18931206D01*
X-20582286Y18931205D01*
X-20395487Y18891500D01*
X-20204513Y18891500D01*
X-20017714Y18931205D01*
X-19883147Y18991118D01*
X-19843248Y19008882D01*
X-19843247Y19008882D01*
X-19843246Y19008883D01*
X-19688745Y19121135D01*
X-19560959Y19263057D01*
X-19465473Y19428443D01*
X-19465470Y19428450D01*
X-19406459Y19610068D01*
X-19406458Y19610069D01*
X-19406458Y19610072D01*
X-19386496Y19800000D01*
X-19406458Y19989928D01*
X-19430219Y20063057D01*
X-19465470Y20171549D01*
X-19465473Y20171556D01*
X-19560959Y20336942D01*
X-19560960Y20336944D01*
X-19688747Y20478866D01*
X-19843248Y20591118D01*
X-20017712Y20668794D01*
X-20017714Y20668794D01*
X-20017715Y20668795D01*
X-20079923Y20682017D01*
X-20109655Y20688337D01*
X-20171137Y20721529D01*
X-20204914Y20782692D01*
X-20205165Y20783846D01*
X-20206457Y20789925D01*
X-20265470Y20971549D01*
X-20265473Y20971556D01*
X-20360959Y21136942D01*
X-20360960Y21136944D01*
X-20488747Y21278866D01*
X-20643248Y21391118D01*
X-20817712Y21468794D01*
X-21004513Y21508500D01*
X-21195487Y21508500D01*
X-21382288Y21468794D01*
X-21556752Y21391118D01*
X-21711253Y21278866D01*
X-21839040Y21136944D01*
X-21934527Y20971556D01*
X-21993542Y20789928D01*
X-22013504Y20600000D01*
X-49930500Y20600000D01*
X-49930500Y21771362D01*
X-45098500Y21771362D01*
X-45098499Y21771345D01*
X-45097344Y21760607D01*
X-45091989Y21710799D01*
X-45040889Y21573796D01*
X-44953261Y21456739D01*
X-44836204Y21369111D01*
X-44699203Y21318011D01*
X-44638654Y21311500D01*
X-44638638Y21311500D01*
X-42841345Y21311500D01*
X-42780797Y21318011D01*
X-42780795Y21318011D01*
X-42643795Y21369111D01*
X-42526739Y21456739D01*
X-42439111Y21573795D01*
X-42393861Y21695111D01*
X-42351989Y21751044D01*
X-42286524Y21775460D01*
X-42218252Y21760607D01*
X-42186454Y21735762D01*
X-42123240Y21667094D01*
X-41976174Y21552627D01*
X-41945577Y21528812D01*
X-41945572Y21528808D01*
X-41747580Y21421661D01*
X-41747574Y21421658D01*
X-41747571Y21421657D01*
X-41747569Y21421656D01*
X-41534637Y21348556D01*
X-41312569Y21311500D01*
X-41087431Y21311500D01*
X-40865362Y21348556D01*
X-40652430Y21421656D01*
X-40652419Y21421661D01*
X-40454427Y21528808D01*
X-40454422Y21528812D01*
X-40276761Y21667092D01*
X-40276756Y21667097D01*
X-40124284Y21832723D01*
X-40124276Y21832734D01*
X-40033808Y21971206D01*
X-39980662Y22016562D01*
X-39911431Y22025986D01*
X-39848095Y21996484D01*
X-39826192Y21971206D01*
X-39735723Y21832734D01*
X-39735715Y21832723D01*
X-39583243Y21667097D01*
X-39583238Y21667092D01*
X-39405577Y21528812D01*
X-39405572Y21528808D01*
X-39207580Y21421661D01*
X-39207574Y21421658D01*
X-39207571Y21421657D01*
X-39207569Y21421656D01*
X-38994637Y21348556D01*
X-38772569Y21311500D01*
X-38547431Y21311500D01*
X-38325362Y21348556D01*
X-38112430Y21421656D01*
X-38112419Y21421661D01*
X-37914427Y21528808D01*
X-37914422Y21528812D01*
X-37736761Y21667092D01*
X-37736756Y21667097D01*
X-37584284Y21832723D01*
X-37584276Y21832734D01*
X-37493808Y21971206D01*
X-37440662Y22016562D01*
X-37371431Y22025986D01*
X-37308095Y21996484D01*
X-37286192Y21971206D01*
X-37195723Y21832734D01*
X-37195715Y21832723D01*
X-37043243Y21667097D01*
X-37043238Y21667092D01*
X-36865577Y21528812D01*
X-36865572Y21528808D01*
X-36667580Y21421661D01*
X-36667574Y21421658D01*
X-36667571Y21421657D01*
X-36667569Y21421656D01*
X-36454637Y21348556D01*
X-36232569Y21311500D01*
X-36007431Y21311500D01*
X-35785362Y21348556D01*
X-35572430Y21421656D01*
X-35572419Y21421661D01*
X-35374427Y21528808D01*
X-35374422Y21528812D01*
X-35196761Y21667092D01*
X-35196756Y21667097D01*
X-35044284Y21832723D01*
X-35044276Y21832734D01*
X-34953808Y21971206D01*
X-34900662Y22016562D01*
X-34831431Y22025986D01*
X-34768095Y21996484D01*
X-34746192Y21971206D01*
X-34655723Y21832734D01*
X-34655715Y21832723D01*
X-34503243Y21667097D01*
X-34503238Y21667092D01*
X-34325577Y21528812D01*
X-34325572Y21528808D01*
X-34127580Y21421661D01*
X-34127574Y21421658D01*
X-34127571Y21421657D01*
X-34127569Y21421656D01*
X-33914637Y21348556D01*
X-33692569Y21311500D01*
X-33467431Y21311500D01*
X-33245362Y21348556D01*
X-33032430Y21421656D01*
X-33032419Y21421661D01*
X-32834427Y21528808D01*
X-32834422Y21528812D01*
X-32727322Y21612172D01*
X-17780000Y21612172D01*
X-17779999Y21612155D01*
X-17773598Y21552627D01*
X-17773596Y21552620D01*
X-17723354Y21417913D01*
X-17723350Y21417906D01*
X-17637190Y21302812D01*
X-17637187Y21302809D01*
X-17522093Y21216649D01*
X-17522086Y21216645D01*
X-17387379Y21166403D01*
X-17387372Y21166401D01*
X-17327844Y21160000D01*
X-16730000Y21160000D01*
X-16730000Y22144314D01*
X-16718045Y22132359D01*
X-16605148Y22074835D01*
X-16511481Y22060000D01*
X-16448519Y22060000D01*
X-16354852Y22074835D01*
X-16241955Y22132359D01*
X-16230000Y22144314D01*
X-16230000Y21160000D01*
X-15632155Y21160000D01*
X-15572627Y21166401D01*
X-15572620Y21166403D01*
X-15437913Y21216645D01*
X-15437906Y21216649D01*
X-15322812Y21302809D01*
X-15322809Y21302812D01*
X-15236649Y21417906D01*
X-15236645Y21417913D01*
X-15186403Y21552620D01*
X-15186401Y21552626D01*
X-15183874Y21576133D01*
X-15157135Y21640683D01*
X-15099741Y21680530D01*
X-15029916Y21683023D01*
X-14969828Y21647369D01*
X-14959011Y21634000D01*
X-14946198Y21615700D01*
X-14784300Y21453802D01*
X-14596749Y21322477D01*
X-14596747Y21322476D01*
X-14596745Y21322475D01*
X-14389249Y21225718D01*
X-14389238Y21225714D01*
X-14168089Y21166457D01*
X-14168081Y21166456D01*
X-13940002Y21146502D01*
X-13940000Y21146502D01*
X-13939998Y21146502D01*
X-13711918Y21166456D01*
X-13711910Y21166457D01*
X-13490761Y21225714D01*
X-13490750Y21225718D01*
X-13283254Y21322475D01*
X-13283252Y21322476D01*
X-13208165Y21375053D01*
X-13095700Y21453802D01*
X-13095698Y21453803D01*
X-13095695Y21453806D01*
X-12933806Y21615695D01*
X-12897815Y21667094D01*
X-12878198Y21695111D01*
X-12802476Y21803251D01*
X-12782382Y21846345D01*
X-12736209Y21898784D01*
X-12669016Y21917936D01*
X-12602135Y21897720D01*
X-12557618Y21846345D01*
X-12537523Y21803251D01*
X-12406198Y21615700D01*
X-12244300Y21453802D01*
X-12056749Y21322477D01*
X-12056747Y21322476D01*
X-12056745Y21322475D01*
X-11849249Y21225718D01*
X-11849238Y21225714D01*
X-11628089Y21166457D01*
X-11628081Y21166456D01*
X-11400002Y21146502D01*
X-11400000Y21146502D01*
X-11399998Y21146502D01*
X-11171918Y21166456D01*
X-11171910Y21166457D01*
X-10950761Y21225714D01*
X-10950750Y21225718D01*
X-10743254Y21322475D01*
X-10743252Y21322476D01*
X-10668165Y21375053D01*
X-10555700Y21453802D01*
X-10555698Y21453803D01*
X-10555695Y21453806D01*
X-10393806Y21615695D01*
X-10357815Y21667094D01*
X-10338198Y21695111D01*
X-10262476Y21803251D01*
X-10242382Y21846345D01*
X-10196209Y21898784D01*
X-10129016Y21917936D01*
X-10062135Y21897720D01*
X-10017618Y21846345D01*
X-9997523Y21803251D01*
X-9866198Y21615700D01*
X-9704300Y21453802D01*
X-9516749Y21322477D01*
X-9516747Y21322476D01*
X-9516745Y21322475D01*
X-9309249Y21225718D01*
X-9309238Y21225714D01*
X-9088089Y21166457D01*
X-9088081Y21166456D01*
X-8860002Y21146502D01*
X-8860000Y21146502D01*
X-8859998Y21146502D01*
X-8631918Y21166456D01*
X-8631910Y21166457D01*
X-8410761Y21225714D01*
X-8410750Y21225718D01*
X-8203254Y21322475D01*
X-8203252Y21322476D01*
X-8128165Y21375053D01*
X-8015700Y21453802D01*
X-8015698Y21453803D01*
X-8015695Y21453806D01*
X-7853806Y21615695D01*
X-7817815Y21667094D01*
X-7798198Y21695111D01*
X-7722476Y21803251D01*
X-7702382Y21846345D01*
X-7656209Y21898784D01*
X-7589016Y21917936D01*
X-7522135Y21897720D01*
X-7477618Y21846345D01*
X-7457523Y21803251D01*
X-7326198Y21615700D01*
X-7326193Y21615695D01*
X-7164300Y21453802D01*
X-7027304Y21357875D01*
X-6983679Y21303298D01*
X-6976487Y21233800D01*
X-7006278Y21173329D01*
X-7039040Y21136944D01*
X-7134527Y20971556D01*
X-7193542Y20789928D01*
X-7213504Y20600000D01*
X-7193542Y20410072D01*
X-7134527Y20228444D01*
X-7039040Y20063056D01*
X-6911253Y19921134D01*
X-6756752Y19808882D01*
X-6582288Y19731206D01*
X-6582286Y19731205D01*
X-6395487Y19691500D01*
X-6204513Y19691500D01*
X-6017714Y19731205D01*
X-5883147Y19791118D01*
X-5863197Y19800000D01*
X-4713504Y19800000D01*
X-4693542Y19610072D01*
X-4634527Y19428444D01*
X-4539040Y19263056D01*
X-4411253Y19121134D01*
X-4256752Y19008882D01*
X-4082288Y18931206D01*
X-4082286Y18931205D01*
X-3895487Y18891500D01*
X-3704513Y18891500D01*
X-3517714Y18931205D01*
X-3383147Y18991118D01*
X-3363197Y19000000D01*
X386496Y19000000D01*
X406458Y18810072D01*
X406458Y18810069D01*
X406459Y18810068D01*
X465470Y18628450D01*
X465473Y18628443D01*
X560959Y18463057D01*
X688745Y18321135D01*
X843246Y18208883D01*
X843247Y18208882D01*
X843248Y18208882D01*
X871137Y18196465D01*
X1017714Y18131205D01*
X1017713Y18131205D01*
X1204513Y18091500D01*
X1395487Y18091500D01*
X1582285Y18131205D01*
X1582286Y18131205D01*
X1582288Y18131206D01*
X1756752Y18208882D01*
X1911253Y18321134D01*
X1912361Y18322364D01*
X1967719Y18383846D01*
X2039040Y18463056D01*
X2134527Y18628444D01*
X2193542Y18810072D01*
X2213504Y19000000D01*
X2193542Y19189928D01*
X2134527Y19371556D01*
X2039040Y19536944D01*
X1911253Y19678866D01*
X1756752Y19791118D01*
X1736803Y19800000D01*
X2886496Y19800000D01*
X2906458Y19610072D01*
X2906458Y19610069D01*
X2906459Y19610068D01*
X2965470Y19428450D01*
X2965473Y19428443D01*
X3060959Y19263057D01*
X3188745Y19121135D01*
X3343246Y19008883D01*
X3343247Y19008882D01*
X3343248Y19008882D01*
X3383147Y18991118D01*
X3517714Y18931205D01*
X3517713Y18931205D01*
X3704513Y18891500D01*
X3895487Y18891500D01*
X4082285Y18931205D01*
X4082286Y18931205D01*
X4082288Y18931206D01*
X4256752Y19008882D01*
X4256756Y19008884D01*
X4311669Y19048781D01*
X4377475Y19072261D01*
X4394313Y19068345D01*
X4417249Y19127256D01*
X4423295Y19134508D01*
X4466576Y19182577D01*
X4539040Y19263056D01*
X4634527Y19428444D01*
X4693542Y19610072D01*
X4713504Y19800000D01*
X4693542Y19989928D01*
X4634527Y20171556D01*
X4539040Y20336944D01*
X4411253Y20478866D01*
X4256752Y20591118D01*
X4082288Y20668794D01*
X3895487Y20708500D01*
X3704513Y20708500D01*
X3517712Y20668794D01*
X3343248Y20591118D01*
X3188747Y20478866D01*
X3060960Y20336944D01*
X3060959Y20336942D01*
X2965473Y20171556D01*
X2965470Y20171549D01*
X2930219Y20063057D01*
X2906458Y19989928D01*
X2886496Y19800000D01*
X1736803Y19800000D01*
X1582288Y19868794D01*
X1395487Y19908500D01*
X1204513Y19908500D01*
X1017712Y19868794D01*
X843248Y19791118D01*
X688747Y19678866D01*
X688745Y19678864D01*
X688388Y19678467D01*
X560960Y19536944D01*
X560959Y19536942D01*
X465473Y19371556D01*
X465470Y19371549D01*
X430219Y19263057D01*
X406458Y19189928D01*
X386496Y19000000D01*
X-3363197Y19000000D01*
X-3343248Y19008882D01*
X-3343247Y19008882D01*
X-3343246Y19008883D01*
X-3188745Y19121135D01*
X-3060959Y19263057D01*
X-2965473Y19428443D01*
X-2965470Y19428450D01*
X-2906459Y19610068D01*
X-2906458Y19610069D01*
X-2906458Y19610072D01*
X-2886496Y19800000D01*
X-2906458Y19989928D01*
X-2930219Y20063057D01*
X-2965470Y20171549D01*
X-2965473Y20171556D01*
X-3060959Y20336942D01*
X-3060960Y20336944D01*
X-3188747Y20478866D01*
X-3343248Y20591118D01*
X-3517712Y20668794D01*
X-3704513Y20708500D01*
X-3895487Y20708500D01*
X-4082288Y20668794D01*
X-4256752Y20591118D01*
X-4411253Y20478866D01*
X-4539040Y20336944D01*
X-4634527Y20171556D01*
X-4693542Y19989928D01*
X-4713504Y19800000D01*
X-5863197Y19800000D01*
X-5843248Y19808882D01*
X-5843247Y19808882D01*
X-5843246Y19808883D01*
X-5688745Y19921135D01*
X-5560959Y20063057D01*
X-5465473Y20228443D01*
X-5465470Y20228450D01*
X-5406459Y20410068D01*
X-5406458Y20410069D01*
X-5406458Y20410072D01*
X-5386496Y20600000D01*
X-5406458Y20789928D01*
X-5408442Y20796035D01*
X-5465470Y20971549D01*
X-5465473Y20971556D01*
X-5560959Y21136942D01*
X-5560960Y21136944D01*
X-5587485Y21166403D01*
X-5609189Y21190509D01*
X-5639418Y21253501D01*
X-5630792Y21322836D01*
X-5588162Y21375054D01*
X-5475699Y21453802D01*
X-5313806Y21615695D01*
X-5277815Y21667094D01*
X-5258198Y21695111D01*
X-5182476Y21803251D01*
X-5162382Y21846345D01*
X-5116209Y21898784D01*
X-5049016Y21917936D01*
X-4982135Y21897720D01*
X-4937618Y21846345D01*
X-4917523Y21803251D01*
X-4786198Y21615700D01*
X-4624300Y21453802D01*
X-4436749Y21322477D01*
X-4436747Y21322476D01*
X-4436745Y21322475D01*
X-4229249Y21225718D01*
X-4229238Y21225714D01*
X-4008089Y21166457D01*
X-4008081Y21166456D01*
X-3780002Y21146502D01*
X-3780000Y21146502D01*
X-3779998Y21146502D01*
X-3551918Y21166456D01*
X-3551910Y21166457D01*
X-3330761Y21225714D01*
X-3330750Y21225718D01*
X-3123254Y21322475D01*
X-3123252Y21322476D01*
X-3048165Y21375053D01*
X-2935700Y21453802D01*
X-2935698Y21453803D01*
X-2935695Y21453806D01*
X-2773806Y21615695D01*
X-2737815Y21667094D01*
X-2718198Y21695111D01*
X-2642476Y21803251D01*
X-2622382Y21846345D01*
X-2576209Y21898784D01*
X-2509016Y21917936D01*
X-2442135Y21897720D01*
X-2397618Y21846345D01*
X-2377523Y21803251D01*
X-2246198Y21615700D01*
X-2084300Y21453802D01*
X-1896749Y21322477D01*
X-1896747Y21322476D01*
X-1896745Y21322475D01*
X-1689249Y21225718D01*
X-1689238Y21225714D01*
X-1468089Y21166457D01*
X-1468081Y21166456D01*
X-1240002Y21146502D01*
X-1240000Y21146502D01*
X-1239998Y21146502D01*
X-1011918Y21166456D01*
X-1011910Y21166457D01*
X-790761Y21225714D01*
X-790750Y21225718D01*
X-583254Y21322475D01*
X-583252Y21322476D01*
X-508165Y21375053D01*
X-395700Y21453802D01*
X-395698Y21453803D01*
X-395695Y21453806D01*
X-233806Y21615695D01*
X-197815Y21667094D01*
X-178198Y21695111D01*
X-102476Y21803251D01*
X-82382Y21846345D01*
X-36209Y21898784D01*
X30984Y21917936D01*
X97865Y21897720D01*
X142382Y21846345D01*
X162476Y21803251D01*
X238198Y21695111D01*
X257815Y21667094D01*
X293806Y21615695D01*
X455695Y21453806D01*
X455698Y21453803D01*
X455700Y21453802D01*
X568165Y21375053D01*
X643252Y21322476D01*
X643254Y21322475D01*
X850750Y21225718D01*
X850761Y21225714D01*
X1071910Y21166457D01*
X1071918Y21166456D01*
X1299998Y21146502D01*
X1300000Y21146502D01*
X1300002Y21146502D01*
X1528081Y21166456D01*
X1528089Y21166457D01*
X1749238Y21225714D01*
X1749249Y21225718D01*
X1956745Y21322475D01*
X1956747Y21322476D01*
X1956749Y21322477D01*
X2144300Y21453802D01*
X2306198Y21615700D01*
X2437523Y21803251D01*
X2457618Y21846345D01*
X2503791Y21898784D01*
X2570984Y21917936D01*
X2637865Y21897720D01*
X2682382Y21846345D01*
X2702476Y21803251D01*
X2778198Y21695111D01*
X2797815Y21667094D01*
X2833806Y21615695D01*
X2995695Y21453806D01*
X2995698Y21453803D01*
X2995700Y21453802D01*
X3108165Y21375053D01*
X3183252Y21322476D01*
X3183254Y21322475D01*
X3390750Y21225718D01*
X3390761Y21225714D01*
X3611910Y21166457D01*
X3611918Y21166456D01*
X3839998Y21146502D01*
X3840000Y21146502D01*
X3840002Y21146502D01*
X4068081Y21166456D01*
X4068089Y21166457D01*
X4289238Y21225714D01*
X4289249Y21225718D01*
X4496745Y21322475D01*
X4496747Y21322476D01*
X4496749Y21322477D01*
X4684300Y21453802D01*
X4846198Y21615700D01*
X4977523Y21803251D01*
X4997618Y21846345D01*
X5043791Y21898784D01*
X5110984Y21917936D01*
X5177865Y21897720D01*
X5222382Y21846345D01*
X5242476Y21803251D01*
X5318198Y21695111D01*
X5337815Y21667094D01*
X5373806Y21615695D01*
X5535696Y21453805D01*
X5672696Y21357875D01*
X5716320Y21303298D01*
X5723512Y21233799D01*
X5693721Y21173329D01*
X5660960Y21136944D01*
X5660959Y21136942D01*
X5565473Y20971556D01*
X5565470Y20971549D01*
X5508442Y20796035D01*
X5506458Y20789928D01*
X5486496Y20600000D01*
X5506458Y20410072D01*
X5506458Y20410069D01*
X5506459Y20410068D01*
X5565470Y20228450D01*
X5565473Y20228443D01*
X5660959Y20063057D01*
X5788745Y19921135D01*
X5817398Y19900318D01*
X5860063Y19844987D01*
X5866042Y19775374D01*
X5833436Y19713579D01*
X5817399Y19699683D01*
X5788747Y19678866D01*
X5788745Y19678864D01*
X5788388Y19678467D01*
X5660960Y19536944D01*
X5660959Y19536942D01*
X5565473Y19371556D01*
X5565470Y19371549D01*
X5506459Y19189932D01*
X5506457Y19189924D01*
X5505685Y19182577D01*
X5479096Y19117964D01*
X5421796Y19077983D01*
X5356585Y19074257D01*
X5195487Y19108500D01*
X5004513Y19108500D01*
X4817712Y19068794D01*
X4643248Y18991118D01*
X4588331Y18951218D01*
X4522524Y18927738D01*
X4505685Y18931653D01*
X4482750Y18872743D01*
X4476704Y18865491D01*
X4360960Y18736944D01*
X4360959Y18736942D01*
X4265473Y18571556D01*
X4265470Y18571549D01*
X4206457Y18389925D01*
X4205165Y18383846D01*
X4171973Y18322364D01*
X4110809Y18288588D01*
X4109690Y18288344D01*
X4095028Y18285228D01*
X4017715Y18268795D01*
X4017714Y18268794D01*
X4017712Y18268794D01*
X3843248Y18191118D01*
X3688747Y18078866D01*
X3560960Y17936944D01*
X3560959Y17936942D01*
X3465473Y17771556D01*
X3465470Y17771549D01*
X3430219Y17663057D01*
X3406458Y17589928D01*
X3386496Y17400000D01*
X3406458Y17210072D01*
X3406458Y17210069D01*
X3406459Y17210068D01*
X3465470Y17028450D01*
X3465473Y17028443D01*
X3560959Y16863057D01*
X3688745Y16721135D01*
X3843246Y16608883D01*
X3843247Y16608882D01*
X3843248Y16608882D01*
X3863200Y16599999D01*
X4017714Y16531205D01*
X4017713Y16531205D01*
X4204513Y16491500D01*
X4395487Y16491500D01*
X4582285Y16531205D01*
X4582286Y16531205D01*
X4582288Y16531206D01*
X4756752Y16608882D01*
X4911253Y16721134D01*
X5039040Y16863056D01*
X5134527Y17028444D01*
X5193542Y17210072D01*
X5193542Y17210079D01*
X5194835Y17216155D01*
X5228029Y17277636D01*
X5289193Y17311412D01*
X5290343Y17311662D01*
X5382286Y17331205D01*
X5406983Y17342201D01*
X5556752Y17408882D01*
X5711253Y17521134D01*
X5839040Y17663056D01*
X5934527Y17828444D01*
X5993542Y18010072D01*
X5994313Y18017411D01*
X6020892Y18082022D01*
X6078187Y18122010D01*
X6143414Y18125742D01*
X6304513Y18091500D01*
X6495487Y18091500D01*
X6682285Y18131205D01*
X6682286Y18131205D01*
X6682288Y18131206D01*
X6856752Y18208882D01*
X7011253Y18321134D01*
X7012361Y18322364D01*
X7067719Y18383846D01*
X7139040Y18463056D01*
X7234527Y18628444D01*
X7293542Y18810072D01*
X7295550Y18816252D01*
X7296811Y18815842D01*
X7326639Y18871081D01*
X7387804Y18904854D01*
X7440511Y18905104D01*
X7450721Y18902933D01*
X7504513Y18891500D01*
X7504516Y18891500D01*
X7695487Y18891500D01*
X7882285Y18931205D01*
X7882286Y18931205D01*
X7882288Y18931206D01*
X8056752Y19008882D01*
X8056756Y19008884D01*
X8177115Y19096330D01*
X8242921Y19119810D01*
X8310975Y19103984D01*
X8322885Y19096330D01*
X8443243Y19008884D01*
X8617714Y18931205D01*
X8617713Y18931205D01*
X8804513Y18891500D01*
X8995487Y18891500D01*
X9182285Y18931205D01*
X9182286Y18931205D01*
X9182288Y18931206D01*
X9336803Y19000000D01*
X10586496Y19000000D01*
X10606458Y18810072D01*
X10606458Y18810069D01*
X10606459Y18810068D01*
X10665470Y18628450D01*
X10665473Y18628443D01*
X10760959Y18463057D01*
X10888745Y18321135D01*
X11043246Y18208883D01*
X11043247Y18208882D01*
X11043248Y18208882D01*
X11071137Y18196465D01*
X11217714Y18131205D01*
X11217713Y18131205D01*
X11404513Y18091500D01*
X11595487Y18091500D01*
X11782285Y18131205D01*
X11782286Y18131205D01*
X11782288Y18131206D01*
X11936803Y18200000D01*
X16986496Y18200000D01*
X17006458Y18010072D01*
X17006458Y18010069D01*
X17006459Y18010068D01*
X17065470Y17828450D01*
X17065473Y17828443D01*
X17160959Y17663057D01*
X17288745Y17521135D01*
X17443246Y17408883D01*
X17443247Y17408882D01*
X17443248Y17408882D01*
X17476112Y17394250D01*
X17617714Y17331205D01*
X17617713Y17331205D01*
X17804513Y17291500D01*
X17995487Y17291500D01*
X18182285Y17331205D01*
X18182286Y17331205D01*
X18182288Y17331206D01*
X18323888Y17394250D01*
X18393138Y17403534D01*
X18456415Y17373905D01*
X18493627Y17314770D01*
X18497643Y17293933D01*
X18506458Y17210072D01*
X18506458Y17210069D01*
X18506459Y17210068D01*
X18565470Y17028450D01*
X18565473Y17028443D01*
X18660959Y16863057D01*
X18788745Y16721135D01*
X18943246Y16608883D01*
X18943247Y16608882D01*
X18943248Y16608882D01*
X18963200Y16599999D01*
X19117714Y16531205D01*
X19117713Y16531205D01*
X19304513Y16491500D01*
X19495487Y16491500D01*
X19682285Y16531205D01*
X19682286Y16531205D01*
X19682288Y16531206D01*
X19836800Y16599999D01*
X21986296Y16599999D01*
X22007034Y16429198D01*
X22068045Y16268326D01*
X22165786Y16126725D01*
X22165789Y16126722D01*
X22294567Y16012634D01*
X22446920Y15932673D01*
X22613972Y15891500D01*
X22665331Y15891500D01*
X22732370Y15871815D01*
X22778125Y15819011D01*
X22788427Y15782447D01*
X22807035Y15629197D01*
X22868045Y15468326D01*
X22965786Y15326725D01*
X22965789Y15326722D01*
X23094567Y15212634D01*
X23246920Y15132673D01*
X23413972Y15091500D01*
X23465331Y15091500D01*
X23532370Y15071815D01*
X23578125Y15019011D01*
X23588427Y14982447D01*
X23607035Y14829197D01*
X23668045Y14668326D01*
X23765786Y14526725D01*
X23765789Y14526722D01*
X23894567Y14412634D01*
X24046920Y14332673D01*
X24213972Y14291500D01*
X24386028Y14291500D01*
X24553079Y14332673D01*
X24705432Y14412634D01*
X24834210Y14526722D01*
X24834213Y14526725D01*
X24834215Y14526727D01*
X24931954Y14668325D01*
X24962459Y14748762D01*
X24992965Y14829198D01*
X25013704Y14999999D01*
X25013704Y15000000D01*
X24992965Y15170801D01*
X24977100Y15212634D01*
X24931954Y15331675D01*
X24834215Y15473273D01*
X24705430Y15587367D01*
X24553083Y15667325D01*
X24386028Y15708500D01*
X24334668Y15708500D01*
X24267629Y15728185D01*
X24221874Y15780989D01*
X24211572Y15817550D01*
X24192965Y15970801D01*
X24131954Y16131675D01*
X24034215Y16273273D01*
X23905430Y16387367D01*
X23753083Y16467325D01*
X23586028Y16508500D01*
X23534668Y16508500D01*
X23467629Y16528185D01*
X23421874Y16580989D01*
X23411572Y16617550D01*
X23392965Y16770801D01*
X23331954Y16931675D01*
X23234215Y17073273D01*
X23105430Y17187367D01*
X22953083Y17267325D01*
X22786028Y17308500D01*
X22613972Y17308500D01*
X22446920Y17267326D01*
X22446919Y17267325D01*
X22446917Y17267325D01*
X22294570Y17187367D01*
X22294568Y17187365D01*
X22294567Y17187365D01*
X22165789Y17073277D01*
X22165786Y17073274D01*
X22165785Y17073273D01*
X22095570Y16971549D01*
X22068045Y16931673D01*
X22007034Y16770801D01*
X21986296Y16600000D01*
X21986296Y16599999D01*
X19836800Y16599999D01*
X19856752Y16608882D01*
X20011253Y16721134D01*
X20139040Y16863056D01*
X20234527Y17028444D01*
X20293542Y17210072D01*
X20313504Y17400000D01*
X20293542Y17589928D01*
X20234527Y17771556D01*
X20139040Y17936944D01*
X20011253Y18078866D01*
X19856752Y18191118D01*
X19682288Y18268794D01*
X19495487Y18308500D01*
X19304513Y18308500D01*
X19117712Y18268794D01*
X18976109Y18205748D01*
X18906861Y18196465D01*
X18843585Y18226093D01*
X18806372Y18285228D01*
X18802357Y18306057D01*
X18793542Y18389928D01*
X18734527Y18571556D01*
X18639040Y18736944D01*
X18511253Y18878866D01*
X18356752Y18991118D01*
X18182288Y19068794D01*
X17995487Y19108500D01*
X17804513Y19108500D01*
X17617712Y19068794D01*
X17443248Y18991118D01*
X17288747Y18878866D01*
X17160960Y18736944D01*
X17160959Y18736942D01*
X17065473Y18571556D01*
X17065470Y18571549D01*
X17030219Y18463057D01*
X17006458Y18389928D01*
X16986496Y18200000D01*
X11936803Y18200000D01*
X11956752Y18208882D01*
X12111253Y18321134D01*
X12112361Y18322364D01*
X12167719Y18383846D01*
X12239040Y18463056D01*
X12334527Y18628444D01*
X12393542Y18810072D01*
X12413504Y19000000D01*
X12393542Y19189928D01*
X12334527Y19371556D01*
X12239040Y19536944D01*
X12111253Y19678866D01*
X11956752Y19791118D01*
X11782288Y19868794D01*
X11595487Y19908500D01*
X11404513Y19908500D01*
X11217712Y19868794D01*
X11043248Y19791118D01*
X10888747Y19678866D01*
X10888745Y19678864D01*
X10888388Y19678467D01*
X10760960Y19536944D01*
X10760959Y19536942D01*
X10665473Y19371556D01*
X10665470Y19371549D01*
X10630219Y19263057D01*
X10606458Y19189928D01*
X10586496Y19000000D01*
X9336803Y19000000D01*
X9356752Y19008882D01*
X9511253Y19121134D01*
X9639040Y19263056D01*
X9734527Y19428444D01*
X9793542Y19610072D01*
X9813504Y19800000D01*
X9793542Y19989928D01*
X9734527Y20171556D01*
X9639040Y20336944D01*
X9511253Y20478866D01*
X9356752Y20591118D01*
X9336803Y20600000D01*
X19386496Y20600000D01*
X19406458Y20410072D01*
X19406458Y20410069D01*
X19406459Y20410068D01*
X19465470Y20228450D01*
X19465473Y20228443D01*
X19560959Y20063057D01*
X19688745Y19921135D01*
X19843244Y19808884D01*
X19843247Y19808882D01*
X19843248Y19808882D01*
X19874599Y19794923D01*
X20017712Y19731205D01*
X20109658Y19711661D01*
X20171139Y19678467D01*
X20204915Y19617304D01*
X20205164Y19616156D01*
X20206456Y19610077D01*
X20265470Y19428450D01*
X20265473Y19428443D01*
X20360959Y19263057D01*
X20488745Y19121135D01*
X20643244Y19008884D01*
X20643247Y19008882D01*
X20643248Y19008882D01*
X20674599Y18994923D01*
X20817712Y18931205D01*
X20909658Y18911661D01*
X20971139Y18878467D01*
X21004915Y18817304D01*
X21005164Y18816156D01*
X21006456Y18810077D01*
X21065470Y18628450D01*
X21065473Y18628443D01*
X21160959Y18463057D01*
X21288745Y18321135D01*
X21443246Y18208883D01*
X21443247Y18208882D01*
X21443248Y18208882D01*
X21471137Y18196465D01*
X21617714Y18131205D01*
X21617713Y18131205D01*
X21804513Y18091500D01*
X21995487Y18091500D01*
X22182285Y18131205D01*
X22182286Y18131205D01*
X22182288Y18131206D01*
X22356752Y18208882D01*
X22511253Y18321134D01*
X22512361Y18322364D01*
X22567719Y18383846D01*
X22639040Y18463056D01*
X22734527Y18628444D01*
X22793542Y18810072D01*
X22813504Y19000000D01*
X22793542Y19189928D01*
X22734527Y19371556D01*
X22639040Y19536944D01*
X22511253Y19678866D01*
X22356752Y19791118D01*
X22182288Y19868794D01*
X22182284Y19868794D01*
X22182284Y19868795D01*
X22090345Y19888337D01*
X22028863Y19921529D01*
X21995086Y19982692D01*
X21994835Y19983846D01*
X21993542Y19989925D01*
X21993542Y19989928D01*
X21934527Y20171556D01*
X21839040Y20336944D01*
X21711253Y20478866D01*
X21556752Y20591118D01*
X21382288Y20668794D01*
X21382284Y20668794D01*
X21382284Y20668795D01*
X21290345Y20688337D01*
X21228863Y20721529D01*
X21195086Y20782692D01*
X21194835Y20783846D01*
X21193542Y20789925D01*
X21193542Y20789928D01*
X21134527Y20971556D01*
X21039040Y21136944D01*
X20911253Y21278866D01*
X20756752Y21391118D01*
X20582288Y21468794D01*
X20395487Y21508500D01*
X20204513Y21508500D01*
X20017712Y21468794D01*
X19843248Y21391118D01*
X19688747Y21278866D01*
X19560960Y21136944D01*
X19560959Y21136942D01*
X19465473Y20971556D01*
X19465470Y20971549D01*
X19408442Y20796035D01*
X19406458Y20789928D01*
X19386496Y20600000D01*
X9336803Y20600000D01*
X9182288Y20668794D01*
X8995487Y20708500D01*
X8804513Y20708500D01*
X8617712Y20668794D01*
X8443248Y20591118D01*
X8322884Y20503668D01*
X8257079Y20480189D01*
X8189026Y20496014D01*
X8177120Y20503664D01*
X8056752Y20591118D01*
X7882288Y20668794D01*
X7695487Y20708500D01*
X7504513Y20708500D01*
X7465522Y20700212D01*
X7440512Y20694896D01*
X7370845Y20700212D01*
X7315111Y20742349D01*
X7296327Y20784000D01*
X7295550Y20783748D01*
X7234529Y20971549D01*
X7234527Y20971556D01*
X7139040Y21136944D01*
X7090808Y21190510D01*
X7060581Y21253497D01*
X7069205Y21322832D01*
X7111836Y21375053D01*
X7224300Y21453802D01*
X7386193Y21615695D01*
X7386198Y21615700D01*
X7517523Y21803251D01*
X7537618Y21846345D01*
X7583791Y21898784D01*
X7650984Y21917936D01*
X7717865Y21897720D01*
X7762382Y21846345D01*
X7782476Y21803251D01*
X7858198Y21695111D01*
X7877815Y21667094D01*
X7913806Y21615695D01*
X8075695Y21453806D01*
X8075698Y21453803D01*
X8075700Y21453802D01*
X8188165Y21375053D01*
X8263252Y21322476D01*
X8263254Y21322475D01*
X8470750Y21225718D01*
X8470761Y21225714D01*
X8691910Y21166457D01*
X8691918Y21166456D01*
X8919998Y21146502D01*
X8920000Y21146502D01*
X8920002Y21146502D01*
X9148081Y21166456D01*
X9148089Y21166457D01*
X9369238Y21225714D01*
X9369249Y21225718D01*
X9576745Y21322475D01*
X9576747Y21322476D01*
X9576749Y21322477D01*
X9764300Y21453802D01*
X9926198Y21615700D01*
X10057523Y21803251D01*
X10077618Y21846345D01*
X10123791Y21898784D01*
X10190984Y21917936D01*
X10257865Y21897720D01*
X10302382Y21846345D01*
X10322476Y21803251D01*
X10398198Y21695111D01*
X10417815Y21667094D01*
X10453806Y21615695D01*
X10615695Y21453806D01*
X10615698Y21453803D01*
X10615700Y21453802D01*
X10728165Y21375053D01*
X10803252Y21322476D01*
X10803254Y21322475D01*
X11010750Y21225718D01*
X11010761Y21225714D01*
X11231910Y21166457D01*
X11231918Y21166456D01*
X11459998Y21146502D01*
X11460000Y21146502D01*
X11460002Y21146502D01*
X11688081Y21166456D01*
X11688089Y21166457D01*
X11909238Y21225714D01*
X11909249Y21225718D01*
X12116745Y21322475D01*
X12116747Y21322476D01*
X12116749Y21322477D01*
X12304300Y21453802D01*
X12466198Y21615700D01*
X12597523Y21803251D01*
X12617618Y21846345D01*
X12663791Y21898784D01*
X12730984Y21917936D01*
X12797865Y21897720D01*
X12842382Y21846345D01*
X12862476Y21803251D01*
X12938198Y21695111D01*
X12957815Y21667094D01*
X12993806Y21615695D01*
X13155695Y21453806D01*
X13155698Y21453803D01*
X13155700Y21453802D01*
X13268165Y21375053D01*
X13343252Y21322476D01*
X13343254Y21322475D01*
X13550750Y21225718D01*
X13550761Y21225714D01*
X13771910Y21166457D01*
X13771918Y21166456D01*
X13999998Y21146502D01*
X14000000Y21146502D01*
X14000002Y21146502D01*
X14228081Y21166456D01*
X14228089Y21166457D01*
X14449238Y21225714D01*
X14449249Y21225718D01*
X14656745Y21322475D01*
X14656747Y21322476D01*
X14656749Y21322477D01*
X14844300Y21453802D01*
X15006198Y21615700D01*
X15137523Y21803251D01*
X15157618Y21846345D01*
X15203791Y21898784D01*
X15270984Y21917936D01*
X15337865Y21897720D01*
X15382382Y21846345D01*
X15402476Y21803251D01*
X15478198Y21695111D01*
X15497815Y21667094D01*
X15533806Y21615695D01*
X15695695Y21453806D01*
X15695698Y21453803D01*
X15695700Y21453802D01*
X15808165Y21375053D01*
X15883252Y21322476D01*
X15883254Y21322475D01*
X16090750Y21225718D01*
X16090761Y21225714D01*
X16311910Y21166457D01*
X16311918Y21166456D01*
X16539998Y21146502D01*
X16540000Y21146502D01*
X16540002Y21146502D01*
X16768081Y21166456D01*
X16768089Y21166457D01*
X16989238Y21225714D01*
X16989249Y21225718D01*
X17196745Y21322475D01*
X17196747Y21322476D01*
X17196749Y21322477D01*
X17384300Y21453802D01*
X17546198Y21615700D01*
X17677523Y21803251D01*
X17766767Y21994637D01*
X17774281Y22010750D01*
X17774285Y22010761D01*
X17833542Y22231910D01*
X17833543Y22231913D01*
X17853498Y22460000D01*
X17833543Y22688087D01*
X17774284Y22909243D01*
X17677523Y23116749D01*
X17546198Y23304300D01*
X17384300Y23466198D01*
X17196749Y23597523D01*
X16989243Y23694284D01*
X16768087Y23753543D01*
X16597021Y23768509D01*
X16540002Y23773498D01*
X16539998Y23773498D01*
X16474832Y23767796D01*
X16311913Y23753543D01*
X16090757Y23694284D01*
X16090752Y23694281D01*
X16090750Y23694281D01*
X16044911Y23672906D01*
X15883251Y23597523D01*
X15695700Y23466198D01*
X15533802Y23304300D01*
X15402477Y23116749D01*
X15402476Y23116747D01*
X15402475Y23116745D01*
X15382382Y23073655D01*
X15336210Y23021215D01*
X15269017Y23002063D01*
X15202136Y23022278D01*
X15157618Y23073655D01*
X15156112Y23076882D01*
X15137523Y23116749D01*
X15006198Y23304300D01*
X14844300Y23466198D01*
X14656749Y23597523D01*
X14449243Y23694284D01*
X14228087Y23753543D01*
X14057021Y23768509D01*
X14000002Y23773498D01*
X13999998Y23773498D01*
X13934832Y23767796D01*
X13771913Y23753543D01*
X13550757Y23694284D01*
X13550752Y23694281D01*
X13550750Y23694281D01*
X13504911Y23672906D01*
X13343251Y23597523D01*
X13155700Y23466198D01*
X12993802Y23304300D01*
X12862477Y23116749D01*
X12862476Y23116747D01*
X12862475Y23116745D01*
X12842382Y23073655D01*
X12796210Y23021215D01*
X12729017Y23002063D01*
X12662136Y23022278D01*
X12617618Y23073655D01*
X12616112Y23076882D01*
X12597523Y23116749D01*
X12466198Y23304300D01*
X12304300Y23466198D01*
X12116749Y23597523D01*
X11909243Y23694284D01*
X11688087Y23753543D01*
X11517021Y23768509D01*
X11460002Y23773498D01*
X11459998Y23773498D01*
X11394832Y23767796D01*
X11231913Y23753543D01*
X11010757Y23694284D01*
X11010752Y23694281D01*
X11010750Y23694281D01*
X10964911Y23672906D01*
X10803251Y23597523D01*
X10615700Y23466198D01*
X10453802Y23304300D01*
X10322477Y23116749D01*
X10322476Y23116747D01*
X10322475Y23116745D01*
X10302382Y23073655D01*
X10256210Y23021215D01*
X10189017Y23002063D01*
X10122136Y23022278D01*
X10077618Y23073655D01*
X10076112Y23076882D01*
X10057523Y23116749D01*
X9926198Y23304300D01*
X9764300Y23466198D01*
X9576749Y23597523D01*
X9369243Y23694284D01*
X9148087Y23753543D01*
X8977021Y23768509D01*
X8920002Y23773498D01*
X8919998Y23773498D01*
X8854832Y23767796D01*
X8691913Y23753543D01*
X8470757Y23694284D01*
X8470752Y23694281D01*
X8470750Y23694281D01*
X8424911Y23672906D01*
X8263251Y23597523D01*
X8075700Y23466198D01*
X7913802Y23304300D01*
X7782477Y23116749D01*
X7782476Y23116747D01*
X7782475Y23116745D01*
X7762382Y23073655D01*
X7716210Y23021215D01*
X7649017Y23002063D01*
X7582136Y23022278D01*
X7537618Y23073655D01*
X7536112Y23076882D01*
X7517523Y23116749D01*
X7386198Y23304300D01*
X7224300Y23466198D01*
X7036749Y23597523D01*
X6829243Y23694284D01*
X6608087Y23753543D01*
X6437021Y23768509D01*
X6380002Y23773498D01*
X6379998Y23773498D01*
X6314832Y23767796D01*
X6151913Y23753543D01*
X5930757Y23694284D01*
X5930752Y23694281D01*
X5930750Y23694281D01*
X5884911Y23672906D01*
X5723251Y23597523D01*
X5535700Y23466198D01*
X5373802Y23304300D01*
X5242477Y23116749D01*
X5242476Y23116747D01*
X5242475Y23116745D01*
X5222382Y23073655D01*
X5176210Y23021215D01*
X5109017Y23002063D01*
X5042136Y23022278D01*
X4997618Y23073655D01*
X4996112Y23076882D01*
X4977523Y23116749D01*
X4846198Y23304300D01*
X4684300Y23466198D01*
X4496749Y23597523D01*
X4289243Y23694284D01*
X4068087Y23753543D01*
X3897021Y23768509D01*
X3840002Y23773498D01*
X3839998Y23773498D01*
X3774832Y23767796D01*
X3611913Y23753543D01*
X3390757Y23694284D01*
X3390752Y23694281D01*
X3390750Y23694281D01*
X3344911Y23672906D01*
X3183251Y23597523D01*
X2995700Y23466198D01*
X2833802Y23304300D01*
X2702477Y23116749D01*
X2702476Y23116747D01*
X2702475Y23116745D01*
X2682382Y23073655D01*
X2636210Y23021215D01*
X2569017Y23002063D01*
X2502136Y23022278D01*
X2457618Y23073655D01*
X2456112Y23076882D01*
X2437523Y23116749D01*
X2306198Y23304300D01*
X2144300Y23466198D01*
X1956749Y23597523D01*
X1749243Y23694284D01*
X1528087Y23753543D01*
X1357021Y23768509D01*
X1300002Y23773498D01*
X1299998Y23773498D01*
X1234832Y23767796D01*
X1071913Y23753543D01*
X850757Y23694284D01*
X850752Y23694281D01*
X850750Y23694281D01*
X804911Y23672906D01*
X643251Y23597523D01*
X455700Y23466198D01*
X293802Y23304300D01*
X162477Y23116749D01*
X162476Y23116747D01*
X162475Y23116745D01*
X142382Y23073655D01*
X96210Y23021215D01*
X29017Y23002063D01*
X-37864Y23022278D01*
X-82382Y23073655D01*
X-102475Y23116745D01*
X-102476Y23116747D01*
X-102477Y23116749D01*
X-233802Y23304300D01*
X-395700Y23466198D01*
X-583251Y23597523D01*
X-744911Y23672906D01*
X-790750Y23694281D01*
X-790752Y23694281D01*
X-790757Y23694284D01*
X-1011913Y23753543D01*
X-1174832Y23767796D01*
X-1239998Y23773498D01*
X-1240002Y23773498D01*
X-1297021Y23768509D01*
X-1468087Y23753543D01*
X-1689243Y23694284D01*
X-1896749Y23597523D01*
X-2084300Y23466198D01*
X-2246198Y23304300D01*
X-2377523Y23116749D01*
X-2396112Y23076882D01*
X-2397618Y23073655D01*
X-2443790Y23021215D01*
X-2510983Y23002063D01*
X-2577864Y23022278D01*
X-2622382Y23073655D01*
X-2642475Y23116745D01*
X-2642476Y23116747D01*
X-2642477Y23116749D01*
X-2773802Y23304300D01*
X-2935700Y23466198D01*
X-3123251Y23597523D01*
X-3284911Y23672906D01*
X-3330750Y23694281D01*
X-3330752Y23694281D01*
X-3330757Y23694284D01*
X-3551913Y23753543D01*
X-3714832Y23767796D01*
X-3779998Y23773498D01*
X-3780002Y23773498D01*
X-3837021Y23768509D01*
X-4008087Y23753543D01*
X-4229243Y23694284D01*
X-4436749Y23597523D01*
X-4624300Y23466198D01*
X-4786198Y23304300D01*
X-4917523Y23116749D01*
X-4936112Y23076882D01*
X-4937618Y23073655D01*
X-4983790Y23021215D01*
X-5050983Y23002063D01*
X-5117864Y23022278D01*
X-5162382Y23073655D01*
X-5182475Y23116745D01*
X-5182476Y23116747D01*
X-5182477Y23116749D01*
X-5313802Y23304300D01*
X-5475700Y23466198D01*
X-5663251Y23597523D01*
X-5824911Y23672906D01*
X-5870750Y23694281D01*
X-5870752Y23694281D01*
X-5870757Y23694284D01*
X-6091913Y23753543D01*
X-6254832Y23767796D01*
X-6319998Y23773498D01*
X-6320002Y23773498D01*
X-6377021Y23768509D01*
X-6548087Y23753543D01*
X-6769243Y23694284D01*
X-6976749Y23597523D01*
X-7164300Y23466198D01*
X-7326198Y23304300D01*
X-7457523Y23116749D01*
X-7476112Y23076882D01*
X-7477618Y23073655D01*
X-7523790Y23021215D01*
X-7590983Y23002063D01*
X-7657864Y23022278D01*
X-7702382Y23073655D01*
X-7722475Y23116745D01*
X-7722476Y23116747D01*
X-7722477Y23116749D01*
X-7853802Y23304300D01*
X-8015700Y23466198D01*
X-8203251Y23597523D01*
X-8364911Y23672906D01*
X-8410750Y23694281D01*
X-8410752Y23694281D01*
X-8410757Y23694284D01*
X-8631913Y23753543D01*
X-8794832Y23767796D01*
X-8859998Y23773498D01*
X-8860002Y23773498D01*
X-8917021Y23768509D01*
X-9088087Y23753543D01*
X-9309243Y23694284D01*
X-9516749Y23597523D01*
X-9704300Y23466198D01*
X-9866198Y23304300D01*
X-9997523Y23116749D01*
X-10016112Y23076882D01*
X-10017618Y23073655D01*
X-10063790Y23021215D01*
X-10130983Y23002063D01*
X-10197864Y23022278D01*
X-10242382Y23073655D01*
X-10262475Y23116745D01*
X-10262476Y23116747D01*
X-10262477Y23116749D01*
X-10393802Y23304300D01*
X-10555700Y23466198D01*
X-10743251Y23597523D01*
X-10904911Y23672906D01*
X-10950750Y23694281D01*
X-10950752Y23694281D01*
X-10950757Y23694284D01*
X-11171913Y23753543D01*
X-11334832Y23767796D01*
X-11399998Y23773498D01*
X-11400002Y23773498D01*
X-11457021Y23768509D01*
X-11628087Y23753543D01*
X-11849243Y23694284D01*
X-12056749Y23597523D01*
X-12244300Y23466198D01*
X-12406198Y23304300D01*
X-12537523Y23116749D01*
X-12556112Y23076882D01*
X-12557618Y23073655D01*
X-12603790Y23021215D01*
X-12670983Y23002063D01*
X-12737864Y23022278D01*
X-12782382Y23073655D01*
X-12802475Y23116745D01*
X-12802476Y23116747D01*
X-12802477Y23116749D01*
X-12933802Y23304300D01*
X-13095700Y23466198D01*
X-13283251Y23597523D01*
X-13444911Y23672906D01*
X-13490750Y23694281D01*
X-13490752Y23694281D01*
X-13490757Y23694284D01*
X-13711913Y23753543D01*
X-13874832Y23767796D01*
X-13939998Y23773498D01*
X-13940002Y23773498D01*
X-13997021Y23768509D01*
X-14168087Y23753543D01*
X-14389243Y23694284D01*
X-14596749Y23597523D01*
X-14784300Y23466198D01*
X-14946198Y23304300D01*
X-14959012Y23285999D01*
X-15013585Y23242376D01*
X-15083084Y23235182D01*
X-15145439Y23266704D01*
X-15180853Y23326933D01*
X-15183874Y23343867D01*
X-15186401Y23367373D01*
X-15186403Y23367379D01*
X-15236645Y23502086D01*
X-15236649Y23502093D01*
X-15322809Y23617187D01*
X-15322812Y23617190D01*
X-15437906Y23703350D01*
X-15437913Y23703354D01*
X-15572620Y23753596D01*
X-15572627Y23753598D01*
X-15632155Y23759999D01*
X-15632172Y23760000D01*
X-16230000Y23760000D01*
X-16230000Y22775686D01*
X-16241955Y22787641D01*
X-16354852Y22845165D01*
X-16448519Y22860000D01*
X-16511481Y22860000D01*
X-16605148Y22845165D01*
X-16718045Y22787641D01*
X-16730000Y22775686D01*
X-16730000Y23760000D01*
X-17327828Y23760000D01*
X-17327844Y23759999D01*
X-17387372Y23753598D01*
X-17387379Y23753596D01*
X-17522086Y23703354D01*
X-17522093Y23703350D01*
X-17637187Y23617190D01*
X-17637190Y23617187D01*
X-17723350Y23502093D01*
X-17723354Y23502086D01*
X-17773596Y23367379D01*
X-17773598Y23367372D01*
X-17779999Y23307844D01*
X-17780000Y23307827D01*
X-17780000Y22710000D01*
X-16795686Y22710000D01*
X-16807641Y22698045D01*
X-16865165Y22585148D01*
X-16884986Y22460000D01*
X-16865165Y22334852D01*
X-16807641Y22221955D01*
X-16795686Y22210000D01*
X-17780000Y22210000D01*
X-17780000Y21612172D01*
X-32727322Y21612172D01*
X-32656761Y21667092D01*
X-32656756Y21667097D01*
X-32504284Y21832723D01*
X-32504276Y21832734D01*
X-32381140Y22021207D01*
X-32290703Y22227385D01*
X-32235436Y22445628D01*
X-32235434Y22445640D01*
X-32216844Y22669994D01*
X-32216844Y22670005D01*
X-32235434Y22894359D01*
X-32235436Y22894371D01*
X-32290703Y23112614D01*
X-32381140Y23318792D01*
X-32504276Y23507265D01*
X-32504284Y23507276D01*
X-32656756Y23672902D01*
X-32656761Y23672907D01*
X-32760361Y23753543D01*
X-32834424Y23811189D01*
X-32834425Y23811189D01*
X-32834427Y23811191D01*
X-33032419Y23918338D01*
X-33032426Y23918342D01*
X-33245365Y23991444D01*
X-33467431Y24028500D01*
X-33692569Y24028500D01*
X-33914635Y23991444D01*
X-34127574Y23918342D01*
X-34325576Y23811189D01*
X-34503240Y23672906D01*
X-34655722Y23507268D01*
X-34746193Y23368790D01*
X-34799338Y23323437D01*
X-34868569Y23314013D01*
X-34931905Y23343515D01*
X-34953804Y23368787D01*
X-35044278Y23507268D01*
X-35044283Y23507273D01*
X-35044284Y23507276D01*
X-35196756Y23672902D01*
X-35196761Y23672907D01*
X-35300361Y23753543D01*
X-35374424Y23811189D01*
X-35374425Y23811189D01*
X-35374427Y23811191D01*
X-35572419Y23918338D01*
X-35572426Y23918342D01*
X-35785365Y23991444D01*
X-36007431Y24028500D01*
X-36232569Y24028500D01*
X-36454635Y23991444D01*
X-36667574Y23918342D01*
X-36865576Y23811189D01*
X-37043240Y23672906D01*
X-37195722Y23507268D01*
X-37286193Y23368790D01*
X-37339338Y23323437D01*
X-37408569Y23314013D01*
X-37471905Y23343515D01*
X-37493804Y23368787D01*
X-37584278Y23507268D01*
X-37584283Y23507273D01*
X-37584284Y23507276D01*
X-37736756Y23672902D01*
X-37736761Y23672907D01*
X-37840361Y23753543D01*
X-37914424Y23811189D01*
X-37914425Y23811189D01*
X-37914427Y23811191D01*
X-38112419Y23918338D01*
X-38112426Y23918342D01*
X-38325365Y23991444D01*
X-38547431Y24028500D01*
X-38772569Y24028500D01*
X-38994635Y23991444D01*
X-39207574Y23918342D01*
X-39405576Y23811189D01*
X-39583240Y23672906D01*
X-39735722Y23507268D01*
X-39826193Y23368790D01*
X-39879338Y23323437D01*
X-39948569Y23314013D01*
X-40011905Y23343515D01*
X-40033804Y23368787D01*
X-40124278Y23507268D01*
X-40124283Y23507273D01*
X-40124284Y23507276D01*
X-40276756Y23672902D01*
X-40276761Y23672907D01*
X-40380361Y23753543D01*
X-40454424Y23811189D01*
X-40454425Y23811189D01*
X-40454427Y23811191D01*
X-40652419Y23918338D01*
X-40652426Y23918342D01*
X-40865365Y23991444D01*
X-41087431Y24028500D01*
X-41312569Y24028500D01*
X-41534635Y23991444D01*
X-41747574Y23918342D01*
X-41945576Y23811189D01*
X-42123240Y23672906D01*
X-42186452Y23604239D01*
X-42246337Y23568250D01*
X-42316175Y23570349D01*
X-42373791Y23609873D01*
X-42393861Y23644888D01*
X-42439111Y23766204D01*
X-42472785Y23811187D01*
X-42526739Y23883261D01*
X-42643796Y23970889D01*
X-42780799Y24021989D01*
X-42808050Y24024918D01*
X-42841345Y24028499D01*
X-42841362Y24028500D01*
X-44638638Y24028500D01*
X-44638654Y24028499D01*
X-44665692Y24025591D01*
X-44699201Y24021989D01*
X-44836204Y23970889D01*
X-44953261Y23883261D01*
X-45040889Y23766204D01*
X-45091989Y23629201D01*
X-45095395Y23597523D01*
X-45098499Y23568654D01*
X-45098500Y23568637D01*
X-45098500Y21771362D01*
X-49930500Y21771362D01*
X-49930500Y29578998D01*
X-41794498Y29578998D01*
X-41791595Y29545821D01*
X-41774543Y29350913D01*
X-41749335Y29256835D01*
X-41715285Y29129761D01*
X-41715281Y29129750D01*
X-41712072Y29122869D01*
X-41618523Y28922251D01*
X-41487198Y28734700D01*
X-41325300Y28572802D01*
X-41137749Y28441477D01*
X-41137747Y28441476D01*
X-41137745Y28441475D01*
X-40930249Y28344718D01*
X-40930238Y28344714D01*
X-40709089Y28285457D01*
X-40709081Y28285456D01*
X-40481002Y28265502D01*
X-40481000Y28265502D01*
X-40480998Y28265502D01*
X-40252918Y28285456D01*
X-40252910Y28285457D01*
X-40031761Y28344714D01*
X-40031750Y28344718D01*
X-39824254Y28441475D01*
X-39824252Y28441476D01*
X-39645922Y28566345D01*
X-39636700Y28572802D01*
X-39636698Y28572803D01*
X-39636695Y28572806D01*
X-39474806Y28734695D01*
X-39343476Y28922252D01*
X-39343475Y28922254D01*
X-39249925Y29122873D01*
X-37398500Y29122873D01*
X-37383543Y28951913D01*
X-37324284Y28730757D01*
X-37227523Y28523251D01*
X-37096198Y28335700D01*
X-36934300Y28173802D01*
X-36746749Y28042477D01*
X-36746747Y28042476D01*
X-36746745Y28042475D01*
X-36539249Y27945718D01*
X-36539238Y27945714D01*
X-36318089Y27886457D01*
X-36318081Y27886456D01*
X-36090002Y27866502D01*
X-36090000Y27866502D01*
X-36089998Y27866502D01*
X-35861918Y27886456D01*
X-35861910Y27886457D01*
X-35640761Y27945714D01*
X-35640750Y27945718D01*
X-35433254Y28042475D01*
X-35433252Y28042476D01*
X-35340809Y28107206D01*
X-35245700Y28173802D01*
X-35245698Y28173803D01*
X-35245695Y28173806D01*
X-35083806Y28335695D01*
X-35077490Y28344714D01*
X-35015632Y28433056D01*
X-34952476Y28523251D01*
X-34932382Y28566345D01*
X-34886209Y28618784D01*
X-34819016Y28637936D01*
X-34752135Y28617720D01*
X-34707618Y28566345D01*
X-34687523Y28523251D01*
X-34556198Y28335700D01*
X-34394300Y28173802D01*
X-34206749Y28042477D01*
X-34206747Y28042476D01*
X-34206745Y28042475D01*
X-33999249Y27945718D01*
X-33999238Y27945714D01*
X-33778089Y27886457D01*
X-33778081Y27886456D01*
X-33550002Y27866502D01*
X-33550000Y27866502D01*
X-33549998Y27866502D01*
X-33321918Y27886456D01*
X-33321910Y27886457D01*
X-33100761Y27945714D01*
X-33100750Y27945718D01*
X-32893254Y28042475D01*
X-32893252Y28042476D01*
X-32800809Y28107206D01*
X-32705700Y28173802D01*
X-32705698Y28173803D01*
X-32705695Y28173806D01*
X-32543806Y28335695D01*
X-32537490Y28344714D01*
X-32412477Y28523251D01*
X-32412476Y28523252D01*
X-32412475Y28523254D01*
X-32315718Y28730750D01*
X-32315714Y28730761D01*
X-32256457Y28951910D01*
X-32256456Y28951918D01*
X-32254874Y28970000D01*
X-31253504Y28970000D01*
X-31233542Y28780072D01*
X-31217518Y28730757D01*
X-31176479Y28604450D01*
X-31174527Y28598444D01*
X-31079040Y28433056D01*
X-30951253Y28291134D01*
X-30796752Y28178882D01*
X-30622288Y28101206D01*
X-30622286Y28101205D01*
X-30435487Y28061500D01*
X-30244513Y28061500D01*
X-30057714Y28101205D01*
X-29883246Y28178883D01*
X-29728745Y28291135D01*
X-29600959Y28433057D01*
X-29505473Y28598443D01*
X-29505470Y28598450D01*
X-29446459Y28780068D01*
X-29446458Y28780069D01*
X-29446458Y28780072D01*
X-29426496Y28970000D01*
X-29427127Y28976000D01*
X-28171504Y28976000D01*
X-28151542Y28786072D01*
X-28092527Y28604444D01*
X-27997040Y28439056D01*
X-27869253Y28297134D01*
X-27714752Y28184882D01*
X-27540288Y28107206D01*
X-27540286Y28107205D01*
X-27353487Y28067500D01*
X-27162513Y28067500D01*
X-26975714Y28107205D01*
X-26801246Y28184883D01*
X-26646745Y28297135D01*
X-26518959Y28439057D01*
X-26423473Y28604443D01*
X-26423470Y28604450D01*
X-26364459Y28786068D01*
X-26364458Y28786069D01*
X-26364458Y28786072D01*
X-26344496Y28976000D01*
X-22227904Y28976000D01*
X-22207942Y28786072D01*
X-22148927Y28604444D01*
X-22053440Y28439056D01*
X-21925653Y28297134D01*
X-21771152Y28184882D01*
X-21596688Y28107206D01*
X-21596686Y28107205D01*
X-21409887Y28067500D01*
X-21218913Y28067500D01*
X-21032114Y28107205D01*
X-20857646Y28184883D01*
X-20703145Y28297135D01*
X-20575359Y28439057D01*
X-20479873Y28604443D01*
X-20479870Y28604450D01*
X-20420859Y28786068D01*
X-20420858Y28786069D01*
X-20420858Y28786072D01*
X-20400896Y28976000D01*
X-20420858Y29165928D01*
X-20422842Y29172035D01*
X-20479870Y29347549D01*
X-20479873Y29347556D01*
X-20575359Y29512942D01*
X-20575360Y29512944D01*
X-20697743Y29648864D01*
X-20703145Y29654864D01*
X-20703147Y29654866D01*
X-20857648Y29767118D01*
X-21032112Y29844794D01*
X-21218913Y29884500D01*
X-21409887Y29884500D01*
X-21596688Y29844794D01*
X-21771152Y29767118D01*
X-21925653Y29654866D01*
X-22053440Y29512944D01*
X-22148927Y29347556D01*
X-22207942Y29165928D01*
X-22227904Y28976000D01*
X-26344496Y28976000D01*
X-26364458Y29165928D01*
X-26366442Y29172035D01*
X-26423470Y29347549D01*
X-26423473Y29347556D01*
X-26518959Y29512942D01*
X-26518960Y29512944D01*
X-26641343Y29648864D01*
X-26646745Y29654864D01*
X-26646747Y29654866D01*
X-26801248Y29767118D01*
X-26975712Y29844794D01*
X-27162513Y29884500D01*
X-27353487Y29884500D01*
X-27540288Y29844794D01*
X-27714752Y29767118D01*
X-27869253Y29654866D01*
X-27997040Y29512944D01*
X-28092527Y29347556D01*
X-28151542Y29165928D01*
X-28171504Y28976000D01*
X-29427127Y28976000D01*
X-29446458Y29159928D01*
X-29477945Y29256835D01*
X-29505470Y29341549D01*
X-29505473Y29341556D01*
X-29600959Y29506942D01*
X-29600960Y29506944D01*
X-29728747Y29648866D01*
X-29883248Y29761118D01*
X-30057712Y29838794D01*
X-30244513Y29878500D01*
X-30435487Y29878500D01*
X-30622288Y29838794D01*
X-30796752Y29761118D01*
X-30951253Y29648866D01*
X-31079040Y29506944D01*
X-31174527Y29341556D01*
X-31233542Y29159928D01*
X-31253504Y28970000D01*
X-32254874Y28970000D01*
X-32241500Y29122869D01*
X-32241500Y30037130D01*
X-32256456Y30208081D01*
X-32256457Y30208089D01*
X-32315714Y30429238D01*
X-32315718Y30429249D01*
X-32412475Y30636745D01*
X-32412476Y30636747D01*
X-32412477Y30636749D01*
X-32543802Y30824300D01*
X-32698502Y30979000D01*
X-23994504Y30979000D01*
X-23974542Y30789072D01*
X-23915527Y30607444D01*
X-23820040Y30442056D01*
X-23692253Y30300134D01*
X-23537752Y30187882D01*
X-23363288Y30110206D01*
X-23363286Y30110205D01*
X-23176487Y30070500D01*
X-22985513Y30070500D01*
X-22798714Y30110205D01*
X-22624246Y30187883D01*
X-22469745Y30300135D01*
X-22341959Y30442057D01*
X-22246473Y30607443D01*
X-22246470Y30607450D01*
X-22187459Y30789068D01*
X-22187458Y30789069D01*
X-22187458Y30789072D01*
X-22167496Y30979000D01*
X-22187458Y31168928D01*
X-22200825Y31210068D01*
X-22246470Y31350549D01*
X-22246473Y31350556D01*
X-22275019Y31400000D01*
X-12313504Y31400000D01*
X-12293542Y31210072D01*
X-12234527Y31028444D01*
X-12139040Y30863056D01*
X-12011253Y30721134D01*
X-11856752Y30608882D01*
X-11682288Y30531206D01*
X-11682286Y30531205D01*
X-11495487Y30491500D01*
X-11304513Y30491500D01*
X-11117714Y30531205D01*
X-10964999Y30599198D01*
X-10943248Y30608882D01*
X-10943247Y30608882D01*
X-10943246Y30608883D01*
X-10788745Y30721135D01*
X-10744747Y30770000D01*
X21276835Y30770000D01*
X21295465Y30533285D01*
X21350895Y30302404D01*
X21350895Y30302402D01*
X21441757Y30083040D01*
X21441759Y30083037D01*
X21565820Y29880589D01*
X21565821Y29880586D01*
X21720031Y29700031D01*
X21900586Y29545821D01*
X21900589Y29545820D01*
X22103037Y29421759D01*
X22103040Y29421757D01*
X22322403Y29330895D01*
X22553285Y29275465D01*
X22790000Y29256835D01*
X23026714Y29275465D01*
X23257595Y29330895D01*
X23257597Y29330895D01*
X23476959Y29421757D01*
X23476962Y29421759D01*
X23679410Y29545820D01*
X23679413Y29545821D01*
X23800060Y29648864D01*
X23859969Y29700031D01*
X24014176Y29880584D01*
X24014178Y29880586D01*
X24014179Y29880589D01*
X24138240Y30083037D01*
X24138242Y30083040D01*
X24229104Y30302402D01*
X24229104Y30302404D01*
X24229105Y30302406D01*
X24284535Y30533289D01*
X24303165Y30769999D01*
X25241296Y30769999D01*
X25262034Y30599198D01*
X25323045Y30438326D01*
X25420786Y30296725D01*
X25420789Y30296722D01*
X25549567Y30182634D01*
X25701920Y30102673D01*
X25868972Y30061500D01*
X26041028Y30061500D01*
X26208079Y30102673D01*
X26360432Y30182634D01*
X26489210Y30296722D01*
X26489213Y30296725D01*
X26489215Y30296727D01*
X26586954Y30438325D01*
X26618711Y30522063D01*
X26647965Y30599198D01*
X26668704Y30769999D01*
X26668704Y30770000D01*
X26647965Y30940801D01*
X26622969Y31006711D01*
X26586954Y31101675D01*
X26489215Y31243273D01*
X26360430Y31357367D01*
X26208083Y31437325D01*
X26041028Y31478500D01*
X25868972Y31478500D01*
X25701920Y31437326D01*
X25701919Y31437325D01*
X25701917Y31437325D01*
X25549570Y31357367D01*
X25549568Y31357365D01*
X25549567Y31357365D01*
X25420789Y31243277D01*
X25420786Y31243274D01*
X25420785Y31243273D01*
X25333986Y31117523D01*
X25323045Y31101673D01*
X25262034Y30940801D01*
X25241296Y30770000D01*
X25241296Y30769999D01*
X24303165Y30769999D01*
X24303165Y30770000D01*
X24284535Y31006711D01*
X24229105Y31237594D01*
X24226753Y31243273D01*
X24138242Y31456959D01*
X24138240Y31456962D01*
X24138240Y31456963D01*
X24014176Y31659416D01*
X23859969Y31839969D01*
X23736160Y31945711D01*
X23697968Y32004216D01*
X23697712Y32039999D01*
X26511296Y32039999D01*
X26532034Y31869198D01*
X26593045Y31708326D01*
X26690786Y31566725D01*
X26690789Y31566722D01*
X26819567Y31452634D01*
X26971920Y31372673D01*
X27138972Y31331500D01*
X27311028Y31331500D01*
X27478079Y31372673D01*
X27630432Y31452634D01*
X27759210Y31566722D01*
X27759213Y31566725D01*
X27759215Y31566727D01*
X27856954Y31708325D01*
X27917965Y31869199D01*
X27926191Y31936942D01*
X27938704Y32039999D01*
X27938704Y32040000D01*
X27917965Y32210801D01*
X27856954Y32371675D01*
X27759215Y32513273D01*
X27630430Y32627367D01*
X27478083Y32707325D01*
X27311028Y32748500D01*
X27138972Y32748500D01*
X26971920Y32707326D01*
X26971919Y32707325D01*
X26971917Y32707325D01*
X26819570Y32627367D01*
X26819568Y32627365D01*
X26819567Y32627365D01*
X26690789Y32513277D01*
X26690786Y32513274D01*
X26690785Y32513273D01*
X26606466Y32391116D01*
X26593045Y32371673D01*
X26532034Y32210801D01*
X26511296Y32040000D01*
X26511296Y32039999D01*
X23697712Y32039999D01*
X23697469Y32074084D01*
X23734823Y32133131D01*
X23736057Y32134200D01*
X23859969Y32240031D01*
X24014176Y32420584D01*
X24014178Y32420586D01*
X24014179Y32420589D01*
X24138240Y32623037D01*
X24138242Y32623040D01*
X24229104Y32842402D01*
X24229104Y32842404D01*
X24229105Y32842406D01*
X24284535Y33073289D01*
X24303165Y33310000D01*
X24284535Y33546711D01*
X24229105Y33777594D01*
X24229104Y33777597D01*
X24138242Y33996959D01*
X24138240Y33996962D01*
X24138240Y33996963D01*
X24014176Y34199416D01*
X24004078Y34211238D01*
X23975506Y34274997D01*
X23985940Y34344083D01*
X24029349Y34393467D01*
X24029104Y34393796D01*
X24030667Y34394966D01*
X24032069Y34396561D01*
X24035475Y34398565D01*
X24067205Y34422318D01*
X24153261Y34486739D01*
X24240889Y34603796D01*
X24291989Y34740799D01*
X24296207Y34780031D01*
X24298499Y34801345D01*
X24298500Y34801362D01*
X24298500Y35057284D01*
X24318185Y35124323D01*
X24370989Y35170078D01*
X24440147Y35180022D01*
X24452174Y35177681D01*
X24598970Y35141500D01*
X24598972Y35141500D01*
X24771028Y35141500D01*
X24938079Y35182673D01*
X25090432Y35262634D01*
X25219210Y35376722D01*
X25219213Y35376725D01*
X25219215Y35376727D01*
X25316954Y35518325D01*
X25364164Y35642809D01*
X25377965Y35679198D01*
X25398704Y35849999D01*
X27781296Y35849999D01*
X27802034Y35679198D01*
X27863045Y35518326D01*
X27960786Y35376725D01*
X27960789Y35376722D01*
X28089567Y35262634D01*
X28241920Y35182673D01*
X28408972Y35141500D01*
X28581028Y35141500D01*
X28748081Y35182674D01*
X28878837Y35251300D01*
X28947345Y35265024D01*
X29012398Y35239532D01*
X29051022Y35188958D01*
X29061758Y35163038D01*
X29061759Y35163037D01*
X29185820Y34960589D01*
X29185821Y34960586D01*
X29321827Y34801345D01*
X29340031Y34780031D01*
X29463836Y34674291D01*
X29463838Y34674290D01*
X29502031Y34615783D01*
X29502529Y34545915D01*
X29465176Y34486869D01*
X29463861Y34485730D01*
X29340031Y34379969D01*
X29238076Y34260596D01*
X29185821Y34199413D01*
X29185820Y34199410D01*
X29061759Y33996962D01*
X29061757Y33996959D01*
X28970895Y33777597D01*
X28970895Y33777595D01*
X28915465Y33546714D01*
X28896835Y33310000D01*
X28915465Y33073285D01*
X28970895Y32842404D01*
X28970895Y32842402D01*
X29061757Y32623040D01*
X29061759Y32623037D01*
X29185820Y32420589D01*
X29185821Y32420586D01*
X29306864Y32278864D01*
X29340031Y32240031D01*
X29463836Y32134291D01*
X29463838Y32134290D01*
X29502031Y32075783D01*
X29502529Y32005915D01*
X29465176Y31946869D01*
X29463861Y31945730D01*
X29340031Y31839969D01*
X29297292Y31789928D01*
X29185821Y31659413D01*
X29185820Y31659410D01*
X29061759Y31456962D01*
X29061757Y31456959D01*
X28970895Y31237597D01*
X28970895Y31237595D01*
X28915465Y31006714D01*
X28896835Y30770000D01*
X28915465Y30533285D01*
X28970895Y30302404D01*
X28970895Y30302402D01*
X29061757Y30083040D01*
X29061759Y30083037D01*
X29185820Y29880589D01*
X29185821Y29880586D01*
X29340031Y29700031D01*
X29520586Y29545821D01*
X29520589Y29545820D01*
X29723037Y29421759D01*
X29723040Y29421757D01*
X29942403Y29330895D01*
X30173285Y29275465D01*
X30410000Y29256835D01*
X30646714Y29275465D01*
X30877595Y29330895D01*
X30877597Y29330895D01*
X31096959Y29421757D01*
X31096962Y29421759D01*
X31299410Y29545820D01*
X31299413Y29545821D01*
X31420060Y29648864D01*
X31479969Y29700031D01*
X31634176Y29880584D01*
X31634178Y29880586D01*
X31634179Y29880589D01*
X31758240Y30083037D01*
X31758242Y30083040D01*
X31849104Y30302402D01*
X31849104Y30302404D01*
X31849105Y30302406D01*
X31864426Y30366222D01*
X31899217Y30426814D01*
X31961243Y30458978D01*
X32030812Y30452502D01*
X32085836Y30409442D01*
X32105574Y30366222D01*
X32120895Y30302404D01*
X32120895Y30302402D01*
X32211757Y30083040D01*
X32211759Y30083037D01*
X32335820Y29880589D01*
X32335821Y29880586D01*
X32490031Y29700031D01*
X32670586Y29545821D01*
X32670589Y29545820D01*
X32873037Y29421759D01*
X32873040Y29421757D01*
X33092403Y29330895D01*
X33323285Y29275465D01*
X33560000Y29256835D01*
X33796714Y29275465D01*
X34027595Y29330895D01*
X34027597Y29330895D01*
X34246959Y29421757D01*
X34246962Y29421759D01*
X34449410Y29545820D01*
X34449413Y29545821D01*
X34570060Y29648864D01*
X34629969Y29700031D01*
X34784176Y29880584D01*
X34784178Y29880586D01*
X34784179Y29880589D01*
X34908240Y30083037D01*
X34908242Y30083040D01*
X34999104Y30302402D01*
X34999104Y30302404D01*
X34999105Y30302406D01*
X35054535Y30533289D01*
X35073165Y30770000D01*
X35836496Y30770000D01*
X35856458Y30580072D01*
X35856458Y30580069D01*
X35856459Y30580068D01*
X35915470Y30398450D01*
X35915473Y30398443D01*
X36010959Y30233057D01*
X36138745Y30091135D01*
X36293246Y29978883D01*
X36467714Y29901205D01*
X36467713Y29901205D01*
X36654513Y29861500D01*
X36845487Y29861500D01*
X37032285Y29901205D01*
X37032286Y29901205D01*
X37032288Y29901206D01*
X37206752Y29978882D01*
X37206756Y29978884D01*
X37312115Y30055432D01*
X37377921Y30078912D01*
X37445975Y30063086D01*
X37457885Y30055432D01*
X37563243Y29978884D01*
X37737714Y29901205D01*
X37737713Y29901205D01*
X37924513Y29861500D01*
X38115487Y29861500D01*
X38302285Y29901205D01*
X38302286Y29901205D01*
X38302288Y29901206D01*
X38476752Y29978882D01*
X38631253Y30091134D01*
X38759040Y30233056D01*
X38854527Y30398444D01*
X38858101Y30409442D01*
X38867485Y30438325D01*
X38913542Y30580072D01*
X38933504Y30770000D01*
X38913542Y30959928D01*
X38854527Y31141556D01*
X38759040Y31306944D01*
X38631253Y31448866D01*
X38476752Y31561118D01*
X38302288Y31638794D01*
X38115487Y31678500D01*
X37924513Y31678500D01*
X37737712Y31638794D01*
X37563248Y31561118D01*
X37457884Y31484566D01*
X37392080Y31461087D01*
X37324026Y31476912D01*
X37312122Y31484561D01*
X37206752Y31561118D01*
X37032288Y31638794D01*
X36845487Y31678500D01*
X36654513Y31678500D01*
X36467712Y31638794D01*
X36293248Y31561118D01*
X36138747Y31448866D01*
X36010960Y31306944D01*
X35970922Y31237597D01*
X35915473Y31141556D01*
X35915470Y31141549D01*
X35878722Y31028450D01*
X35856458Y30959928D01*
X35836496Y30770000D01*
X35073165Y30770000D01*
X35054535Y31006711D01*
X34999105Y31237594D01*
X34996753Y31243273D01*
X34908242Y31456959D01*
X34908240Y31456962D01*
X34908240Y31456963D01*
X34784176Y31659416D01*
X34629969Y31839969D01*
X34506160Y31945711D01*
X34467968Y32004216D01*
X34467469Y32074084D01*
X34504823Y32133131D01*
X34506057Y32134200D01*
X34629969Y32240031D01*
X34784176Y32420584D01*
X34784178Y32420586D01*
X34784179Y32420589D01*
X34908240Y32623037D01*
X34908242Y32623040D01*
X34999104Y32842402D01*
X34999104Y32842404D01*
X34999105Y32842406D01*
X35054535Y33073289D01*
X35073165Y33310000D01*
X35054535Y33546711D01*
X35051099Y33561022D01*
X35054587Y33630801D01*
X35095249Y33687620D01*
X35160174Y33713436D01*
X35197453Y33711260D01*
X35384513Y33671500D01*
X35575487Y33671500D01*
X35762285Y33711205D01*
X35762286Y33711205D01*
X35762288Y33711206D01*
X35936752Y33788882D01*
X36091253Y33901134D01*
X36219040Y34043056D01*
X36314527Y34208444D01*
X36373542Y34390072D01*
X36393504Y34580000D01*
X36373542Y34769928D01*
X36314527Y34951556D01*
X36219040Y35116944D01*
X36091253Y35258866D01*
X35936752Y35371118D01*
X35762288Y35448794D01*
X35575487Y35488500D01*
X35384513Y35488500D01*
X35243291Y35458482D01*
X35218281Y35453166D01*
X35148614Y35458482D01*
X35092880Y35500619D01*
X35068775Y35566199D01*
X35068500Y35574456D01*
X35068500Y35850000D01*
X38376496Y35850000D01*
X38396458Y35660072D01*
X38396458Y35660069D01*
X38396459Y35660068D01*
X38455470Y35478450D01*
X38455473Y35478443D01*
X38550959Y35313057D01*
X38678745Y35171135D01*
X38833246Y35058883D01*
X39007714Y34981205D01*
X39007713Y34981205D01*
X39194513Y34941500D01*
X39385487Y34941500D01*
X39572285Y34981205D01*
X39572286Y34981205D01*
X39572288Y34981206D01*
X39746752Y35058882D01*
X39746754Y35058883D01*
X39746757Y35058885D01*
X39752088Y35061962D01*
X39819989Y35078428D01*
X39886014Y35055570D01*
X39919805Y35019360D01*
X39955822Y34960585D01*
X40091827Y34801345D01*
X40110031Y34780031D01*
X40233836Y34674291D01*
X40233838Y34674290D01*
X40272031Y34615783D01*
X40272529Y34545915D01*
X40235176Y34486869D01*
X40233861Y34485730D01*
X40110031Y34379969D01*
X40008076Y34260596D01*
X39955821Y34199413D01*
X39955820Y34199410D01*
X39831759Y33996962D01*
X39831757Y33996959D01*
X39740895Y33777597D01*
X39740895Y33777595D01*
X39685465Y33546714D01*
X39666835Y33310000D01*
X39685465Y33073285D01*
X39740895Y32842404D01*
X39740895Y32842402D01*
X39831757Y32623040D01*
X39831759Y32623037D01*
X39955820Y32420589D01*
X39955821Y32420586D01*
X40076864Y32278864D01*
X40110031Y32240031D01*
X40233836Y32134291D01*
X40233838Y32134290D01*
X40272031Y32075783D01*
X40272529Y32005915D01*
X40235176Y31946869D01*
X40233861Y31945730D01*
X40110031Y31839969D01*
X40067292Y31789928D01*
X39955821Y31659413D01*
X39955820Y31659410D01*
X39831759Y31456962D01*
X39831757Y31456959D01*
X39740895Y31237597D01*
X39740895Y31237595D01*
X39685465Y31006714D01*
X39666835Y30770000D01*
X39685465Y30533285D01*
X39740895Y30302404D01*
X39740895Y30302402D01*
X39831757Y30083040D01*
X39831759Y30083037D01*
X39955820Y29880589D01*
X39955821Y29880586D01*
X40110031Y29700031D01*
X40290586Y29545821D01*
X40290589Y29545820D01*
X40493037Y29421759D01*
X40493040Y29421757D01*
X40712403Y29330895D01*
X40943285Y29275465D01*
X41180000Y29256835D01*
X41416714Y29275465D01*
X41647595Y29330895D01*
X41647597Y29330895D01*
X41866959Y29421757D01*
X41866962Y29421759D01*
X42069410Y29545820D01*
X42069413Y29545821D01*
X42190060Y29648864D01*
X42249969Y29700031D01*
X42404176Y29880584D01*
X42404178Y29880586D01*
X42404179Y29880589D01*
X42528240Y30083037D01*
X42528242Y30083040D01*
X42619104Y30302402D01*
X42619104Y30302404D01*
X42619105Y30302406D01*
X42674535Y30533289D01*
X42693165Y30770000D01*
X42674535Y31006711D01*
X42619105Y31237594D01*
X42616753Y31243273D01*
X42528242Y31456959D01*
X42528240Y31456962D01*
X42528240Y31456963D01*
X42440586Y31600000D01*
X46098996Y31600000D01*
X46118958Y31410072D01*
X46118958Y31410069D01*
X46118959Y31410068D01*
X46177970Y31228450D01*
X46177973Y31228443D01*
X46273459Y31063057D01*
X46401245Y30921135D01*
X46555746Y30808883D01*
X46730214Y30731205D01*
X46730213Y30731205D01*
X46917013Y30691500D01*
X47107987Y30691500D01*
X47294785Y30731205D01*
X47294786Y30731205D01*
X47294788Y30731206D01*
X47469252Y30808882D01*
X47623753Y30921134D01*
X47751540Y31063056D01*
X47847027Y31228444D01*
X47906042Y31410072D01*
X47926004Y31600000D01*
X47906042Y31789928D01*
X47847027Y31971556D01*
X47751540Y32136944D01*
X47623753Y32278866D01*
X47469252Y32391118D01*
X47294788Y32468794D01*
X47107987Y32508500D01*
X46917013Y32508500D01*
X46730212Y32468794D01*
X46555748Y32391118D01*
X46401247Y32278866D01*
X46273460Y32136944D01*
X46238149Y32075783D01*
X46177973Y31971556D01*
X46177970Y31971549D01*
X46137760Y31847794D01*
X46118958Y31789928D01*
X46098996Y31600000D01*
X42440586Y31600000D01*
X42404176Y31659416D01*
X42249969Y31839969D01*
X42126160Y31945711D01*
X42087968Y32004216D01*
X42087469Y32074084D01*
X42124823Y32133131D01*
X42126057Y32134200D01*
X42249969Y32240031D01*
X42404176Y32420584D01*
X42404178Y32420586D01*
X42404179Y32420589D01*
X42528240Y32623037D01*
X42528242Y32623040D01*
X42619104Y32842402D01*
X42619104Y32842404D01*
X42619105Y32842406D01*
X42674535Y33073289D01*
X42693165Y33310000D01*
X42674535Y33546711D01*
X42619105Y33777594D01*
X42619104Y33777597D01*
X42528242Y33996959D01*
X42528240Y33996962D01*
X42528240Y33996963D01*
X42404176Y34199416D01*
X42249969Y34379969D01*
X42126160Y34485711D01*
X42087968Y34544216D01*
X42087469Y34614084D01*
X42124823Y34673131D01*
X42126057Y34674200D01*
X42249969Y34780031D01*
X42387877Y34941500D01*
X42404178Y34960586D01*
X42404179Y34960589D01*
X42528240Y35163037D01*
X42528242Y35163040D01*
X42619104Y35382402D01*
X42619104Y35382404D01*
X42619105Y35382406D01*
X42647337Y35500000D01*
X43686547Y35500000D01*
X43706339Y35198035D01*
X43706341Y35198023D01*
X43765375Y34901239D01*
X43765380Y34901220D01*
X43862644Y34614687D01*
X43862648Y34614677D01*
X43996488Y34343277D01*
X43996492Y34343270D01*
X44164612Y34091660D01*
X44364141Y33864141D01*
X44591660Y33664612D01*
X44843270Y33496492D01*
X44843277Y33496488D01*
X45114677Y33362648D01*
X45114687Y33362644D01*
X45401220Y33265380D01*
X45401229Y33265377D01*
X45401234Y33265376D01*
X45401238Y33265375D01*
X45401239Y33265375D01*
X45698023Y33206341D01*
X45698028Y33206340D01*
X45698034Y33206339D01*
X46000000Y33186547D01*
X46301966Y33206339D01*
X46598766Y33265376D01*
X46598773Y33265378D01*
X46598779Y33265380D01*
X46885312Y33362644D01*
X46885322Y33362648D01*
X47156722Y33496488D01*
X47156729Y33496492D01*
X47408339Y33664612D01*
X47635858Y33864141D01*
X47835387Y34091660D01*
X48003507Y34343270D01*
X48003511Y34343277D01*
X48137351Y34614677D01*
X48137355Y34614687D01*
X48234619Y34901220D01*
X48234624Y34901234D01*
X48293661Y35198034D01*
X48313453Y35500000D01*
X48293661Y35801966D01*
X48234624Y36098766D01*
X48137352Y36385320D01*
X48014833Y36633764D01*
X48003514Y36656716D01*
X48003513Y36656716D01*
X48003509Y36656726D01*
X47835386Y36908341D01*
X47635858Y37135858D01*
X47408341Y37335386D01*
X47156727Y37503509D01*
X46885320Y37637352D01*
X46885316Y37637353D01*
X46885312Y37637355D01*
X46791813Y37669093D01*
X46598766Y37734624D01*
X46301966Y37793661D01*
X46000000Y37813453D01*
X45698034Y37793661D01*
X45401234Y37734624D01*
X45114680Y37637352D01*
X45114668Y37637346D01*
X45114663Y37637344D01*
X44843283Y37503514D01*
X44843278Y37503511D01*
X44843274Y37503509D01*
X44591659Y37335386D01*
X44591657Y37335384D01*
X44364141Y37135858D01*
X44282930Y37043254D01*
X44164614Y36908341D01*
X44158131Y36898638D01*
X43996494Y36656731D01*
X43996485Y36656716D01*
X43862655Y36385336D01*
X43862651Y36385326D01*
X43862648Y36385320D01*
X43839658Y36317594D01*
X43765378Y36098774D01*
X43765376Y36098768D01*
X43765376Y36098766D01*
X43706339Y35801966D01*
X43695907Y35642809D01*
X43686547Y35500000D01*
X42647337Y35500000D01*
X42674535Y35613289D01*
X42693165Y35850000D01*
X42674535Y36086711D01*
X42619105Y36317594D01*
X42616753Y36323273D01*
X42528242Y36536959D01*
X42528240Y36536962D01*
X42528240Y36536963D01*
X42404176Y36739416D01*
X42249969Y36919969D01*
X42069416Y37074176D01*
X41866963Y37198240D01*
X41866960Y37198241D01*
X41866959Y37198242D01*
X41647596Y37289104D01*
X41647594Y37289105D01*
X41416711Y37344535D01*
X41180000Y37363165D01*
X40943289Y37344535D01*
X40712406Y37289105D01*
X40712404Y37289104D01*
X40712402Y37289104D01*
X40493040Y37198242D01*
X40493037Y37198240D01*
X40326849Y37096399D01*
X40290589Y37074179D01*
X40290586Y37074178D01*
X40249797Y37039340D01*
X40110031Y36919969D01*
X39955824Y36739416D01*
X39919804Y36680637D01*
X39867994Y36633764D01*
X39799064Y36622341D01*
X39752073Y36638045D01*
X39746765Y36641108D01*
X39746752Y36641118D01*
X39572288Y36718794D01*
X39385487Y36758500D01*
X39194513Y36758500D01*
X39007712Y36718794D01*
X38833248Y36641118D01*
X38678747Y36528866D01*
X38550960Y36386944D01*
X38510922Y36317597D01*
X38455473Y36221556D01*
X38455470Y36221549D01*
X38430031Y36143254D01*
X38396458Y36039928D01*
X38376496Y35850000D01*
X35068500Y35850000D01*
X35068500Y36898637D01*
X35068499Y36898654D01*
X35062978Y36950000D01*
X35061989Y36959201D01*
X35010889Y37096204D01*
X34923261Y37213261D01*
X34806204Y37300889D01*
X34669201Y37351989D01*
X34637623Y37355383D01*
X34608654Y37358499D01*
X34608638Y37358500D01*
X32511362Y37358500D01*
X32511345Y37358499D01*
X32480270Y37355157D01*
X32450799Y37351989D01*
X32450796Y37351988D01*
X32450795Y37351988D01*
X32390564Y37329522D01*
X32313796Y37300889D01*
X32196739Y37213261D01*
X32147717Y37147775D01*
X32109111Y37096204D01*
X32058011Y36959204D01*
X32058011Y36959202D01*
X32051500Y36898654D01*
X32051500Y36452360D01*
X32031815Y36385321D01*
X31979011Y36339566D01*
X31909853Y36329622D01*
X31846297Y36358647D01*
X31812939Y36404908D01*
X31758242Y36536959D01*
X31758240Y36536962D01*
X31758240Y36536963D01*
X31634176Y36739416D01*
X31479969Y36919969D01*
X31299416Y37074176D01*
X31096963Y37198240D01*
X31096960Y37198241D01*
X31096959Y37198242D01*
X30877596Y37289104D01*
X30877594Y37289105D01*
X30646711Y37344535D01*
X30410000Y37363165D01*
X30173289Y37344535D01*
X29942406Y37289105D01*
X29942404Y37289104D01*
X29942402Y37289104D01*
X29723040Y37198242D01*
X29723037Y37198240D01*
X29556849Y37096399D01*
X29520589Y37074179D01*
X29520586Y37074178D01*
X29479797Y37039340D01*
X29340031Y36919969D01*
X29289820Y36861179D01*
X29185821Y36739413D01*
X29185820Y36739410D01*
X29061759Y36536963D01*
X29051023Y36511043D01*
X29007181Y36456639D01*
X28940887Y36434575D01*
X28878837Y36448699D01*
X28748083Y36517325D01*
X28581028Y36558500D01*
X28408972Y36558500D01*
X28241920Y36517326D01*
X28241919Y36517325D01*
X28241917Y36517325D01*
X28089570Y36437367D01*
X28089568Y36437365D01*
X28089567Y36437365D01*
X27960789Y36323277D01*
X27960786Y36323274D01*
X27960785Y36323273D01*
X27870727Y36192802D01*
X27863045Y36181673D01*
X27802034Y36020801D01*
X27781296Y35850000D01*
X27781296Y35849999D01*
X25398704Y35849999D01*
X25398704Y35850000D01*
X25377965Y36020801D01*
X25370710Y36039931D01*
X25316954Y36181675D01*
X25219215Y36323273D01*
X25090430Y36437367D01*
X24938083Y36517325D01*
X24771028Y36558500D01*
X24598972Y36558500D01*
X24452175Y36522318D01*
X24382373Y36525387D01*
X24325311Y36565707D01*
X24299105Y36630476D01*
X24298500Y36642715D01*
X24298500Y36898637D01*
X24298499Y36898654D01*
X24292978Y36950000D01*
X24291989Y36959201D01*
X24240889Y37096204D01*
X24153261Y37213261D01*
X24036204Y37300889D01*
X23899201Y37351989D01*
X23867623Y37355383D01*
X23838654Y37358499D01*
X23838638Y37358500D01*
X21741362Y37358500D01*
X21741345Y37358499D01*
X21710270Y37355157D01*
X21680799Y37351989D01*
X21680796Y37351988D01*
X21680795Y37351988D01*
X21620564Y37329522D01*
X21543796Y37300889D01*
X21426739Y37213261D01*
X21377717Y37147775D01*
X21339111Y37096204D01*
X21288011Y36959204D01*
X21288011Y36959202D01*
X21281500Y36898654D01*
X21281500Y34801345D01*
X21288011Y34740797D01*
X21288011Y34740795D01*
X21339111Y34603795D01*
X21426739Y34486739D01*
X21550896Y34393796D01*
X21549601Y34392066D01*
X21590470Y34351189D01*
X21605316Y34282915D01*
X21580893Y34217453D01*
X21575923Y34211241D01*
X21565826Y34199419D01*
X21565820Y34199410D01*
X21441759Y33996962D01*
X21441757Y33996959D01*
X21350895Y33777597D01*
X21350895Y33777595D01*
X21295465Y33546714D01*
X21276835Y33310000D01*
X21295465Y33073285D01*
X21350895Y32842404D01*
X21350895Y32842402D01*
X21441757Y32623040D01*
X21441759Y32623037D01*
X21565820Y32420589D01*
X21565821Y32420586D01*
X21686864Y32278864D01*
X21720031Y32240031D01*
X21843836Y32134291D01*
X21843838Y32134290D01*
X21882031Y32075783D01*
X21882529Y32005915D01*
X21845176Y31946869D01*
X21843861Y31945730D01*
X21720031Y31839969D01*
X21677292Y31789928D01*
X21565821Y31659413D01*
X21565820Y31659410D01*
X21441759Y31456962D01*
X21441757Y31456959D01*
X21350895Y31237597D01*
X21350895Y31237595D01*
X21295465Y31006714D01*
X21276835Y30770000D01*
X-10744747Y30770000D01*
X-10660959Y30863057D01*
X-10565473Y31028443D01*
X-10565470Y31028450D01*
X-10506459Y31210068D01*
X-10506458Y31210069D01*
X-10506458Y31210072D01*
X-10486496Y31400000D01*
X-10506458Y31589928D01*
X-10509731Y31600000D01*
X-10565470Y31771549D01*
X-10565473Y31771556D01*
X-10621847Y31869199D01*
X-10660960Y31936944D01*
X-10788747Y32078866D01*
X-10943248Y32191118D01*
X-11117712Y32268794D01*
X-11304513Y32308500D01*
X-11495487Y32308500D01*
X-11682288Y32268794D01*
X-11856752Y32191118D01*
X-12011253Y32078866D01*
X-12139040Y31936944D01*
X-12234527Y31771556D01*
X-12293542Y31589928D01*
X-12313504Y31400000D01*
X-22275019Y31400000D01*
X-22303231Y31448864D01*
X-22341960Y31515944D01*
X-22444290Y31629594D01*
X-22469745Y31657864D01*
X-22469747Y31657866D01*
X-22624248Y31770118D01*
X-22798712Y31847794D01*
X-22985513Y31887500D01*
X-23176487Y31887500D01*
X-23363288Y31847794D01*
X-23537752Y31770118D01*
X-23692253Y31657866D01*
X-23820040Y31515944D01*
X-23915527Y31350556D01*
X-23974542Y31168928D01*
X-23994504Y30979000D01*
X-32698502Y30979000D01*
X-32705700Y30986198D01*
X-32893251Y31117523D01*
X-33018091Y31175736D01*
X-33100750Y31214281D01*
X-33100752Y31214281D01*
X-33100757Y31214284D01*
X-33321913Y31273543D01*
X-33484832Y31287796D01*
X-33549998Y31293498D01*
X-33550002Y31293498D01*
X-33607021Y31288509D01*
X-33778087Y31273543D01*
X-33999243Y31214284D01*
X-34206749Y31117523D01*
X-34394300Y30986198D01*
X-34556198Y30824300D01*
X-34687523Y30636749D01*
X-34705033Y30599199D01*
X-34707618Y30593655D01*
X-34753790Y30541215D01*
X-34820983Y30522063D01*
X-34887864Y30542278D01*
X-34932382Y30593655D01*
X-34952475Y30636745D01*
X-34952476Y30636747D01*
X-34952477Y30636749D01*
X-35083802Y30824300D01*
X-35245700Y30986198D01*
X-35433251Y31117523D01*
X-35558091Y31175736D01*
X-35640750Y31214281D01*
X-35640752Y31214281D01*
X-35640757Y31214284D01*
X-35861913Y31273543D01*
X-36024832Y31287796D01*
X-36089998Y31293498D01*
X-36090002Y31293498D01*
X-36147021Y31288509D01*
X-36318087Y31273543D01*
X-36539243Y31214284D01*
X-36746749Y31117523D01*
X-36934300Y30986198D01*
X-37096198Y30824300D01*
X-37227523Y30636749D01*
X-37324284Y30429243D01*
X-37383543Y30208087D01*
X-37398500Y30037127D01*
X-37398500Y29122873D01*
X-39249925Y29122873D01*
X-39246718Y29129750D01*
X-39246714Y29129761D01*
X-39187457Y29350910D01*
X-39187456Y29350918D01*
X-39167502Y29578998D01*
X-39167502Y29579001D01*
X-39187456Y29807081D01*
X-39187457Y29807089D01*
X-39246714Y30028238D01*
X-39246718Y30028249D01*
X-39343475Y30235745D01*
X-39343476Y30235747D01*
X-39343477Y30235749D01*
X-39474802Y30423300D01*
X-39636700Y30585198D01*
X-39824251Y30716523D01*
X-39979834Y30789072D01*
X-40031750Y30813281D01*
X-40031752Y30813281D01*
X-40031757Y30813284D01*
X-40252913Y30872543D01*
X-40415832Y30886796D01*
X-40480998Y30892498D01*
X-40481002Y30892498D01*
X-40538021Y30887509D01*
X-40709087Y30872543D01*
X-40930243Y30813284D01*
X-41137749Y30716523D01*
X-41325300Y30585198D01*
X-41487198Y30423300D01*
X-41618523Y30235749D01*
X-41715284Y30028243D01*
X-41774543Y29807087D01*
X-41788386Y29648864D01*
X-41794498Y29579001D01*
X-41794498Y29578998D01*
X-49930500Y29578998D01*
X-49930500Y35437804D01*
X-49917409Y35493259D01*
X-49914038Y35500000D01*
X-48313453Y35500000D01*
X-48293661Y35198034D01*
X-48234624Y34901234D01*
X-48234619Y34901220D01*
X-48137355Y34614687D01*
X-48137351Y34614677D01*
X-48003511Y34343277D01*
X-48003507Y34343270D01*
X-47835387Y34091660D01*
X-47635858Y33864141D01*
X-47408339Y33664612D01*
X-47156729Y33496492D01*
X-47156722Y33496488D01*
X-46885322Y33362648D01*
X-46885312Y33362644D01*
X-46598779Y33265380D01*
X-46598773Y33265378D01*
X-46598766Y33265376D01*
X-46301966Y33206339D01*
X-46000000Y33186547D01*
X-45698034Y33206339D01*
X-45698028Y33206340D01*
X-45698023Y33206341D01*
X-45401239Y33265375D01*
X-45401238Y33265375D01*
X-45401234Y33265376D01*
X-45401229Y33265377D01*
X-45401220Y33265380D01*
X-45114687Y33362644D01*
X-45114677Y33362648D01*
X-45038935Y33400000D01*
X-14213504Y33400000D01*
X-14193542Y33210072D01*
X-14134527Y33028444D01*
X-14039040Y32863056D01*
X-13911253Y32721134D01*
X-13756752Y32608882D01*
X-13582288Y32531206D01*
X-13582286Y32531205D01*
X-13395487Y32491500D01*
X-13204513Y32491500D01*
X-13017714Y32531205D01*
X-12843246Y32608883D01*
X-12688745Y32721135D01*
X-12560959Y32863057D01*
X-12465473Y33028443D01*
X-12465470Y33028450D01*
X-12406459Y33210068D01*
X-12406458Y33210069D01*
X-12406458Y33210072D01*
X-12386496Y33400000D01*
X-10413504Y33400000D01*
X-10393542Y33210072D01*
X-10334527Y33028444D01*
X-10239040Y32863056D01*
X-10111253Y32721134D01*
X-9956752Y32608882D01*
X-9782288Y32531206D01*
X-9782286Y32531205D01*
X-9595487Y32491500D01*
X-9404513Y32491500D01*
X-9217714Y32531205D01*
X-9043246Y32608883D01*
X-8888745Y32721135D01*
X-8760959Y32863057D01*
X-8665473Y33028443D01*
X-8665470Y33028450D01*
X-8606459Y33210068D01*
X-8606458Y33210069D01*
X-8606458Y33210072D01*
X-8586496Y33400000D01*
X-8606458Y33589928D01*
X-8618665Y33627497D01*
X-8665470Y33771549D01*
X-8665473Y33771556D01*
X-8760959Y33936942D01*
X-8760960Y33936944D01*
X-8888747Y34078866D01*
X-9043248Y34191118D01*
X-9217712Y34268794D01*
X-9404513Y34308500D01*
X-9595487Y34308500D01*
X-9782288Y34268794D01*
X-9956752Y34191118D01*
X-10111253Y34078866D01*
X-10239040Y33936944D01*
X-10334527Y33771556D01*
X-10393542Y33589928D01*
X-10413504Y33400000D01*
X-12386496Y33400000D01*
X-12406458Y33589928D01*
X-12418665Y33627497D01*
X-12465470Y33771549D01*
X-12465473Y33771556D01*
X-12560959Y33936942D01*
X-12560960Y33936944D01*
X-12688747Y34078866D01*
X-12843248Y34191118D01*
X-13017712Y34268794D01*
X-13204513Y34308500D01*
X-13395487Y34308500D01*
X-13582288Y34268794D01*
X-13756752Y34191118D01*
X-13911253Y34078866D01*
X-14039040Y33936944D01*
X-14134527Y33771556D01*
X-14193542Y33589928D01*
X-14213504Y33400000D01*
X-45038935Y33400000D01*
X-44843277Y33496488D01*
X-44843270Y33496492D01*
X-44591660Y33664612D01*
X-44364141Y33864141D01*
X-44164612Y34091660D01*
X-43996492Y34343270D01*
X-43996488Y34343277D01*
X-43862648Y34614677D01*
X-43862644Y34614687D01*
X-43765380Y34901220D01*
X-43765375Y34901239D01*
X-43706341Y35198023D01*
X-43706339Y35198035D01*
X-43686547Y35500000D01*
X-43695907Y35642809D01*
X-43706339Y35801966D01*
X-43765376Y36098766D01*
X-43765376Y36098768D01*
X-43765378Y36098774D01*
X-43839658Y36317594D01*
X-43862648Y36385320D01*
X-43862651Y36385326D01*
X-43862655Y36385336D01*
X-43996485Y36656716D01*
X-43996494Y36656731D01*
X-44158131Y36898638D01*
X-44164614Y36908341D01*
X-44282930Y37043254D01*
X-44364141Y37135858D01*
X-44436138Y37198998D01*
X-41794498Y37198998D01*
X-41790016Y37147775D01*
X-41774543Y36970913D01*
X-41743670Y36855695D01*
X-41715285Y36749761D01*
X-41715281Y36749750D01*
X-41712072Y36742869D01*
X-41618523Y36542251D01*
X-41487198Y36354700D01*
X-41325300Y36192802D01*
X-41137749Y36061477D01*
X-41137747Y36061476D01*
X-41137745Y36061475D01*
X-40930249Y35964718D01*
X-40930238Y35964714D01*
X-40709089Y35905457D01*
X-40709081Y35905456D01*
X-40481002Y35885502D01*
X-40481000Y35885502D01*
X-40480998Y35885502D01*
X-40252918Y35905456D01*
X-40252910Y35905457D01*
X-40031761Y35964714D01*
X-40031750Y35964718D01*
X-39824254Y36061475D01*
X-39824252Y36061476D01*
X-39670796Y36168928D01*
X-39636700Y36192802D01*
X-39636698Y36192803D01*
X-39636695Y36192806D01*
X-39474806Y36354695D01*
X-39472038Y36358647D01*
X-39355285Y36525387D01*
X-39343476Y36542252D01*
X-39343475Y36542254D01*
X-39249925Y36742873D01*
X-37398500Y36742873D01*
X-37383543Y36571913D01*
X-37325339Y36354695D01*
X-37324285Y36350761D01*
X-37324281Y36350750D01*
X-37308820Y36317594D01*
X-37227523Y36143251D01*
X-37096198Y35955700D01*
X-36934300Y35793802D01*
X-36746749Y35662477D01*
X-36746747Y35662476D01*
X-36746745Y35662475D01*
X-36539249Y35565718D01*
X-36539238Y35565714D01*
X-36318089Y35506457D01*
X-36318081Y35506456D01*
X-36090002Y35486502D01*
X-36090000Y35486502D01*
X-36089998Y35486502D01*
X-35861918Y35506456D01*
X-35861910Y35506457D01*
X-35640761Y35565714D01*
X-35640750Y35565718D01*
X-35433254Y35662475D01*
X-35433252Y35662476D01*
X-35296955Y35757913D01*
X-35245700Y35793802D01*
X-35245698Y35793803D01*
X-35245695Y35793806D01*
X-35083801Y35955700D01*
X-35083801Y35955701D01*
X-35079654Y35961623D01*
X-35025075Y36005246D01*
X-34955577Y36012435D01*
X-34893223Y35980910D01*
X-34857813Y35920678D01*
X-34854793Y35903748D01*
X-34853596Y35892620D01*
X-34803354Y35757913D01*
X-34803350Y35757906D01*
X-34717190Y35642812D01*
X-34717187Y35642809D01*
X-34602093Y35556649D01*
X-34602086Y35556645D01*
X-34467379Y35506403D01*
X-34467372Y35506401D01*
X-34407844Y35500000D01*
X-33810000Y35500000D01*
X-33810000Y36884314D01*
X-33798045Y36872359D01*
X-33685148Y36814835D01*
X-33591481Y36800000D01*
X-33528519Y36800000D01*
X-33434852Y36814835D01*
X-33321955Y36872359D01*
X-33310000Y36884314D01*
X-33310000Y35500000D01*
X-32712155Y35500000D01*
X-32652627Y35506401D01*
X-32652620Y35506403D01*
X-32517913Y35556645D01*
X-32517906Y35556649D01*
X-32402812Y35642809D01*
X-32402809Y35642812D01*
X-32316649Y35757906D01*
X-32316645Y35757913D01*
X-32266403Y35892620D01*
X-32266401Y35892627D01*
X-32260000Y35952155D01*
X-32260000Y35979000D01*
X-21994504Y35979000D01*
X-21974542Y35789072D01*
X-21915527Y35607444D01*
X-21820040Y35442056D01*
X-21692253Y35300134D01*
X-21537752Y35187882D01*
X-21363288Y35110206D01*
X-21363286Y35110205D01*
X-21176487Y35070500D01*
X-20985513Y35070500D01*
X-20798714Y35110205D01*
X-20635948Y35182673D01*
X-20624248Y35187882D01*
X-20624247Y35187882D01*
X-20624246Y35187883D01*
X-20469745Y35300135D01*
X-20341959Y35442057D01*
X-20246473Y35607443D01*
X-20246470Y35607450D01*
X-20187459Y35789068D01*
X-20187458Y35789069D01*
X-20187458Y35789072D01*
X-20167496Y35979000D01*
X-20187458Y36168928D01*
X-20246473Y36350556D01*
X-20341960Y36515944D01*
X-20456105Y36642715D01*
X-20469745Y36657864D01*
X-20469747Y36657866D01*
X-20624248Y36770118D01*
X-20798712Y36847794D01*
X-20985513Y36887500D01*
X-21176487Y36887500D01*
X-21363288Y36847794D01*
X-21537752Y36770118D01*
X-21692253Y36657866D01*
X-21820040Y36515944D01*
X-21915527Y36350556D01*
X-21974542Y36168928D01*
X-21994504Y35979000D01*
X-32260000Y35979000D01*
X-32260000Y36950000D01*
X-33244314Y36950000D01*
X-33232359Y36961955D01*
X-33174835Y37074852D01*
X-33155014Y37200000D01*
X-33174835Y37325148D01*
X-33232359Y37438045D01*
X-33244314Y37450000D01*
X-32260000Y37450000D01*
X-32260000Y37700000D01*
X-17793498Y37700000D01*
X-17773543Y37471913D01*
X-17741409Y37351989D01*
X-17714285Y37250761D01*
X-17714281Y37250750D01*
X-17690149Y37198998D01*
X-17617523Y37043251D01*
X-17486198Y36855700D01*
X-17324300Y36693802D01*
X-17136749Y36562477D01*
X-17136747Y36562476D01*
X-17136745Y36562475D01*
X-16929249Y36465718D01*
X-16929238Y36465714D01*
X-16708089Y36406457D01*
X-16708081Y36406456D01*
X-16480002Y36386502D01*
X-16480000Y36386502D01*
X-16479998Y36386502D01*
X-16251918Y36406456D01*
X-16251910Y36406457D01*
X-16030761Y36465714D01*
X-16030750Y36465718D01*
X-15823254Y36562475D01*
X-15823252Y36562476D01*
X-15710943Y36641116D01*
X-15635700Y36693802D01*
X-15635698Y36693803D01*
X-15635695Y36693806D01*
X-15473806Y36855695D01*
X-15462137Y36872359D01*
X-15342477Y37043251D01*
X-15342476Y37043252D01*
X-15342474Y37043256D01*
X-15317691Y37096402D01*
X-15271518Y37148841D01*
X-15204324Y37167992D01*
X-15137444Y37147775D01*
X-15092927Y37096399D01*
X-15070133Y37047517D01*
X-14939657Y36861179D01*
X-14778820Y36700342D01*
X-14592482Y36569865D01*
X-14386328Y36473734D01*
X-14190000Y36421127D01*
X-14190000Y37384314D01*
X-14178045Y37372359D01*
X-14065148Y37314835D01*
X-13971481Y37300000D01*
X-13908519Y37300000D01*
X-13814852Y37314835D01*
X-13701955Y37372359D01*
X-13690000Y37384314D01*
X-13690000Y36421127D01*
X-13493671Y36473734D01*
X-13287517Y36569865D01*
X-13101179Y36700342D01*
X-12940342Y36861179D01*
X-12809865Y37047517D01*
X-12787071Y37096401D01*
X-12740898Y37148840D01*
X-12673705Y37167992D01*
X-12606824Y37147776D01*
X-12562308Y37096402D01*
X-12537523Y37043251D01*
X-12406198Y36855700D01*
X-12244300Y36693802D01*
X-12056749Y36562477D01*
X-12056747Y36562476D01*
X-12056745Y36562475D01*
X-11849249Y36465718D01*
X-11849238Y36465714D01*
X-11628089Y36406457D01*
X-11628081Y36406456D01*
X-11400002Y36386502D01*
X-11400000Y36386502D01*
X-11399998Y36386502D01*
X-11171918Y36406456D01*
X-11171910Y36406457D01*
X-10950761Y36465714D01*
X-10950750Y36465718D01*
X-10743254Y36562475D01*
X-10743252Y36562476D01*
X-10630943Y36641116D01*
X-10555700Y36693802D01*
X-10555698Y36693803D01*
X-10555695Y36693806D01*
X-10393806Y36855695D01*
X-10382137Y36872359D01*
X-10327772Y36950000D01*
X-10262476Y37043251D01*
X-10242382Y37086345D01*
X-10196209Y37138784D01*
X-10129016Y37157936D01*
X-10062135Y37137720D01*
X-10017618Y37086345D01*
X-9999512Y37047517D01*
X-9997523Y37043251D01*
X-9866198Y36855700D01*
X-9704300Y36693802D01*
X-9516749Y36562477D01*
X-9516747Y36562476D01*
X-9516745Y36562475D01*
X-9309249Y36465718D01*
X-9309238Y36465714D01*
X-9088089Y36406457D01*
X-9088081Y36406456D01*
X-8860002Y36386502D01*
X-8860000Y36386502D01*
X-8859998Y36386502D01*
X-8631918Y36406456D01*
X-8631910Y36406457D01*
X-8410761Y36465714D01*
X-8410750Y36465718D01*
X-8203254Y36562475D01*
X-8203252Y36562476D01*
X-8090943Y36641116D01*
X-8015700Y36693802D01*
X-8015698Y36693803D01*
X-8015695Y36693806D01*
X-7853806Y36855695D01*
X-7842137Y36872359D01*
X-7787772Y36950000D01*
X-7722476Y37043251D01*
X-7702382Y37086345D01*
X-7656209Y37138784D01*
X-7589016Y37157936D01*
X-7522135Y37137720D01*
X-7477618Y37086345D01*
X-7459512Y37047517D01*
X-7457523Y37043251D01*
X-7326198Y36855700D01*
X-7164300Y36693802D01*
X-6976749Y36562477D01*
X-6976747Y36562476D01*
X-6976745Y36562475D01*
X-6769249Y36465718D01*
X-6769238Y36465714D01*
X-6548089Y36406457D01*
X-6548081Y36406456D01*
X-6320002Y36386502D01*
X-6320000Y36386502D01*
X-6319998Y36386502D01*
X-6091918Y36406456D01*
X-6091910Y36406457D01*
X-5870761Y36465714D01*
X-5870750Y36465718D01*
X-5663254Y36562475D01*
X-5663252Y36562476D01*
X-5550943Y36641116D01*
X-5475700Y36693802D01*
X-5475698Y36693803D01*
X-5475695Y36693806D01*
X-5313806Y36855695D01*
X-5302137Y36872359D01*
X-5247772Y36950000D01*
X-5182476Y37043251D01*
X-5162382Y37086345D01*
X-5116209Y37138784D01*
X-5049016Y37157936D01*
X-4982135Y37137720D01*
X-4937618Y37086345D01*
X-4919512Y37047517D01*
X-4917523Y37043251D01*
X-4786198Y36855700D01*
X-4624300Y36693802D01*
X-4436749Y36562477D01*
X-4436747Y36562476D01*
X-4436745Y36562475D01*
X-4229249Y36465718D01*
X-4229238Y36465714D01*
X-4008089Y36406457D01*
X-4008081Y36406456D01*
X-3780002Y36386502D01*
X-3780000Y36386502D01*
X-3779998Y36386502D01*
X-3551918Y36406456D01*
X-3551910Y36406457D01*
X-3330761Y36465714D01*
X-3330750Y36465718D01*
X-3123254Y36562475D01*
X-3123252Y36562476D01*
X-3010943Y36641116D01*
X-2935700Y36693802D01*
X-2935698Y36693803D01*
X-2935695Y36693806D01*
X-2773806Y36855695D01*
X-2762137Y36872359D01*
X-2707772Y36950000D01*
X-2642476Y37043251D01*
X-2622382Y37086345D01*
X-2576209Y37138784D01*
X-2509016Y37157936D01*
X-2442135Y37137720D01*
X-2397618Y37086345D01*
X-2379512Y37047517D01*
X-2377523Y37043251D01*
X-2246198Y36855700D01*
X-2084300Y36693802D01*
X-1896749Y36562477D01*
X-1896747Y36562476D01*
X-1896745Y36562475D01*
X-1689249Y36465718D01*
X-1689238Y36465714D01*
X-1468089Y36406457D01*
X-1468081Y36406456D01*
X-1240002Y36386502D01*
X-1240000Y36386502D01*
X-1239998Y36386502D01*
X-1011918Y36406456D01*
X-1011910Y36406457D01*
X-790761Y36465714D01*
X-790750Y36465718D01*
X-583254Y36562475D01*
X-583252Y36562476D01*
X-470943Y36641116D01*
X-395700Y36693802D01*
X-395698Y36693803D01*
X-395695Y36693806D01*
X-233806Y36855695D01*
X-222137Y36872359D01*
X-167772Y36950000D01*
X-102476Y37043251D01*
X-82382Y37086345D01*
X-36209Y37138784D01*
X30984Y37157936D01*
X97865Y37137720D01*
X142382Y37086345D01*
X162476Y37043251D01*
X227772Y36950000D01*
X282137Y36872359D01*
X293806Y36855695D01*
X455695Y36693806D01*
X455698Y36693803D01*
X455700Y36693802D01*
X530943Y36641116D01*
X643252Y36562476D01*
X643254Y36562475D01*
X850750Y36465718D01*
X850761Y36465714D01*
X1071910Y36406457D01*
X1071918Y36406456D01*
X1299998Y36386502D01*
X1300000Y36386502D01*
X1300002Y36386502D01*
X1528081Y36406456D01*
X1528089Y36406457D01*
X1749238Y36465714D01*
X1749249Y36465718D01*
X1956745Y36562475D01*
X1956747Y36562476D01*
X1956749Y36562477D01*
X2144300Y36693802D01*
X2306198Y36855700D01*
X2437523Y37043251D01*
X2439512Y37047517D01*
X2457618Y37086345D01*
X2503791Y37138784D01*
X2570984Y37157936D01*
X2637865Y37137720D01*
X2682382Y37086345D01*
X2702476Y37043251D01*
X2767772Y36950000D01*
X2822137Y36872359D01*
X2833806Y36855695D01*
X2995695Y36693806D01*
X2995698Y36693803D01*
X2995700Y36693802D01*
X3070943Y36641116D01*
X3183252Y36562476D01*
X3183254Y36562475D01*
X3390750Y36465718D01*
X3390761Y36465714D01*
X3611910Y36406457D01*
X3611918Y36406456D01*
X3839998Y36386502D01*
X3840000Y36386502D01*
X3840002Y36386502D01*
X4068081Y36406456D01*
X4068089Y36406457D01*
X4289238Y36465714D01*
X4289249Y36465718D01*
X4496745Y36562475D01*
X4496747Y36562476D01*
X4496749Y36562477D01*
X4684300Y36693802D01*
X4846198Y36855700D01*
X4977523Y37043251D01*
X4979512Y37047517D01*
X4997618Y37086345D01*
X5043791Y37138784D01*
X5110984Y37157936D01*
X5177865Y37137720D01*
X5222382Y37086345D01*
X5242476Y37043251D01*
X5307772Y36950000D01*
X5362137Y36872359D01*
X5373806Y36855695D01*
X5535695Y36693806D01*
X5535698Y36693803D01*
X5535700Y36693802D01*
X5610943Y36641116D01*
X5723252Y36562476D01*
X5723254Y36562475D01*
X5930750Y36465718D01*
X5930761Y36465714D01*
X6151910Y36406457D01*
X6151918Y36406456D01*
X6379998Y36386502D01*
X6380000Y36386502D01*
X6380002Y36386502D01*
X6608081Y36406456D01*
X6608089Y36406457D01*
X6829238Y36465714D01*
X6829249Y36465718D01*
X7036745Y36562475D01*
X7036747Y36562476D01*
X7036749Y36562477D01*
X7224300Y36693802D01*
X7386198Y36855700D01*
X7517523Y37043251D01*
X7519512Y37047517D01*
X7537618Y37086345D01*
X7583791Y37138784D01*
X7650984Y37157936D01*
X7717865Y37137720D01*
X7762382Y37086345D01*
X7782476Y37043251D01*
X7847772Y36950000D01*
X7902137Y36872359D01*
X7913806Y36855695D01*
X8075695Y36693806D01*
X8075698Y36693803D01*
X8075700Y36693802D01*
X8150943Y36641116D01*
X8263252Y36562476D01*
X8263254Y36562475D01*
X8470750Y36465718D01*
X8470761Y36465714D01*
X8691910Y36406457D01*
X8691918Y36406456D01*
X8919998Y36386502D01*
X8920000Y36386502D01*
X8920002Y36386502D01*
X9148081Y36406456D01*
X9148089Y36406457D01*
X9369238Y36465714D01*
X9369249Y36465718D01*
X9576745Y36562475D01*
X9576747Y36562476D01*
X9576749Y36562477D01*
X9764300Y36693802D01*
X9926198Y36855700D01*
X10057523Y37043251D01*
X10059512Y37047517D01*
X10077618Y37086345D01*
X10123791Y37138784D01*
X10190984Y37157936D01*
X10257865Y37137720D01*
X10302382Y37086345D01*
X10322476Y37043251D01*
X10387772Y36950000D01*
X10442137Y36872359D01*
X10453806Y36855695D01*
X10615695Y36693806D01*
X10615698Y36693803D01*
X10615700Y36693802D01*
X10690943Y36641116D01*
X10803252Y36562476D01*
X10803254Y36562475D01*
X11010750Y36465718D01*
X11010761Y36465714D01*
X11231910Y36406457D01*
X11231918Y36406456D01*
X11459998Y36386502D01*
X11460000Y36386502D01*
X11460002Y36386502D01*
X11688081Y36406456D01*
X11688089Y36406457D01*
X11909238Y36465714D01*
X11909249Y36465718D01*
X12116745Y36562475D01*
X12116747Y36562476D01*
X12116749Y36562477D01*
X12304300Y36693802D01*
X12466198Y36855700D01*
X12597523Y37043251D01*
X12599512Y37047517D01*
X12617618Y37086345D01*
X12663791Y37138784D01*
X12730984Y37157936D01*
X12797865Y37137720D01*
X12842382Y37086345D01*
X12862476Y37043251D01*
X12927772Y36950000D01*
X12982137Y36872359D01*
X12993806Y36855695D01*
X13155695Y36693806D01*
X13155698Y36693803D01*
X13155700Y36693802D01*
X13230943Y36641116D01*
X13343252Y36562476D01*
X13343254Y36562475D01*
X13550750Y36465718D01*
X13550761Y36465714D01*
X13771910Y36406457D01*
X13771918Y36406456D01*
X13999998Y36386502D01*
X14000000Y36386502D01*
X14000002Y36386502D01*
X14228081Y36406456D01*
X14228089Y36406457D01*
X14449238Y36465714D01*
X14449249Y36465718D01*
X14656745Y36562475D01*
X14656747Y36562476D01*
X14656749Y36562477D01*
X14844300Y36693802D01*
X15006198Y36855700D01*
X15137523Y37043251D01*
X15139512Y37047517D01*
X15157618Y37086345D01*
X15203791Y37138784D01*
X15270984Y37157936D01*
X15337865Y37137720D01*
X15382382Y37086345D01*
X15402476Y37043251D01*
X15467772Y36950000D01*
X15522137Y36872359D01*
X15533806Y36855695D01*
X15695695Y36693806D01*
X15695698Y36693803D01*
X15695700Y36693802D01*
X15770943Y36641116D01*
X15883252Y36562476D01*
X15883254Y36562475D01*
X16090750Y36465718D01*
X16090761Y36465714D01*
X16311910Y36406457D01*
X16311918Y36406456D01*
X16539998Y36386502D01*
X16540000Y36386502D01*
X16540002Y36386502D01*
X16768081Y36406456D01*
X16768089Y36406457D01*
X16989238Y36465714D01*
X16989249Y36465718D01*
X17196745Y36562475D01*
X17196747Y36562476D01*
X17196749Y36562477D01*
X17384300Y36693802D01*
X17546198Y36855700D01*
X17677523Y37043251D01*
X17750149Y37198998D01*
X17774281Y37250750D01*
X17774285Y37250761D01*
X17801409Y37351989D01*
X17833543Y37471913D01*
X17853498Y37700000D01*
X17833543Y37928087D01*
X17774284Y38149243D01*
X17677523Y38356749D01*
X17546198Y38544300D01*
X17384300Y38706198D01*
X17196749Y38837523D01*
X16989243Y38934284D01*
X16768087Y38993543D01*
X16597021Y39008509D01*
X16540002Y39013498D01*
X16539998Y39013498D01*
X16474832Y39007796D01*
X16311913Y38993543D01*
X16090757Y38934284D01*
X16090752Y38934281D01*
X16090750Y38934281D01*
X16073560Y38926265D01*
X15883251Y38837523D01*
X15695700Y38706198D01*
X15533802Y38544300D01*
X15402478Y38356750D01*
X15402476Y38356747D01*
X15402475Y38356745D01*
X15382382Y38313655D01*
X15336210Y38261215D01*
X15269017Y38242063D01*
X15202136Y38262278D01*
X15157618Y38313655D01*
X15146954Y38336524D01*
X15137523Y38356749D01*
X15006198Y38544300D01*
X14844300Y38706198D01*
X14656749Y38837523D01*
X14449243Y38934284D01*
X14228087Y38993543D01*
X14057021Y39008509D01*
X14000002Y39013498D01*
X13999998Y39013498D01*
X13934832Y39007796D01*
X13771913Y38993543D01*
X13550757Y38934284D01*
X13550752Y38934281D01*
X13550750Y38934281D01*
X13533560Y38926265D01*
X13343251Y38837523D01*
X13155700Y38706198D01*
X12993802Y38544300D01*
X12862478Y38356750D01*
X12862476Y38356747D01*
X12862475Y38356745D01*
X12842382Y38313655D01*
X12796210Y38261215D01*
X12729017Y38242063D01*
X12662136Y38262278D01*
X12617618Y38313655D01*
X12606954Y38336524D01*
X12597523Y38356749D01*
X12466198Y38544300D01*
X12304300Y38706198D01*
X12116749Y38837523D01*
X11909243Y38934284D01*
X11688087Y38993543D01*
X11517021Y39008509D01*
X11460002Y39013498D01*
X11459998Y39013498D01*
X11394832Y39007796D01*
X11231913Y38993543D01*
X11010757Y38934284D01*
X11010752Y38934281D01*
X11010750Y38934281D01*
X10993560Y38926265D01*
X10803251Y38837523D01*
X10615700Y38706198D01*
X10453802Y38544300D01*
X10322478Y38356750D01*
X10322476Y38356747D01*
X10322475Y38356745D01*
X10302382Y38313655D01*
X10256210Y38261215D01*
X10189017Y38242063D01*
X10122136Y38262278D01*
X10077618Y38313655D01*
X10066954Y38336524D01*
X10057523Y38356749D01*
X9926198Y38544300D01*
X9764300Y38706198D01*
X9576749Y38837523D01*
X9369243Y38934284D01*
X9148087Y38993543D01*
X8977021Y39008509D01*
X8920002Y39013498D01*
X8919998Y39013498D01*
X8854832Y39007796D01*
X8691913Y38993543D01*
X8470757Y38934284D01*
X8470752Y38934281D01*
X8470750Y38934281D01*
X8453560Y38926265D01*
X8263251Y38837523D01*
X8075700Y38706198D01*
X7913802Y38544300D01*
X7782478Y38356750D01*
X7782476Y38356747D01*
X7782475Y38356745D01*
X7762382Y38313655D01*
X7716210Y38261215D01*
X7649017Y38242063D01*
X7582136Y38262278D01*
X7537618Y38313655D01*
X7526954Y38336524D01*
X7517523Y38356749D01*
X7386198Y38544300D01*
X7224300Y38706198D01*
X7036749Y38837523D01*
X6829243Y38934284D01*
X6608087Y38993543D01*
X6437021Y39008509D01*
X6380002Y39013498D01*
X6379998Y39013498D01*
X6314832Y39007796D01*
X6151913Y38993543D01*
X5930757Y38934284D01*
X5930752Y38934281D01*
X5930750Y38934281D01*
X5913560Y38926265D01*
X5723251Y38837523D01*
X5535700Y38706198D01*
X5373802Y38544300D01*
X5242478Y38356750D01*
X5242476Y38356747D01*
X5242475Y38356745D01*
X5222382Y38313655D01*
X5176210Y38261215D01*
X5109017Y38242063D01*
X5042136Y38262278D01*
X4997618Y38313655D01*
X4986954Y38336524D01*
X4977523Y38356749D01*
X4846198Y38544300D01*
X4684300Y38706198D01*
X4496749Y38837523D01*
X4289243Y38934284D01*
X4068087Y38993543D01*
X3897021Y39008509D01*
X3840002Y39013498D01*
X3839998Y39013498D01*
X3774832Y39007796D01*
X3611913Y38993543D01*
X3390757Y38934284D01*
X3390752Y38934281D01*
X3390750Y38934281D01*
X3373560Y38926265D01*
X3183251Y38837523D01*
X2995700Y38706198D01*
X2833802Y38544300D01*
X2702478Y38356750D01*
X2702476Y38356747D01*
X2702475Y38356745D01*
X2682382Y38313655D01*
X2636210Y38261215D01*
X2569017Y38242063D01*
X2502136Y38262278D01*
X2457618Y38313655D01*
X2446954Y38336524D01*
X2437523Y38356749D01*
X2306198Y38544300D01*
X2144300Y38706198D01*
X1956749Y38837523D01*
X1749243Y38934284D01*
X1528087Y38993543D01*
X1357021Y39008509D01*
X1300002Y39013498D01*
X1299998Y39013498D01*
X1234832Y39007796D01*
X1071913Y38993543D01*
X850757Y38934284D01*
X850752Y38934281D01*
X850750Y38934281D01*
X833560Y38926265D01*
X643251Y38837523D01*
X455700Y38706198D01*
X293802Y38544300D01*
X162478Y38356750D01*
X162476Y38356747D01*
X162475Y38356745D01*
X142382Y38313655D01*
X96210Y38261215D01*
X29017Y38242063D01*
X-37864Y38262278D01*
X-82382Y38313655D01*
X-102475Y38356745D01*
X-102476Y38356747D01*
X-102478Y38356750D01*
X-233802Y38544300D01*
X-395700Y38706198D01*
X-583251Y38837523D01*
X-773560Y38926265D01*
X-790750Y38934281D01*
X-790752Y38934281D01*
X-790757Y38934284D01*
X-1011913Y38993543D01*
X-1174832Y39007796D01*
X-1239998Y39013498D01*
X-1240002Y39013498D01*
X-1297021Y39008509D01*
X-1468087Y38993543D01*
X-1689243Y38934284D01*
X-1896749Y38837523D01*
X-2084300Y38706198D01*
X-2246198Y38544300D01*
X-2377523Y38356749D01*
X-2386954Y38336524D01*
X-2397618Y38313655D01*
X-2443790Y38261215D01*
X-2510983Y38242063D01*
X-2577864Y38262278D01*
X-2622382Y38313655D01*
X-2642475Y38356745D01*
X-2642476Y38356747D01*
X-2642478Y38356750D01*
X-2773802Y38544300D01*
X-2935700Y38706198D01*
X-3123251Y38837523D01*
X-3313560Y38926265D01*
X-3330750Y38934281D01*
X-3330752Y38934281D01*
X-3330757Y38934284D01*
X-3551913Y38993543D01*
X-3714832Y39007796D01*
X-3779998Y39013498D01*
X-3780002Y39013498D01*
X-3837021Y39008509D01*
X-4008087Y38993543D01*
X-4229243Y38934284D01*
X-4436749Y38837523D01*
X-4624300Y38706198D01*
X-4786198Y38544300D01*
X-4917523Y38356749D01*
X-4926954Y38336524D01*
X-4937618Y38313655D01*
X-4983790Y38261215D01*
X-5050983Y38242063D01*
X-5117864Y38262278D01*
X-5162382Y38313655D01*
X-5182475Y38356745D01*
X-5182476Y38356747D01*
X-5182478Y38356750D01*
X-5313802Y38544300D01*
X-5475700Y38706198D01*
X-5663251Y38837523D01*
X-5853560Y38926265D01*
X-5870750Y38934281D01*
X-5870752Y38934281D01*
X-5870757Y38934284D01*
X-6091913Y38993543D01*
X-6254832Y39007796D01*
X-6319998Y39013498D01*
X-6320002Y39013498D01*
X-6377021Y39008509D01*
X-6548087Y38993543D01*
X-6769243Y38934284D01*
X-6976749Y38837523D01*
X-7164300Y38706198D01*
X-7326198Y38544300D01*
X-7457523Y38356749D01*
X-7466954Y38336524D01*
X-7477618Y38313655D01*
X-7523790Y38261215D01*
X-7590983Y38242063D01*
X-7657864Y38262278D01*
X-7702382Y38313655D01*
X-7722475Y38356745D01*
X-7722476Y38356747D01*
X-7722478Y38356750D01*
X-7853802Y38544300D01*
X-8015700Y38706198D01*
X-8203251Y38837523D01*
X-8393560Y38926265D01*
X-8410750Y38934281D01*
X-8410752Y38934281D01*
X-8410757Y38934284D01*
X-8631913Y38993543D01*
X-8794832Y39007796D01*
X-8859998Y39013498D01*
X-8860002Y39013498D01*
X-8917021Y39008509D01*
X-9088087Y38993543D01*
X-9309243Y38934284D01*
X-9516749Y38837523D01*
X-9704300Y38706198D01*
X-9866198Y38544300D01*
X-9997523Y38356749D01*
X-10006954Y38336524D01*
X-10017618Y38313655D01*
X-10063790Y38261215D01*
X-10130983Y38242063D01*
X-10197864Y38262278D01*
X-10242382Y38313655D01*
X-10262475Y38356745D01*
X-10262476Y38356747D01*
X-10262478Y38356750D01*
X-10393802Y38544300D01*
X-10555700Y38706198D01*
X-10743251Y38837523D01*
X-10933560Y38926265D01*
X-10950750Y38934281D01*
X-10950752Y38934281D01*
X-10950757Y38934284D01*
X-11171913Y38993543D01*
X-11334832Y39007796D01*
X-11399998Y39013498D01*
X-11400002Y39013498D01*
X-11457021Y39008509D01*
X-11628087Y38993543D01*
X-11849243Y38934284D01*
X-12056749Y38837523D01*
X-12244300Y38706198D01*
X-12406198Y38544300D01*
X-12537523Y38356749D01*
X-12546954Y38336523D01*
X-12562307Y38303599D01*
X-12608479Y38251159D01*
X-12675672Y38232007D01*
X-12742553Y38252222D01*
X-12787071Y38303599D01*
X-12809864Y38352479D01*
X-12809865Y38352481D01*
X-12940342Y38538820D01*
X-13101179Y38699657D01*
X-13287517Y38830134D01*
X-13493673Y38926265D01*
X-13493682Y38926269D01*
X-13689999Y38978872D01*
X-13690000Y38978871D01*
X-13690000Y38015686D01*
X-13701955Y38027641D01*
X-13814852Y38085165D01*
X-13908519Y38100000D01*
X-13971481Y38100000D01*
X-14065148Y38085165D01*
X-14178045Y38027641D01*
X-14190000Y38015686D01*
X-14190000Y38978872D01*
X-14386317Y38926269D01*
X-14386326Y38926265D01*
X-14592482Y38830134D01*
X-14778820Y38699657D01*
X-14939657Y38538820D01*
X-15070133Y38352483D01*
X-15092927Y38303600D01*
X-15139098Y38251160D01*
X-15206292Y38232007D01*
X-15273173Y38252221D01*
X-15317692Y38303597D01*
X-15340488Y38352483D01*
X-15342477Y38356749D01*
X-15473802Y38544300D01*
X-15635700Y38706198D01*
X-15823251Y38837523D01*
X-16013560Y38926265D01*
X-16030750Y38934281D01*
X-16030752Y38934281D01*
X-16030757Y38934284D01*
X-16251913Y38993543D01*
X-16414832Y39007796D01*
X-16479998Y39013498D01*
X-16480002Y39013498D01*
X-16537021Y39008509D01*
X-16708087Y38993543D01*
X-16929243Y38934284D01*
X-17136749Y38837523D01*
X-17324300Y38706198D01*
X-17486198Y38544300D01*
X-17617523Y38356749D01*
X-17714284Y38149243D01*
X-17773543Y37928087D01*
X-17793498Y37700000D01*
X-32260000Y37700000D01*
X-32260000Y38447844D01*
X-32266401Y38507372D01*
X-32266403Y38507379D01*
X-32316645Y38642086D01*
X-32316649Y38642093D01*
X-32402809Y38757187D01*
X-32402812Y38757190D01*
X-32517906Y38843350D01*
X-32517913Y38843354D01*
X-32652620Y38893596D01*
X-32652627Y38893598D01*
X-32712155Y38899999D01*
X-32712172Y38900000D01*
X-33310000Y38900000D01*
X-33310000Y37515686D01*
X-33321955Y37527641D01*
X-33434852Y37585165D01*
X-33528519Y37600000D01*
X-33591481Y37600000D01*
X-33685148Y37585165D01*
X-33798045Y37527641D01*
X-33810000Y37515686D01*
X-33810000Y38900000D01*
X-34407828Y38900000D01*
X-34407844Y38899999D01*
X-34467372Y38893598D01*
X-34467379Y38893596D01*
X-34602086Y38843354D01*
X-34602093Y38843350D01*
X-34717187Y38757190D01*
X-34717190Y38757187D01*
X-34803350Y38642093D01*
X-34803354Y38642086D01*
X-34853596Y38507379D01*
X-34854793Y38496252D01*
X-34881530Y38431700D01*
X-34938921Y38391850D01*
X-35008746Y38389355D01*
X-35068836Y38425006D01*
X-35079648Y38438368D01*
X-35083802Y38444300D01*
X-35245700Y38606198D01*
X-35433251Y38737523D01*
X-35631857Y38830134D01*
X-35640750Y38834281D01*
X-35640752Y38834281D01*
X-35640757Y38834284D01*
X-35861913Y38893543D01*
X-36024832Y38907796D01*
X-36089998Y38913498D01*
X-36090002Y38913498D01*
X-36147021Y38908509D01*
X-36318087Y38893543D01*
X-36539243Y38834284D01*
X-36746749Y38737523D01*
X-36934300Y38606198D01*
X-37096198Y38444300D01*
X-37227523Y38256749D01*
X-37324284Y38049243D01*
X-37383543Y37828087D01*
X-37398500Y37657127D01*
X-37398500Y36742873D01*
X-39249925Y36742873D01*
X-39246718Y36749750D01*
X-39246714Y36749761D01*
X-39187457Y36970910D01*
X-39187456Y36970918D01*
X-39167502Y37198998D01*
X-39167502Y37199001D01*
X-39187456Y37427081D01*
X-39187457Y37427089D01*
X-39246714Y37648238D01*
X-39246718Y37648249D01*
X-39343475Y37855745D01*
X-39343476Y37855747D01*
X-39394129Y37928087D01*
X-39474802Y38043300D01*
X-39636700Y38205198D01*
X-39824251Y38336523D01*
X-39949091Y38394736D01*
X-40031750Y38433281D01*
X-40031752Y38433281D01*
X-40031757Y38433284D01*
X-40252913Y38492543D01*
X-40422489Y38507379D01*
X-40480998Y38512498D01*
X-40481002Y38512498D01*
X-40538021Y38507509D01*
X-40709087Y38492543D01*
X-40930243Y38433284D01*
X-41137749Y38336523D01*
X-41325300Y38205198D01*
X-41487198Y38043300D01*
X-41618523Y37855749D01*
X-41715284Y37648243D01*
X-41774543Y37427087D01*
X-41789970Y37250757D01*
X-41794498Y37199001D01*
X-41794498Y37198998D01*
X-44436138Y37198998D01*
X-44591660Y37335387D01*
X-44843270Y37503507D01*
X-44843273Y37503509D01*
X-45008855Y37585165D01*
X-45114677Y37637351D01*
X-45114687Y37637355D01*
X-45319796Y37706979D01*
X-45401234Y37734624D01*
X-45698034Y37793661D01*
X-46000000Y37813453D01*
X-46301966Y37793661D01*
X-46598766Y37734624D01*
X-46885320Y37637352D01*
X-47156726Y37503509D01*
X-47408341Y37335386D01*
X-47635858Y37135858D01*
X-47835386Y36908341D01*
X-48003509Y36656726D01*
X-48003513Y36656716D01*
X-48003514Y36656716D01*
X-48014833Y36633764D01*
X-48137352Y36385320D01*
X-48234624Y36098766D01*
X-48293661Y35801966D01*
X-48313453Y35500000D01*
X-49914038Y35500000D01*
X-48954375Y37419326D01*
X-48946571Y37430154D01*
X-48936708Y37453963D01*
X-48933065Y37461946D01*
X-48930904Y37466267D01*
X-48930500Y37467983D01*
X-48930500Y37472804D01*
X-48930188Y37481595D01*
X-48928361Y37507301D01*
X-48930500Y37520480D01*
X-48930500Y42305497D01*
X-48910815Y42372536D01*
X-48858011Y42418291D01*
X-48806499Y42429497D01*
X48844501Y42428501D01*
G37*
G04 #@! TD.AperFunction*
M02*
