G04 #@! TF.GenerationSoftware,KiCad,Pcbnew,7.0.11*
G04 #@! TF.CreationDate,2024-07-22T16:36:51+02:00*
G04 #@! TF.ProjectId,NOP100,4e4f5031-3030-42e6-9b69-6361645f7063,221101*
G04 #@! TF.SameCoordinates,Original*
G04 #@! TF.FileFunction,Soldermask,Top*
G04 #@! TF.FilePolarity,Negative*
%FSLAX46Y46*%
G04 Gerber Fmt 4.6, Leading zero omitted, Abs format (unit mm)*
G04 Created by KiCad (PCBNEW 7.0.11) date 2024-07-22 16:36:51*
%MOMM*%
%LPD*%
G01*
G04 APERTURE LIST*
G04 Aperture macros list*
%AMRoundRect*
0 Rectangle with rounded corners*
0 $1 Rounding radius*
0 $2 $3 $4 $5 $6 $7 $8 $9 X,Y pos of 4 corners*
0 Add a 4 corners polygon primitive as box body*
4,1,4,$2,$3,$4,$5,$6,$7,$8,$9,$2,$3,0*
0 Add four circle primitives for the rounded corners*
1,1,$1+$1,$2,$3*
1,1,$1+$1,$4,$5*
1,1,$1+$1,$6,$7*
1,1,$1+$1,$8,$9*
0 Add four rect primitives between the rounded corners*
20,1,$1+$1,$2,$3,$4,$5,0*
20,1,$1+$1,$4,$5,$6,$7,0*
20,1,$1+$1,$6,$7,$8,$9,0*
20,1,$1+$1,$8,$9,$2,$3,0*%
%AMFreePoly0*
4,1,19,0.500000,-0.750000,0.000000,-0.750000,0.000000,-0.744911,-0.071157,-0.744911,-0.207708,-0.704816,-0.327430,-0.627875,-0.420627,-0.520320,-0.479746,-0.390866,-0.500000,-0.250000,-0.500000,0.250000,-0.479746,0.390866,-0.420627,0.520320,-0.327430,0.627875,-0.207708,0.704816,-0.071157,0.744911,0.000000,0.744911,0.000000,0.750000,0.500000,0.750000,0.500000,-0.750000,0.500000,-0.750000,
$1*%
%AMFreePoly1*
4,1,19,0.000000,0.744911,0.071157,0.744911,0.207708,0.704816,0.327430,0.627875,0.420627,0.520320,0.479746,0.390866,0.500000,0.250000,0.500000,-0.250000,0.479746,-0.390866,0.420627,-0.520320,0.327430,-0.627875,0.207708,-0.704816,0.071157,-0.744911,0.000000,-0.744911,0.000000,-0.750000,-0.500000,-0.750000,-0.500000,0.750000,0.000000,0.750000,0.000000,0.744911,0.000000,0.744911,
$1*%
G04 Aperture macros list end*
%ADD10C,3.600000*%
%ADD11C,5.600000*%
%ADD12RoundRect,0.250000X0.450000X-0.262500X0.450000X0.262500X-0.450000X0.262500X-0.450000X-0.262500X0*%
%ADD13C,2.000000*%
%ADD14R,2.000000X2.000000*%
%ADD15RoundRect,0.250000X0.262500X0.450000X-0.262500X0.450000X-0.262500X-0.450000X0.262500X-0.450000X0*%
%ADD16RoundRect,0.250000X-0.450000X0.262500X-0.450000X-0.262500X0.450000X-0.262500X0.450000X0.262500X0*%
%ADD17RoundRect,0.250000X-0.262500X-0.450000X0.262500X-0.450000X0.262500X0.450000X-0.262500X0.450000X0*%
%ADD18RoundRect,0.150000X0.150000X-0.587500X0.150000X0.587500X-0.150000X0.587500X-0.150000X-0.587500X0*%
%ADD19FreePoly0,90.000000*%
%ADD20FreePoly1,90.000000*%
%ADD21R,1.200000X0.600000*%
%ADD22R,2.350000X5.100000*%
%ADD23RoundRect,0.250000X-0.312500X-1.075000X0.312500X-1.075000X0.312500X1.075000X-0.312500X1.075000X0*%
%ADD24RoundRect,0.150000X-0.150000X0.825000X-0.150000X-0.825000X0.150000X-0.825000X0.150000X0.825000X0*%
%ADD25RoundRect,0.150000X0.150000X-0.825000X0.150000X0.825000X-0.150000X0.825000X-0.150000X-0.825000X0*%
%ADD26RoundRect,0.250000X0.625000X-0.312500X0.625000X0.312500X-0.625000X0.312500X-0.625000X-0.312500X0*%
%ADD27R,1.600000X1.600000*%
%ADD28O,1.600000X1.600000*%
%ADD29R,1.700000X1.700000*%
%ADD30O,1.700000X1.700000*%
%ADD31R,2.000000X1.700000*%
%ADD32O,2.000000X1.700000*%
%ADD33R,1.600000X2.400000*%
%ADD34O,1.600000X2.400000*%
%ADD35R,1.676400X1.676400*%
%ADD36C,1.524000*%
%ADD37R,1.524000X1.524000*%
%ADD38R,0.650000X1.050000*%
G04 APERTURE END LIST*
D10*
X46000000Y35500000D03*
D11*
X46000000Y35500000D03*
D10*
X-46000000Y35500000D03*
D11*
X-46000000Y35500000D03*
D10*
X-46000000Y-35500000D03*
D11*
X-46000000Y-35500000D03*
D10*
X46000000Y-35500000D03*
D11*
X46000000Y-35500000D03*
D12*
X-2900000Y-11325000D03*
X-2900000Y-9500000D03*
D13*
X22790000Y33310000D03*
X30410000Y33310000D03*
D14*
X22790000Y35850000D03*
D13*
X30410000Y30770000D03*
X22790000Y30770000D03*
X30410000Y35850000D03*
D15*
X-20517500Y22110000D03*
X-22342500Y22110000D03*
D13*
X33560000Y33310000D03*
X41180000Y33310000D03*
D14*
X33560000Y35850000D03*
D13*
X41180000Y30770000D03*
X33560000Y30770000D03*
X41180000Y35850000D03*
D12*
X-21081000Y32566500D03*
X-21081000Y34391500D03*
D16*
X16700000Y10225000D03*
X16700000Y8400000D03*
D17*
X32375000Y27300000D03*
X34200000Y27300000D03*
D12*
X33560000Y38265000D03*
X33560000Y40090000D03*
D18*
X-25031000Y37541500D03*
X-23131000Y37541500D03*
X-24081000Y39416500D03*
D19*
X-11400000Y33300000D03*
D20*
X-11400000Y34600000D03*
D13*
X-36550000Y-1940000D03*
X-36550000Y600000D03*
X-36550000Y8220000D03*
X-36550000Y13300000D03*
D15*
X-45068500Y26700000D03*
X-46893500Y26700000D03*
D21*
X-46881000Y30100000D03*
X-45081000Y30100000D03*
X-45081000Y31050000D03*
X-46881000Y31050000D03*
D17*
X24287500Y26400000D03*
X26112500Y26400000D03*
D22*
X-41925000Y-17690000D03*
X-46075000Y-17690000D03*
D16*
X-27081000Y35800000D03*
X-27081000Y33975000D03*
D23*
X-43912500Y-11200000D03*
X-40987500Y-11200000D03*
D24*
X-24730000Y27040000D03*
X-26000000Y27040000D03*
X-27270000Y27040000D03*
X-28540000Y27040000D03*
X-28540000Y22090000D03*
X-27270000Y22090000D03*
X-26000000Y22090000D03*
X-24730000Y22090000D03*
D12*
X38680000Y38265000D03*
X38680000Y40090000D03*
D25*
X32950000Y19990000D03*
X34220000Y19990000D03*
X35490000Y19990000D03*
X36760000Y19990000D03*
X38030000Y19990000D03*
X39300000Y19990000D03*
X40570000Y19990000D03*
X41840000Y19990000D03*
X41840000Y24940000D03*
X40570000Y24940000D03*
X39300000Y24940000D03*
X38030000Y24940000D03*
X36760000Y24940000D03*
X35490000Y24940000D03*
X34220000Y24940000D03*
X32950000Y24940000D03*
D26*
X-40000000Y28937500D03*
X-40000000Y31862500D03*
D18*
X-25031000Y32541500D03*
X-23131000Y32541500D03*
X-24081000Y34416500D03*
D16*
X-21081000Y39391500D03*
X-21081000Y37566500D03*
D27*
X-16480000Y22460000D03*
D28*
X-13940000Y22460000D03*
X-11400000Y22460000D03*
X-8860000Y22460000D03*
X-6320000Y22460000D03*
X-3780000Y22460000D03*
X-1240000Y22460000D03*
X1300000Y22460000D03*
X3840000Y22460000D03*
X6380000Y22460000D03*
X8920000Y22460000D03*
X11460000Y22460000D03*
X14000000Y22460000D03*
X16540000Y22460000D03*
X16540000Y37700000D03*
X14000000Y37700000D03*
X11460000Y37700000D03*
X8920000Y37700000D03*
X6380000Y37700000D03*
X3840000Y37700000D03*
X1300000Y37700000D03*
X-1240000Y37700000D03*
X-3780000Y37700000D03*
X-6320000Y37700000D03*
X-8860000Y37700000D03*
X-11400000Y37700000D03*
X-13940000Y37700000D03*
X-16480000Y37700000D03*
D29*
X-43740000Y22670000D03*
D30*
X-41200000Y22670000D03*
X-38660000Y22670000D03*
X-36120000Y22670000D03*
X-33580000Y22670000D03*
D12*
X22790000Y38265000D03*
X22790000Y40090000D03*
D17*
X-22342500Y25300000D03*
X-20517500Y25300000D03*
D12*
X30410000Y38265000D03*
X30410000Y40090000D03*
D31*
X-32700000Y-11200000D03*
D32*
X-32700000Y-13740000D03*
X-32700000Y-16320000D03*
X-32700000Y-23900000D03*
X-32700000Y-26440000D03*
D15*
X47012500Y29900000D03*
X45187500Y29900000D03*
D33*
X-33560000Y37200000D03*
D34*
X-36090000Y37200000D03*
X-36090000Y29580000D03*
X-33550000Y29580000D03*
D12*
X36130000Y38265000D03*
X36130000Y40090000D03*
D35*
X25715000Y-6785000D03*
D36*
X25715000Y-4245000D03*
X25715000Y-1705000D03*
X25715000Y835000D03*
X25715000Y3375000D03*
X25715000Y5915000D03*
X25715000Y8455000D03*
X25715000Y10995000D03*
X2855000Y10995000D03*
X2855000Y8455000D03*
X2855000Y5915000D03*
X2855000Y3375000D03*
X2855000Y835000D03*
X2855000Y-1705000D03*
X2855000Y-4245000D03*
D37*
X2855000Y-6785000D03*
D17*
X-16112500Y40100000D03*
X-14287500Y40100000D03*
D23*
X-43912500Y4700000D03*
X-40987500Y4700000D03*
D12*
X25700000Y-11325000D03*
X25700000Y-9500000D03*
X-27081000Y37566500D03*
X-27081000Y39391500D03*
D35*
X-2900000Y-6740000D03*
D36*
X-2900000Y-4200000D03*
X-2900000Y-1660000D03*
X-2900000Y880000D03*
X-2900000Y3420000D03*
X-2900000Y5960000D03*
X-2900000Y8500000D03*
X-2900000Y11040000D03*
X-25760000Y11040000D03*
X-25760000Y8500000D03*
X-25760000Y5960000D03*
X-25760000Y3420000D03*
X-25760000Y880000D03*
X-25760000Y-1660000D03*
X-25760000Y-4200000D03*
D37*
X-25760000Y-6740000D03*
D29*
X2900000Y-39760000D03*
D30*
X5440000Y-39760000D03*
X7980000Y-39760000D03*
X10520000Y-39760000D03*
X13060000Y-39760000D03*
X15600000Y-39760000D03*
X18140000Y-39760000D03*
X20680000Y-39760000D03*
X23220000Y-39760000D03*
X25760000Y-39760000D03*
D22*
X-41925000Y-1940000D03*
X-46075000Y-1940000D03*
D12*
X27860000Y38265000D03*
X27860000Y40090000D03*
X25310000Y38265000D03*
X25310000Y40090000D03*
X41180000Y38265000D03*
X41180000Y40090000D03*
D16*
X19000000Y10225000D03*
X19000000Y8400000D03*
D29*
X-25750000Y-39760000D03*
D30*
X-23210000Y-39760000D03*
X-20670000Y-39760000D03*
X-18130000Y-39760000D03*
X-15590000Y-39760000D03*
X-13050000Y-39760000D03*
X-10510000Y-39760000D03*
X-7970000Y-39760000D03*
X-5430000Y-39760000D03*
X-2890000Y-39760000D03*
D38*
X47175000Y26975000D03*
X47175000Y22825000D03*
X45025000Y26975000D03*
X45025000Y22825000D03*
D12*
X21800000Y26400000D03*
X21800000Y28225000D03*
M02*
