<?xml version="1.0" standalone="no"?>
 <!DOCTYPE svg PUBLIC "-//W3C//DTD SVG 1.1//EN" 
 "http://www.w3.org/Graphics/SVG/1.1/DTD/svg11.dtd"> 
<svg
  xmlns:svg="http://www.w3.org/2000/svg"
  xmlns="http://www.w3.org/2000/svg"
  xmlns:xlink="http://www.w3.org/1999/xlink"
  version="1.1"
  width="29.700220cm" height="21.000720cm" viewBox="0 0 116930 82680">
<title>SVG Picture created as NOP100-F_Adhes.svg date 2022/12/22 13:06:36 </title>
  <desc>Picture generated by PCBNEW </desc>
<g style="fill:#000000; fill-opacity:1;stroke:#000000; stroke-opacity:1;
stroke-linecap:round; stroke-linejoin:round;"
 transform="translate(0 0) scale(1 1)">
</g>
<g style="fill:#000000; fill-opacity:0.0; 
stroke:#000000; stroke-width:-0.000393701; stroke-opacity:1; 
stroke-linecap:round; stroke-linejoin:round;">
</g>
<g style="fill:#000000; fill-opacity:0.0; 
stroke:#000000; stroke-width:39.3701; stroke-opacity:1; 
stroke-linecap:round; stroke-linejoin:round;">
</g>
<g style="fill:#000000; fill-opacity:0.0; 
stroke:#000000; stroke-width:59.0551; stroke-opacity:1; 
stroke-linecap:round; stroke-linejoin:round;">
<rect x="69685.9" y="65357.2" width="42519.7" height="12598.4" rx="0" />
</g>
<g style="fill:#000000; fill-opacity:0.0; 
stroke:#000000; stroke-width:39.3701; stroke-opacity:1; 
stroke-linecap:round; stroke-linejoin:round;">
</g>
<g style="fill:#000000; fill-opacity:0.0; 
stroke:#000000; stroke-width:59.0551; stroke-opacity:1; 
stroke-linecap:round; stroke-linejoin:round;">
<rect x="3937.01" y="3937.01" width="109056" height="74806" rx="0" />
</g>
<g style="fill:#000000; fill-opacity:0.0; 
stroke:#000000; stroke-width:39.3701; stroke-opacity:1; 
stroke-linecap:round; stroke-linejoin:round;">
</g>
<g style="fill:#000000; fill-opacity:0.0; 
stroke:#000000; stroke-width:59.0551; stroke-opacity:1; 
stroke-linecap:round; stroke-linejoin:round;">
<rect x="4724.41" y="4724.41" width="107481" height="73231.2" rx="0" />
</g>
<g style="fill:#000000; fill-opacity:0.0; 
stroke:#000000; stroke-width:39.3701; stroke-opacity:1; 
stroke-linecap:round; stroke-linejoin:round;">
</g>
<g style="fill:#000000; fill-opacity:0.0; 
stroke:#000000; stroke-width:59.0551; stroke-opacity:1; 
stroke-linecap:round; stroke-linejoin:round;">
<path d="M23622 4724
L23622 3937
" />
</g>
<g style="fill:#000000; fill-opacity:0.0; 
stroke:#000000; stroke-width:39.3701; stroke-opacity:1; 
stroke-linecap:round; stroke-linejoin:round;">
</g>
<g style="fill:#000000; fill-opacity:0.0; 
stroke:#000000; stroke-width:59.0551; stroke-opacity:1; 
stroke-linecap:round; stroke-linejoin:round;">
<path d="M43307 4724
L43307 3937
" />
</g>
<g style="fill:#000000; fill-opacity:0.0; 
stroke:#000000; stroke-width:39.3701; stroke-opacity:1; 
stroke-linecap:round; stroke-linejoin:round;">
</g>
<g style="fill:#000000; fill-opacity:0.0; 
stroke:#000000; stroke-width:59.0551; stroke-opacity:1; 
stroke-linecap:round; stroke-linejoin:round;">
<path d="M62992 4724
L62992 3937
" />
</g>
<g style="fill:#000000; fill-opacity:0.0; 
stroke:#000000; stroke-width:39.3701; stroke-opacity:1; 
stroke-linecap:round; stroke-linejoin:round;">
</g>
<g style="fill:#000000; fill-opacity:0.0; 
stroke:#000000; stroke-width:59.0551; stroke-opacity:1; 
stroke-linecap:round; stroke-linejoin:round;">
<path d="M82677 4724
L82677 3937
" />
</g>
<g style="fill:#000000; fill-opacity:0.0; 
stroke:#000000; stroke-width:39.3701; stroke-opacity:1; 
stroke-linecap:round; stroke-linejoin:round;">
</g>
<g style="fill:#000000; fill-opacity:0.0; 
stroke:#000000; stroke-width:59.0551; stroke-opacity:1; 
stroke-linecap:round; stroke-linejoin:round;">
<path d="M102362 4724
L102362 3937
" />
</g>
<g style="fill:#000000; fill-opacity:0.0; 
stroke:#000000; stroke-width:39.3701; stroke-opacity:1; 
stroke-linecap:round; stroke-linejoin:round;">
</g>
<g style="fill:#000000; fill-opacity:0.0; 
stroke:#000000; stroke-width:59.0551; stroke-opacity:1; 
stroke-linecap:round; stroke-linejoin:round;">
<text x="13779.5" y="4586.61"
textLength="487.439" font-size="682.415" lengthAdjust="spacingAndGlyphs"
text-anchor="start" opacity="0">1</text>
<path d="M14199 4562
L13906 4562
" />
<path d="M14052 4562
L14052 4050
L14004 4123
L13955 4172
L13906 4196
" />
</g>
<g style="fill:#000000; fill-opacity:0.0; 
stroke:#000000; stroke-width:39.3701; stroke-opacity:1; 
stroke-linecap:round; stroke-linejoin:round;">
</g>
<g style="fill:#000000; fill-opacity:0.0; 
stroke:#000000; stroke-width:59.0551; stroke-opacity:1; 
stroke-linecap:round; stroke-linejoin:round;">
<text x="33464.6" y="4586.61"
textLength="546.494" font-size="682.415" lengthAdjust="spacingAndGlyphs"
text-anchor="start" opacity="0">2</text>
<path d="M33591 4099
L33615 4074
L33664 4050
L33786 4050
L33835 4074
L33859 4099
L33884 4147
L33884 4196
L33859 4269
L33567 4562
L33884 4562
" />
</g>
<g style="fill:#000000; fill-opacity:0.0; 
stroke:#000000; stroke-width:39.3701; stroke-opacity:1; 
stroke-linecap:round; stroke-linejoin:round;">
</g>
<g style="fill:#000000; fill-opacity:0.0; 
stroke:#000000; stroke-width:59.0551; stroke-opacity:1; 
stroke-linecap:round; stroke-linejoin:round;">
<text x="53149.6" y="4586.61"
textLength="546.494" font-size="682.415" lengthAdjust="spacingAndGlyphs"
text-anchor="start" opacity="0">3</text>
<path d="M53252 4050
L53569 4050
L53398 4245
L53471 4245
L53520 4269
L53544 4294
L53569 4342
L53569 4464
L53544 4513
L53520 4537
L53471 4562
L53325 4562
L53276 4537
L53252 4513
" />
</g>
<g style="fill:#000000; fill-opacity:0.0; 
stroke:#000000; stroke-width:39.3701; stroke-opacity:1; 
stroke-linecap:round; stroke-linejoin:round;">
</g>
<g style="fill:#000000; fill-opacity:0.0; 
stroke:#000000; stroke-width:59.0551; stroke-opacity:1; 
stroke-linecap:round; stroke-linejoin:round;">
<text x="72834.6" y="4586.61"
textLength="546.494" font-size="682.415" lengthAdjust="spacingAndGlyphs"
text-anchor="start" opacity="0">4</text>
<path d="M73205 4221
L73205 4562
" />
<path d="M73083 4026
L72961 4391
L73278 4391
" />
</g>
<g style="fill:#000000; fill-opacity:0.0; 
stroke:#000000; stroke-width:39.3701; stroke-opacity:1; 
stroke-linecap:round; stroke-linejoin:round;">
</g>
<g style="fill:#000000; fill-opacity:0.0; 
stroke:#000000; stroke-width:59.0551; stroke-opacity:1; 
stroke-linecap:round; stroke-linejoin:round;">
<text x="92519.7" y="4586.61"
textLength="546.494" font-size="682.415" lengthAdjust="spacingAndGlyphs"
text-anchor="start" opacity="0">5</text>
<path d="M92914 4050
L92671 4050
L92646 4294
L92671 4269
L92719 4245
L92841 4245
L92890 4269
L92914 4294
L92939 4342
L92939 4464
L92914 4513
L92890 4537
L92841 4562
L92719 4562
L92671 4537
L92646 4513
" />
</g>
<g style="fill:#000000; fill-opacity:0.0; 
stroke:#000000; stroke-width:39.3701; stroke-opacity:1; 
stroke-linecap:round; stroke-linejoin:round;">
</g>
<g style="fill:#000000; fill-opacity:0.0; 
stroke:#000000; stroke-width:59.0551; stroke-opacity:1; 
stroke-linecap:round; stroke-linejoin:round;">
<text x="112205" y="4586.61"
textLength="546.494" font-size="682.415" lengthAdjust="spacingAndGlyphs"
text-anchor="start" opacity="0">6</text>
<path d="M112575 4050
L112477 4050
L112429 4074
L112404 4099
L112356 4172
L112331 4269
L112331 4464
L112356 4513
L112380 4537
L112429 4562
L112526 4562
L112575 4537
L112599 4513
L112624 4464
L112624 4342
L112599 4294
L112575 4269
L112526 4245
L112429 4245
L112380 4269
L112356 4294
L112331 4342
" />
</g>
<g style="fill:#000000; fill-opacity:0.0; 
stroke:#000000; stroke-width:39.3701; stroke-opacity:1; 
stroke-linecap:round; stroke-linejoin:round;">
</g>
<g style="fill:#000000; fill-opacity:0.0; 
stroke:#000000; stroke-width:59.0551; stroke-opacity:1; 
stroke-linecap:round; stroke-linejoin:round;">
<path d="M23622 77955
L23622 78742
" />
</g>
<g style="fill:#000000; fill-opacity:0.0; 
stroke:#000000; stroke-width:39.3701; stroke-opacity:1; 
stroke-linecap:round; stroke-linejoin:round;">
</g>
<g style="fill:#000000; fill-opacity:0.0; 
stroke:#000000; stroke-width:59.0551; stroke-opacity:1; 
stroke-linecap:round; stroke-linejoin:round;">
<path d="M43307 77955
L43307 78742
" />
</g>
<g style="fill:#000000; fill-opacity:0.0; 
stroke:#000000; stroke-width:39.3701; stroke-opacity:1; 
stroke-linecap:round; stroke-linejoin:round;">
</g>
<g style="fill:#000000; fill-opacity:0.0; 
stroke:#000000; stroke-width:59.0551; stroke-opacity:1; 
stroke-linecap:round; stroke-linejoin:round;">
<path d="M62992 77955
L62992 78742
" />
</g>
<g style="fill:#000000; fill-opacity:0.0; 
stroke:#000000; stroke-width:39.3701; stroke-opacity:1; 
stroke-linecap:round; stroke-linejoin:round;">
</g>
<g style="fill:#000000; fill-opacity:0.0; 
stroke:#000000; stroke-width:59.0551; stroke-opacity:1; 
stroke-linecap:round; stroke-linejoin:round;">
<path d="M82677 77955
L82677 78742
" />
</g>
<g style="fill:#000000; fill-opacity:0.0; 
stroke:#000000; stroke-width:39.3701; stroke-opacity:1; 
stroke-linecap:round; stroke-linejoin:round;">
</g>
<g style="fill:#000000; fill-opacity:0.0; 
stroke:#000000; stroke-width:59.0551; stroke-opacity:1; 
stroke-linecap:round; stroke-linejoin:round;">
<path d="M102362 77955
L102362 78742
" />
</g>
<g style="fill:#000000; fill-opacity:0.0; 
stroke:#000000; stroke-width:39.3701; stroke-opacity:1; 
stroke-linecap:round; stroke-linejoin:round;">
</g>
<g style="fill:#000000; fill-opacity:0.0; 
stroke:#000000; stroke-width:59.0551; stroke-opacity:1; 
stroke-linecap:round; stroke-linejoin:round;">
<text x="13779.5" y="78605.2"
textLength="546.494" font-size="682.415" lengthAdjust="spacingAndGlyphs"
text-anchor="start" opacity="0">1</text>
<path d="M14199 78580
L13906 78580
" />
<path d="M14052 78580
L14052 78069
L14004 78142
L13955 78190
L13906 78215
" />
</g>
<g style="fill:#000000; fill-opacity:0.0; 
stroke:#000000; stroke-width:39.3701; stroke-opacity:1; 
stroke-linecap:round; stroke-linejoin:round;">
</g>
<g style="fill:#000000; fill-opacity:0.0; 
stroke:#000000; stroke-width:59.0551; stroke-opacity:1; 
stroke-linecap:round; stroke-linejoin:round;">
<text x="33464.6" y="78605.2"
textLength="546.494" font-size="682.415" lengthAdjust="spacingAndGlyphs"
text-anchor="start" opacity="0">2</text>
<path d="M33591 78117
L33615 78093
L33664 78069
L33786 78069
L33835 78093
L33859 78117
L33884 78166
L33884 78215
L33859 78288
L33567 78580
L33884 78580
" />
</g>
<g style="fill:#000000; fill-opacity:0.0; 
stroke:#000000; stroke-width:39.3701; stroke-opacity:1; 
stroke-linecap:round; stroke-linejoin:round;">
</g>
<g style="fill:#000000; fill-opacity:0.0; 
stroke:#000000; stroke-width:59.0551; stroke-opacity:1; 
stroke-linecap:round; stroke-linejoin:round;">
<text x="53149.6" y="78605.2"
textLength="546.494" font-size="682.415" lengthAdjust="spacingAndGlyphs"
text-anchor="start" opacity="0">3</text>
<path d="M53252 78069
L53569 78069
L53398 78263
L53471 78263
L53520 78288
L53544 78312
L53569 78361
L53569 78483
L53544 78532
L53520 78556
L53471 78580
L53325 78580
L53276 78556
L53252 78532
" />
</g>
<g style="fill:#000000; fill-opacity:0.0; 
stroke:#000000; stroke-width:39.3701; stroke-opacity:1; 
stroke-linecap:round; stroke-linejoin:round;">
</g>
<g style="fill:#000000; fill-opacity:0.0; 
stroke:#000000; stroke-width:59.0551; stroke-opacity:1; 
stroke-linecap:round; stroke-linejoin:round;">
<text x="72834.6" y="78605.2"
textLength="546.494" font-size="682.415" lengthAdjust="spacingAndGlyphs"
text-anchor="start" opacity="0">4</text>
<path d="M73205 78239
L73205 78580
" />
<path d="M73083 78044
L72961 78410
L73278 78410
" />
</g>
<g style="fill:#000000; fill-opacity:0.0; 
stroke:#000000; stroke-width:39.3701; stroke-opacity:1; 
stroke-linecap:round; stroke-linejoin:round;">
</g>
<g style="fill:#000000; fill-opacity:0.0; 
stroke:#000000; stroke-width:59.0551; stroke-opacity:1; 
stroke-linecap:round; stroke-linejoin:round;">
<text x="92519.7" y="78605.2"
textLength="546.494" font-size="682.415" lengthAdjust="spacingAndGlyphs"
text-anchor="start" opacity="0">5</text>
<path d="M92914 78069
L92671 78069
L92646 78312
L92671 78288
L92719 78263
L92841 78263
L92890 78288
L92914 78312
L92939 78361
L92939 78483
L92914 78532
L92890 78556
L92841 78580
L92719 78580
L92671 78556
L92646 78532
" />
</g>
<g style="fill:#000000; fill-opacity:0.0; 
stroke:#000000; stroke-width:39.3701; stroke-opacity:1; 
stroke-linecap:round; stroke-linejoin:round;">
</g>
<g style="fill:#000000; fill-opacity:0.0; 
stroke:#000000; stroke-width:59.0551; stroke-opacity:1; 
stroke-linecap:round; stroke-linejoin:round;">
<text x="112205" y="78605.2"
textLength="546.494" font-size="682.415" lengthAdjust="spacingAndGlyphs"
text-anchor="start" opacity="0">6</text>
<path d="M112575 78069
L112477 78069
L112429 78093
L112404 78117
L112356 78190
L112331 78288
L112331 78483
L112356 78532
L112380 78556
L112429 78580
L112526 78580
L112575 78556
L112599 78532
L112624 78483
L112624 78361
L112599 78312
L112575 78288
L112526 78263
L112429 78263
L112380 78288
L112356 78312
L112331 78361
" />
</g>
<g style="fill:#000000; fill-opacity:0.0; 
stroke:#000000; stroke-width:39.3701; stroke-opacity:1; 
stroke-linecap:round; stroke-linejoin:round;">
</g>
<g style="fill:#000000; fill-opacity:0.0; 
stroke:#000000; stroke-width:59.0551; stroke-opacity:1; 
stroke-linecap:round; stroke-linejoin:round;">
<path d="M3937 23622
L4724 23622
" />
</g>
<g style="fill:#000000; fill-opacity:0.0; 
stroke:#000000; stroke-width:39.3701; stroke-opacity:1; 
stroke-linecap:round; stroke-linejoin:round;">
</g>
<g style="fill:#000000; fill-opacity:0.0; 
stroke:#000000; stroke-width:59.0551; stroke-opacity:1; 
stroke-linecap:round; stroke-linejoin:round;">
<path d="M3937 43307
L4724 43307
" />
</g>
<g style="fill:#000000; fill-opacity:0.0; 
stroke:#000000; stroke-width:39.3701; stroke-opacity:1; 
stroke-linecap:round; stroke-linejoin:round;">
</g>
<g style="fill:#000000; fill-opacity:0.0; 
stroke:#000000; stroke-width:59.0551; stroke-opacity:1; 
stroke-linecap:round; stroke-linejoin:round;">
<path d="M3937 62992
L4724 62992
" />
</g>
<g style="fill:#000000; fill-opacity:0.0; 
stroke:#000000; stroke-width:39.3701; stroke-opacity:1; 
stroke-linecap:round; stroke-linejoin:round;">
</g>
<g style="fill:#000000; fill-opacity:0.0; 
stroke:#000000; stroke-width:59.0551; stroke-opacity:1; 
stroke-linecap:round; stroke-linejoin:round;">
<text x="4330.71" y="14035.4"
textLength="497.75" font-size="682.415" lengthAdjust="spacingAndGlyphs"
text-anchor="middle" opacity="0">A</text>
<path d="M4208 13864
L4452 13864
" />
<path d="M4160 14011
L4330 13499
L4501 14011
" />
</g>
<g style="fill:#000000; fill-opacity:0.0; 
stroke:#000000; stroke-width:39.3701; stroke-opacity:1; 
stroke-linecap:round; stroke-linejoin:round;">
</g>
<g style="fill:#000000; fill-opacity:0.0; 
stroke:#000000; stroke-width:59.0551; stroke-opacity:1; 
stroke-linecap:round; stroke-linejoin:round;">
<text x="4330.71" y="33720.5"
textLength="570.866" font-size="682.415" lengthAdjust="spacingAndGlyphs"
text-anchor="middle" opacity="0">B</text>
<path d="M4367 33428
L4440 33452
L4464 33476
L4489 33525
L4489 33598
L4464 33647
L4440 33671
L4391 33696
L4196 33696
L4196 33184
L4367 33184
L4416 33208
L4440 33233
L4464 33281
L4464 33330
L4440 33379
L4416 33403
L4367 33428
L4196 33428
" />
</g>
<g style="fill:#000000; fill-opacity:0.0; 
stroke:#000000; stroke-width:39.3701; stroke-opacity:1; 
stroke-linecap:round; stroke-linejoin:round;">
</g>
<g style="fill:#000000; fill-opacity:0.0; 
stroke:#000000; stroke-width:59.0551; stroke-opacity:1; 
stroke-linecap:round; stroke-linejoin:round;">
<text x="4330.71" y="53405.5"
textLength="570.866" font-size="682.415" lengthAdjust="spacingAndGlyphs"
text-anchor="middle" opacity="0">C</text>
<path d="M4489 53332
L4464 53356
L4391 53381
L4342 53381
L4269 53356
L4221 53308
L4196 53259
L4172 53161
L4172 53088
L4196 52991
L4221 52942
L4269 52893
L4342 52869
L4391 52869
L4464 52893
L4489 52918
" />
</g>
<g style="fill:#000000; fill-opacity:0.0; 
stroke:#000000; stroke-width:39.3701; stroke-opacity:1; 
stroke-linecap:round; stroke-linejoin:round;">
</g>
<g style="fill:#000000; fill-opacity:0.0; 
stroke:#000000; stroke-width:59.0551; stroke-opacity:1; 
stroke-linecap:round; stroke-linejoin:round;">
<text x="4330.71" y="73090.6"
textLength="570.866" font-size="682.415" lengthAdjust="spacingAndGlyphs"
text-anchor="middle" opacity="0">D</text>
<path d="M4196 73066
L4196 72554
L4318 72554
L4391 72578
L4440 72627
L4464 72676
L4489 72773
L4489 72846
L4464 72944
L4440 72993
L4391 73041
L4318 73066
L4196 73066
" />
</g>
<g style="fill:#000000; fill-opacity:0.0; 
stroke:#000000; stroke-width:39.3701; stroke-opacity:1; 
stroke-linecap:round; stroke-linejoin:round;">
</g>
<g style="fill:#000000; fill-opacity:0.0; 
stroke:#000000; stroke-width:59.0551; stroke-opacity:1; 
stroke-linecap:round; stroke-linejoin:round;">
<path d="M112992 23622
L112205 23622
" />
</g>
<g style="fill:#000000; fill-opacity:0.0; 
stroke:#000000; stroke-width:39.3701; stroke-opacity:1; 
stroke-linecap:round; stroke-linejoin:round;">
</g>
<g style="fill:#000000; fill-opacity:0.0; 
stroke:#000000; stroke-width:59.0551; stroke-opacity:1; 
stroke-linecap:round; stroke-linejoin:round;">
<path d="M112992 43307
L112205 43307
" />
</g>
<g style="fill:#000000; fill-opacity:0.0; 
stroke:#000000; stroke-width:39.3701; stroke-opacity:1; 
stroke-linecap:round; stroke-linejoin:round;">
</g>
<g style="fill:#000000; fill-opacity:0.0; 
stroke:#000000; stroke-width:59.0551; stroke-opacity:1; 
stroke-linecap:round; stroke-linejoin:round;">
<path d="M112992 62992
L112205 62992
" />
</g>
<g style="fill:#000000; fill-opacity:0.0; 
stroke:#000000; stroke-width:39.3701; stroke-opacity:1; 
stroke-linecap:round; stroke-linejoin:round;">
</g>
<g style="fill:#000000; fill-opacity:0.0; 
stroke:#000000; stroke-width:59.0551; stroke-opacity:1; 
stroke-linecap:round; stroke-linejoin:round;">
<text x="112599" y="14035.4"
textLength="497.75" font-size="682.415" lengthAdjust="spacingAndGlyphs"
text-anchor="middle" opacity="0">A</text>
<path d="M112477 13864
L112721 13864
" />
<path d="M112428 14011
L112599 13499
L112769 14011
" />
</g>
<g style="fill:#000000; fill-opacity:0.0; 
stroke:#000000; stroke-width:39.3701; stroke-opacity:1; 
stroke-linecap:round; stroke-linejoin:round;">
</g>
<g style="fill:#000000; fill-opacity:0.0; 
stroke:#000000; stroke-width:59.0551; stroke-opacity:1; 
stroke-linecap:round; stroke-linejoin:round;">
<text x="112599" y="33720.5"
textLength="570.866" font-size="682.415" lengthAdjust="spacingAndGlyphs"
text-anchor="middle" opacity="0">B</text>
<path d="M112635 33428
L112708 33452
L112733 33476
L112757 33525
L112757 33598
L112733 33647
L112708 33671
L112660 33696
L112465 33696
L112465 33184
L112635 33184
L112684 33208
L112708 33233
L112733 33281
L112733 33330
L112708 33379
L112684 33403
L112635 33428
L112465 33428
" />
</g>
<g style="fill:#000000; fill-opacity:0.0; 
stroke:#000000; stroke-width:39.3701; stroke-opacity:1; 
stroke-linecap:round; stroke-linejoin:round;">
</g>
<g style="fill:#000000; fill-opacity:0.0; 
stroke:#000000; stroke-width:59.0551; stroke-opacity:1; 
stroke-linecap:round; stroke-linejoin:round;">
<text x="112599" y="53405.5"
textLength="570.866" font-size="682.415" lengthAdjust="spacingAndGlyphs"
text-anchor="middle" opacity="0">C</text>
<path d="M112757 53332
L112733 53356
L112660 53381
L112611 53381
L112538 53356
L112489 53308
L112465 53259
L112440 53161
L112440 53088
L112465 52991
L112489 52942
L112538 52893
L112611 52869
L112660 52869
L112733 52893
L112757 52918
" />
</g>
<g style="fill:#000000; fill-opacity:0.0; 
stroke:#000000; stroke-width:39.3701; stroke-opacity:1; 
stroke-linecap:round; stroke-linejoin:round;">
</g>
<g style="fill:#000000; fill-opacity:0.0; 
stroke:#000000; stroke-width:59.0551; stroke-opacity:1; 
stroke-linecap:round; stroke-linejoin:round;">
<text x="112599" y="73090.6"
textLength="570.866" font-size="682.415" lengthAdjust="spacingAndGlyphs"
text-anchor="middle" opacity="0">D</text>
<path d="M112465 73066
L112465 72554
L112587 72554
L112660 72578
L112708 72627
L112733 72676
L112757 72773
L112757 72846
L112733 72944
L112708 72993
L112660 73041
L112587 73066
L112465 73066
" />
</g>
<g style="fill:#000000; fill-opacity:0.0; 
stroke:#000000; stroke-width:39.3701; stroke-opacity:1; 
stroke-linecap:round; stroke-linejoin:round;">
</g>
<g style="fill:#000000; fill-opacity:0.0; 
stroke:#000000; stroke-width:59.0551; stroke-opacity:1; 
stroke-linecap:round; stroke-linejoin:round;">
<text x="78741" y="76321.7"
textLength="8720.47" font-size="787.402" lengthAdjust="spacingAndGlyphs"
text-anchor="start" opacity="0">Date: 2020-09-16</text>
<path d="M78911 76293
L78911 75703
L79051 75703
L79136 75731
L79192 75787
L79220 75843
L79248 75956
L79248 76040
L79220 76153
L79192 76209
L79136 76265
L79051 76293
L78911 76293
" />
<path d="M79754 76293
L79754 75984
L79726 75928
L79670 75899
L79557 75899
L79501 75928
" />
<path d="M79754 76265
L79698 76293
L79557 76293
L79501 76265
L79473 76209
L79473 76153
L79501 76096
L79557 76068
L79698 76068
L79754 76040
" />
<path d="M79951 75899
L80176 75899
" />
<path d="M80036 75703
L80036 76209
L80064 76265
L80120 76293
L80176 76293
" />
<path d="M80598 76265
L80542 76293
L80429 76293
L80373 76265
L80345 76209
L80345 75984
L80373 75928
L80429 75899
L80542 75899
L80598 75928
L80626 75984
L80626 76040
L80345 76096
" />
<path d="M80879 76237
L80907 76265
L80879 76293
L80851 76265
L80879 76237
L80879 76293
" />
<path d="M80879 75928
L80907 75956
L80879 75984
L80851 75956
L80879 75928
L80879 75984
" />
<path d="M81582 75759
L81610 75731
L81667 75703
L81807 75703
L81863 75731
L81892 75759
L81920 75815
L81920 75871
L81892 75956
L81554 76293
L81920 76293
" />
<path d="M82285 75703
L82341 75703
L82398 75731
L82426 75759
L82454 75815
L82482 75928
L82482 76068
L82454 76181
L82426 76237
L82398 76265
L82341 76293
L82285 76293
L82229 76265
L82201 76237
L82173 76181
L82145 76068
L82145 75928
L82173 75815
L82201 75759
L82229 75731
L82285 75703
" />
<path d="M82707 75759
L82735 75731
L82791 75703
L82932 75703
L82988 75731
L83016 75759
L83045 75815
L83045 75871
L83016 75956
L82679 76293
L83045 76293
" />
<path d="M83410 75703
L83466 75703
L83523 75731
L83551 75759
L83579 75815
L83607 75928
L83607 76068
L83579 76181
L83551 76237
L83523 76265
L83466 76293
L83410 76293
L83354 76265
L83326 76237
L83298 76181
L83269 76068
L83269 75928
L83298 75815
L83326 75759
L83354 75731
L83410 75703
" />
<path d="M83860 76068
L84310 76068
" />
<path d="M84704 75703
L84760 75703
L84816 75731
L84844 75759
L84872 75815
L84901 75928
L84901 76068
L84872 76181
L84844 76237
L84816 76265
L84760 76293
L84704 76293
L84647 76265
L84619 76237
L84591 76181
L84563 76068
L84563 75928
L84591 75815
L84619 75759
L84647 75731
L84704 75703
" />
<path d="M85182 76293
L85294 76293
L85350 76265
L85379 76237
L85435 76153
L85463 76040
L85463 75815
L85435 75759
L85407 75731
L85350 75703
L85238 75703
L85182 75731
L85154 75759
L85126 75815
L85126 75956
L85154 76012
L85182 76040
L85238 76068
L85350 76068
L85407 76040
L85435 76012
L85463 75956
" />
<path d="M85716 76068
L86166 76068
" />
<path d="M86757 76293
L86419 76293
" />
<path d="M86588 76293
L86588 75703
L86532 75787
L86475 75843
L86419 75871
" />
<path d="M87263 75703
L87150 75703
L87094 75731
L87066 75759
L87010 75843
L86982 75956
L86982 76181
L87010 76237
L87038 76265
L87094 76293
L87206 76293
L87263 76265
L87291 76237
L87319 76181
L87319 76040
L87291 75984
L87263 75956
L87206 75928
L87094 75928
L87038 75956
L87010 75984
L86982 76040
" />
</g>
<g style="fill:#000000; fill-opacity:0.0; 
stroke:#000000; stroke-width:39.3701; stroke-opacity:1; 
stroke-linecap:round; stroke-linejoin:round;">
</g>
<g style="fill:#000000; fill-opacity:0.0; 
stroke:#000000; stroke-width:59.0551; stroke-opacity:1; 
stroke-linecap:round; stroke-linejoin:round;">
<path d="M69685 76577
L112205 76577
" />
</g>
<g style="fill:#000000; fill-opacity:0.0; 
stroke:#000000; stroke-width:39.3701; stroke-opacity:1; 
stroke-linecap:round; stroke-linejoin:round;">
</g>
<g style="fill:#000000; fill-opacity:0.0; 
stroke:#000000; stroke-width:59.0551; stroke-opacity:1; 
stroke-linecap:round; stroke-linejoin:round;">
<text x="70079.6" y="77424.1"
textLength="25790.2" font-size="787.402" lengthAdjust="spacingAndGlyphs"
text-anchor="start" opacity="0">KiCad E.D.A.  kicad 5.1.10-88a1d61d58~90~ubuntu20.04.1</text>
<path d="M70249 77395
L70249 76805
" />
<path d="M70587 77395
L70334 77058
" />
<path d="M70587 76805
L70249 77142
" />
<path d="M70840 77395
L70840 77002
" />
<path d="M70840 76805
L70812 76833
L70840 76861
L70868 76833
L70840 76805
L70840 76861
" />
<path d="M71458 77339
L71430 77367
L71346 77395
L71290 77395
L71205 77367
L71149 77311
L71121 77255
L71093 77142
L71093 77058
L71121 76946
L71149 76889
L71205 76833
L71290 76805
L71346 76805
L71430 76833
L71458 76861
" />
<path d="M71965 77395
L71965 77086
L71937 77030
L71880 77002
L71768 77002
L71712 77030
" />
<path d="M71965 77367
L71908 77395
L71768 77395
L71712 77367
L71683 77311
L71683 77255
L71712 77199
L71768 77171
L71908 77171
L71965 77142
" />
<path d="M72499 77395
L72499 76805
" />
<path d="M72499 77367
L72443 77395
L72330 77395
L72274 77367
L72246 77339
L72218 77283
L72218 77114
L72246 77058
L72274 77030
L72330 77002
L72443 77002
L72499 77030
" />
<path d="M73230 77086
L73427 77086
" />
<path d="M73511 77395
L73230 77395
L73230 76805
L73511 76805
" />
<path d="M73764 77339
L73793 77367
L73764 77395
L73736 77367
L73764 77339
L73764 77395
" />
<path d="M74046 77395
L74046 76805
L74186 76805
L74271 76833
L74327 76889
L74355 76946
L74383 77058
L74383 77142
L74355 77255
L74327 77311
L74271 77367
L74186 77395
L74046 77395
" />
<path d="M74636 77339
L74664 77367
L74636 77395
L74608 77367
L74636 77339
L74636 77395
" />
<path d="M74889 77227
L75171 77227
" />
<path d="M74833 77395
L75030 76805
L75227 77395
" />
<path d="M75424 77339
L75452 77367
L75424 77395
L75395 77367
L75424 77339
L75424 77395
" />
<path d="M76605 77395
L76605 76805
" />
<path d="M76661 77171
L76830 77395
" />
<path d="M76830 77002
L76605 77227
" />
<path d="M77083 77395
L77083 77002
" />
<path d="M77083 76805
L77055 76833
L77083 76861
L77111 76833
L77083 76805
L77083 76861
" />
<path d="M77617 77367
L77561 77395
L77448 77395
L77392 77367
L77364 77339
L77336 77283
L77336 77114
L77364 77058
L77392 77030
L77448 77002
L77561 77002
L77617 77030
" />
<path d="M78123 77395
L78123 77086
L78095 77030
L78039 77002
L77926 77002
L77870 77030
" />
<path d="M78123 77367
L78067 77395
L77926 77395
L77870 77367
L77842 77311
L77842 77255
L77870 77199
L77926 77171
L78067 77171
L78123 77142
" />
<path d="M78658 77395
L78658 76805
" />
<path d="M78658 77367
L78601 77395
L78489 77395
L78433 77367
L78404 77339
L78376 77283
L78376 77114
L78404 77058
L78433 77030
L78489 77002
L78601 77002
L78658 77030
" />
<path d="M79670 76805
L79389 76805
L79361 77086
L79389 77058
L79445 77030
L79586 77030
L79642 77058
L79670 77086
L79698 77142
L79698 77283
L79670 77339
L79642 77367
L79586 77395
L79445 77395
L79389 77367
L79361 77339
" />
<path d="M79951 77339
L79979 77367
L79951 77395
L79923 77367
L79951 77339
L79951 77395
" />
<path d="M80542 77395
L80204 77395
" />
<path d="M80373 77395
L80373 76805
L80317 76889
L80260 76946
L80204 76974
" />
<path d="M80795 77339
L80823 77367
L80795 77395
L80767 77367
L80795 77339
L80795 77395
" />
<path d="M81385 77395
L81048 77395
" />
<path d="M81217 77395
L81217 76805
L81160 76889
L81104 76946
L81048 76974
" />
<path d="M81751 76805
L81807 76805
L81863 76833
L81892 76861
L81920 76917
L81948 77030
L81948 77171
L81920 77283
L81892 77339
L81863 77367
L81807 77395
L81751 77395
L81695 77367
L81667 77339
L81638 77283
L81610 77171
L81610 77030
L81638 76917
L81667 76861
L81695 76833
L81751 76805
" />
<path d="M82201 77171
L82651 77171
" />
<path d="M83016 77058
L82960 77030
L82932 77002
L82904 76946
L82904 76917
L82932 76861
L82960 76833
L83016 76805
L83129 76805
L83185 76833
L83213 76861
L83241 76917
L83241 76946
L83213 77002
L83185 77030
L83129 77058
L83016 77058
L82960 77086
L82932 77114
L82904 77171
L82904 77283
L82932 77339
L82960 77367
L83016 77395
L83129 77395
L83185 77367
L83213 77339
L83241 77283
L83241 77171
L83213 77114
L83185 77086
L83129 77058
" />
<path d="M83579 77058
L83523 77030
L83494 77002
L83466 76946
L83466 76917
L83494 76861
L83523 76833
L83579 76805
L83691 76805
L83748 76833
L83776 76861
L83804 76917
L83804 76946
L83776 77002
L83748 77030
L83691 77058
L83579 77058
L83523 77086
L83494 77114
L83466 77171
L83466 77283
L83494 77339
L83523 77367
L83579 77395
L83691 77395
L83748 77367
L83776 77339
L83804 77283
L83804 77171
L83776 77114
L83748 77086
L83691 77058
" />
<path d="M84310 77395
L84310 77086
L84282 77030
L84226 77002
L84113 77002
L84057 77030
" />
<path d="M84310 77367
L84254 77395
L84113 77395
L84057 77367
L84029 77311
L84029 77255
L84057 77199
L84113 77171
L84254 77171
L84310 77142
" />
<path d="M84901 77395
L84563 77395
" />
<path d="M84732 77395
L84732 76805
L84676 76889
L84619 76946
L84563 76974
" />
<path d="M85407 77395
L85407 76805
" />
<path d="M85407 77367
L85350 77395
L85238 77395
L85182 77367
L85154 77339
L85126 77283
L85126 77114
L85154 77058
L85182 77030
L85238 77002
L85350 77002
L85407 77030
" />
<path d="M85941 76805
L85829 76805
L85772 76833
L85744 76861
L85688 76946
L85660 77058
L85660 77283
L85688 77339
L85716 77367
L85772 77395
L85885 77395
L85941 77367
L85969 77339
L85997 77283
L85997 77142
L85969 77086
L85941 77058
L85885 77030
L85772 77030
L85716 77058
L85688 77086
L85660 77142
" />
<path d="M86560 77395
L86222 77395
" />
<path d="M86391 77395
L86391 76805
L86335 76889
L86278 76946
L86222 76974
" />
<path d="M87066 77395
L87066 76805
" />
<path d="M87066 77367
L87010 77395
L86897 77395
L86841 77367
L86813 77339
L86785 77283
L86785 77114
L86813 77058
L86841 77030
L86897 77002
L87010 77002
L87066 77030
" />
<path d="M87628 76805
L87347 76805
L87319 77086
L87347 77058
L87403 77030
L87544 77030
L87600 77058
L87628 77086
L87656 77142
L87656 77283
L87628 77339
L87600 77367
L87544 77395
L87403 77395
L87347 77367
L87319 77339
" />
<path d="M87994 77058
L87938 77030
L87910 77002
L87881 76946
L87881 76917
L87910 76861
L87938 76833
L87994 76805
L88106 76805
L88163 76833
L88191 76861
L88219 76917
L88219 76946
L88191 77002
L88163 77030
L88106 77058
L87994 77058
L87938 77086
L87910 77114
L87881 77171
L87881 77283
L87910 77339
L87938 77367
L87994 77395
L88106 77395
L88163 77367
L88191 77339
L88219 77283
L88219 77171
L88191 77114
L88163 77086
L88106 77058
" />
<path d="M88331 76644
L88894 76644
" />
<path d="M88500 77395
L88613 77395
L88669 77367
L88697 77339
L88753 77255
L88781 77142
L88781 76917
L88753 76861
L88725 76833
L88669 76805
L88556 76805
L88500 76833
L88472 76861
L88444 76917
L88444 77058
L88472 77114
L88500 77142
L88556 77171
L88669 77171
L88725 77142
L88753 77114
L88781 77058
" />
<path d="M88894 76644
L89456 76644
" />
<path d="M89147 76805
L89203 76805
L89259 76833
L89287 76861
L89316 76917
L89344 77030
L89344 77171
L89316 77283
L89287 77339
L89259 77367
L89203 77395
L89147 77395
L89091 77367
L89063 77339
L89034 77283
L89006 77171
L89006 77030
L89034 76917
L89063 76861
L89091 76833
L89147 76805
" />
<path d="M89850 77002
L89850 77395
" />
<path d="M89597 77002
L89597 77311
L89625 77367
L89681 77395
L89766 77395
L89822 77367
L89850 77339
" />
<path d="M90131 77395
L90131 76805
" />
<path d="M90131 77030
L90187 77002
L90300 77002
L90356 77030
L90384 77058
L90412 77114
L90412 77283
L90384 77339
L90356 77367
L90300 77395
L90187 77395
L90131 77367
" />
<path d="M90919 77002
L90919 77395
" />
<path d="M90665 77002
L90665 77311
L90694 77367
L90750 77395
L90834 77395
L90890 77367
L90919 77339
" />
<path d="M91200 77002
L91200 77395
" />
<path d="M91200 77058
L91228 77030
L91284 77002
L91368 77002
L91425 77030
L91453 77086
L91453 77395
" />
<path d="M91650 77002
L91875 77002
" />
<path d="M91734 76805
L91734 77311
L91762 77367
L91818 77395
L91875 77395
" />
<path d="M92325 77002
L92325 77395
" />
<path d="M92072 77002
L92072 77311
L92100 77367
L92156 77395
L92240 77395
L92296 77367
L92325 77339
" />
<path d="M92578 76861
L92606 76833
L92662 76805
L92803 76805
L92859 76833
L92887 76861
L92915 76917
L92915 76974
L92887 77058
L92550 77395
L92915 77395
" />
<path d="M93281 76805
L93337 76805
L93393 76833
L93421 76861
L93449 76917
L93478 77030
L93478 77171
L93449 77283
L93421 77339
L93393 77367
L93337 77395
L93281 77395
L93224 77367
L93196 77339
L93168 77283
L93140 77171
L93140 77030
L93168 76917
L93196 76861
L93224 76833
L93281 76805
" />
<path d="M93731 77339
L93759 77367
L93731 77395
L93703 77367
L93731 77339
L93731 77395
" />
<path d="M94124 76805
L94181 76805
L94237 76833
L94265 76861
L94293 76917
L94321 77030
L94321 77171
L94293 77283
L94265 77339
L94237 77367
L94181 77395
L94124 77395
L94068 77367
L94040 77339
L94012 77283
L93984 77171
L93984 77030
L94012 76917
L94040 76861
L94068 76833
L94124 76805
" />
<path d="M94827 77002
L94827 77395
" />
<path d="M94687 76777
L94546 77199
L94912 77199
" />
<path d="M95137 77339
L95165 77367
L95137 77395
L95109 77367
L95137 77339
L95137 77395
" />
<path d="M95727 77395
L95390 77395
" />
<path d="M95559 77395
L95559 76805
L95502 76889
L95446 76946
L95390 76974
" />
</g>
<g style="fill:#000000; fill-opacity:0.0; 
stroke:#000000; stroke-width:39.3701; stroke-opacity:1; 
stroke-linecap:round; stroke-linejoin:round;">
</g>
<g style="fill:#000000; fill-opacity:0.0; 
stroke:#000000; stroke-width:59.0551; stroke-opacity:1; 
stroke-linecap:round; stroke-linejoin:round;">
<path d="M69685 75396
L112205 75396
" />
</g>
<g style="fill:#000000; fill-opacity:0.0; 
stroke:#000000; stroke-width:39.3701; stroke-opacity:1; 
stroke-linecap:round; stroke-linejoin:round;">
</g>
<g style="fill:#000000; fill-opacity:0.0; 
stroke:#000000; stroke-width:118.11; stroke-opacity:1; 
stroke-linecap:round; stroke-linejoin:round;">
<text x="103544" y="76321.7"
textLength="5711.47" font-size="787.402" lengthAdjust="spacingAndGlyphs"
text-anchor="start" opacity="0">Rev: 221101</text>
<path d="M104099 76293
L103902 76012
" />
<path d="M103761 76293
L103761 75703
L103986 75703
L104042 75731
L104070 75759
L104099 75815
L104099 75899
L104070 75956
L104042 75984
L103986 76012
L103761 76012
" />
<path d="M104577 76265
L104520 76293
L104408 76293
L104352 76265
L104323 76209
L104323 75984
L104352 75928
L104408 75899
L104520 75899
L104577 75928
L104605 75984
L104605 76040
L104323 76096
" />
<path d="M104802 75899
L104942 76293
L105083 75899
" />
<path d="M105308 76237
L105336 76265
L105308 76293
L105280 76265
L105308 76237
L105308 76293
" />
<path d="M105308 75928
L105336 75956
L105308 75984
L105280 75956
L105308 75928
L105308 75984
" />
<path d="M106011 75759
L106039 75731
L106095 75703
L106236 75703
L106292 75731
L106320 75759
L106348 75815
L106348 75871
L106320 75956
L105983 76293
L106348 76293
" />
<path d="M106573 75759
L106601 75731
L106658 75703
L106798 75703
L106854 75731
L106883 75759
L106911 75815
L106911 75871
L106883 75956
L106545 76293
L106911 76293
" />
<path d="M107473 76293
L107136 76293
" />
<path d="M107304 76293
L107304 75703
L107248 75787
L107192 75843
L107136 75871
" />
<path d="M108036 76293
L107698 76293
" />
<path d="M107867 76293
L107867 75703
L107811 75787
L107754 75843
L107698 75871
" />
<path d="M108401 75703
L108457 75703
L108514 75731
L108542 75759
L108570 75815
L108598 75928
L108598 76068
L108570 76181
L108542 76237
L108514 76265
L108457 76293
L108401 76293
L108345 76265
L108317 76237
L108289 76181
L108260 76068
L108260 75928
L108289 75815
L108317 75759
L108345 75731
L108401 75703
" />
<path d="M109160 76293
L108823 76293
" />
<path d="M108992 76293
L108992 75703
L108935 75787
L108879 75843
L108823 75871
" />
</g>
<g style="fill:#000000; fill-opacity:0.0; 
stroke:#000000; stroke-width:39.3701; stroke-opacity:1; 
stroke-linecap:round; stroke-linejoin:round;">
</g>
<g style="fill:#000000; fill-opacity:0.0; 
stroke:#000000; stroke-width:59.0551; stroke-opacity:1; 
stroke-linecap:round; stroke-linejoin:round;">
<text x="70079.6" y="76321.7"
textLength="3781.21" font-size="787.402" lengthAdjust="spacingAndGlyphs"
text-anchor="start" opacity="0">Size: A4</text>
<path d="M70221 76265
L70305 76293
L70446 76293
L70502 76265
L70530 76237
L70559 76181
L70559 76124
L70530 76068
L70502 76040
L70446 76012
L70334 75984
L70277 75956
L70249 75928
L70221 75871
L70221 75815
L70249 75759
L70277 75731
L70334 75703
L70474 75703
L70559 75731
" />
<path d="M70812 76293
L70812 75899
" />
<path d="M70812 75703
L70784 75731
L70812 75759
L70840 75731
L70812 75703
L70812 75759
" />
<path d="M71037 75899
L71346 75899
L71037 76293
L71346 76293
" />
<path d="M71796 76265
L71740 76293
L71627 76293
L71571 76265
L71543 76209
L71543 75984
L71571 75928
L71627 75899
L71740 75899
L71796 75928
L71824 75984
L71824 76040
L71543 76096
" />
<path d="M72077 76237
L72105 76265
L72077 76293
L72049 76265
L72077 76237
L72077 76293
" />
<path d="M72077 75928
L72105 75956
L72077 75984
L72049 75956
L72077 75928
L72077 75984
" />
<path d="M72780 76124
L73061 76124
" />
<path d="M72724 76293
L72921 75703
L73118 76293
" />
<path d="M73568 75899
L73568 76293
" />
<path d="M73427 75674
L73286 76096
L73652 76096
" />
</g>
<g style="fill:#000000; fill-opacity:0.0; 
stroke:#000000; stroke-width:39.3701; stroke-opacity:1; 
stroke-linecap:round; stroke-linejoin:round;">
</g>
<g style="fill:#000000; fill-opacity:0.0; 
stroke:#000000; stroke-width:59.0551; stroke-opacity:1; 
stroke-linecap:round; stroke-linejoin:round;">
<text x="103544" y="77424.1"
textLength="3349.27" font-size="787.402" lengthAdjust="spacingAndGlyphs"
text-anchor="start" opacity="0">Id: 1/1</text>
<path d="M103714 77395
L103714 76805
" />
<path d="M104248 77395
L104248 76805
" />
<path d="M104248 77367
L104192 77395
L104079 77395
L104023 77367
L103995 77339
L103967 77283
L103967 77114
L103995 77058
L104023 77030
L104079 77002
L104192 77002
L104248 77030
" />
<path d="M104529 77339
L104557 77367
L104529 77395
L104501 77367
L104529 77339
L104529 77395
" />
<path d="M104529 77030
L104557 77058
L104529 77086
L104501 77058
L104529 77030
L104529 77086
" />
<path d="M105570 77395
L105232 77395
" />
<path d="M105401 77395
L105401 76805
L105345 76889
L105289 76946
L105232 76974
" />
<path d="M106245 76777
L105739 77536
" />
<path d="M106751 77395
L106413 77395
" />
<path d="M106582 77395
L106582 76805
L106526 76889
L106470 76946
L106413 76974
" />
</g>
<g style="fill:#000000; fill-opacity:0.0; 
stroke:#000000; stroke-width:39.3701; stroke-opacity:1; 
stroke-linecap:round; stroke-linejoin:round;">
</g>
<g style="fill:#000000; fill-opacity:0.0; 
stroke:#000000; stroke-width:59.0551; stroke-opacity:1; 
stroke-linecap:round; stroke-linejoin:round;">
<path d="M69685 73821
L112205 73821
" />
</g>
<g style="fill:#000000; fill-opacity:0.0; 
stroke:#000000; stroke-width:39.3701; stroke-opacity:1; 
stroke-linecap:round; stroke-linejoin:round;">
</g>
<g style="fill:#000000; fill-opacity:0.0; 
stroke:#000000; stroke-width:157.48; stroke-opacity:1; 
stroke-linecap:round; stroke-linejoin:round;">
<text x="70079.6" y="74924.1"
textLength="29535.4" font-size="1049.87" lengthAdjust="spacingAndGlyphs"
text-anchor="start" opacity="0">Title: SIM108 - NMEA 2000 Switch Input Module</text>
<path d="M70360 74099
L70810 74099
" />
<path d="M70486 74886
L70585 74099
" />
<path d="M70974 74886
L71039 74361
" />
<path d="M71072 74099
L71030 74136
L71063 74174
L71105 74136
L71072 74099
L71063 74174
" />
<path d="M71302 74361
L71602 74361
" />
<path d="M71447 74099
L71363 74774
L71391 74849
L71461 74886
L71536 74886
" />
<path d="M71911 74886
L71841 74849
L71813 74774
L71897 74099
" />
<path d="M72516 74849
L72436 74886
L72286 74886
L72216 74849
L72187 74774
L72225 74474
L72272 74399
L72352 74361
L72501 74361
L72572 74399
L72600 74474
L72591 74549
L72206 74624
" />
<path d="M72895 74811
L72928 74849
L72886 74886
L72853 74849
L72895 74811
L72886 74886
" />
<path d="M72947 74399
L72980 74436
L72937 74474
L72905 74436
L72947 74399
L72937 74474
" />
<path d="M73828 74849
L73936 74886
L74123 74886
L74203 74849
L74245 74811
L74292 74736
L74301 74661
L74273 74586
L74240 74549
L74170 74511
L74025 74474
L73954 74436
L73922 74399
L73894 74324
L73903 74249
L73950 74174
L73992 74136
L74072 74099
L74259 74099
L74367 74136
" />
<path d="M74611 74886
L74709 74099
" />
<path d="M74986 74886
L75084 74099
L75276 74661
L75609 74099
L75510 74886
" />
<path d="M76298 74886
L75848 74886
" />
<path d="M76073 74886
L76171 74099
L76082 74211
L75998 74286
L75918 74324
" />
<path d="M76884 74099
L76959 74099
L77029 74136
L77062 74174
L77090 74249
L77109 74399
L77085 74586
L77029 74736
L76982 74811
L76940 74849
L76860 74886
L76785 74886
L76715 74849
L76682 74811
L76654 74736
L76635 74586
L76659 74399
L76715 74249
L76762 74174
L76804 74136
L76884 74099
" />
<path d="M77554 74436
L77484 74399
L77451 74361
L77423 74286
L77427 74249
L77474 74174
L77516 74136
L77596 74099
L77746 74099
L77816 74136
L77849 74174
L77877 74249
L77873 74286
L77826 74361
L77784 74399
L77704 74436
L77554 74436
L77474 74474
L77432 74511
L77385 74586
L77367 74736
L77395 74811
L77427 74849
L77498 74886
L77648 74886
L77727 74849
L77770 74811
L77816 74736
L77835 74586
L77807 74511
L77774 74474
L77704 74436
" />
<path d="M78773 74586
L79373 74586
" />
<path d="M80310 74886
L80408 74099
L80760 74886
L80858 74099
" />
<path d="M81135 74886
L81233 74099
L81425 74661
L81758 74099
L81660 74886
" />
<path d="M82086 74474
L82349 74474
" />
<path d="M82410 74886
L82035 74886
L82133 74099
L82508 74099
" />
<path d="M82738 74661
L83113 74661
" />
<path d="M82635 74886
L82995 74099
L83160 74886
" />
<path d="M84073 74174
L84116 74136
L84195 74099
L84383 74099
L84453 74136
L84486 74174
L84514 74249
L84505 74324
L84453 74436
L83947 74886
L84434 74886
" />
<path d="M85020 74099
L85095 74099
L85166 74136
L85198 74174
L85226 74249
L85245 74399
L85222 74586
L85166 74736
L85119 74811
L85076 74849
L84997 74886
L84922 74886
L84852 74849
L84819 74811
L84791 74736
L84772 74586
L84795 74399
L84852 74249
L84898 74174
L84941 74136
L85020 74099
" />
<path d="M85770 74099
L85845 74099
L85915 74136
L85948 74174
L85976 74249
L85995 74399
L85972 74586
L85915 74736
L85869 74811
L85826 74849
L85747 74886
L85672 74886
L85601 74849
L85569 74811
L85540 74736
L85522 74586
L85545 74399
L85601 74249
L85648 74174
L85690 74136
L85770 74099
" />
<path d="M86520 74099
L86595 74099
L86665 74136
L86698 74174
L86726 74249
L86745 74399
L86722 74586
L86665 74736
L86618 74811
L86576 74849
L86497 74886
L86422 74886
L86351 74849
L86319 74811
L86290 74736
L86272 74586
L86295 74399
L86351 74249
L86398 74174
L86440 74136
L86520 74099
" />
<path d="M87589 74849
L87696 74886
L87884 74886
L87964 74849
L88006 74811
L88053 74736
L88062 74661
L88034 74586
L88001 74549
L87931 74511
L87786 74474
L87715 74436
L87682 74399
L87654 74324
L87664 74249
L87711 74174
L87753 74136
L87832 74099
L88020 74099
L88128 74136
" />
<path d="M88362 74361
L88446 74886
L88643 74511
L88746 74886
L88962 74361
" />
<path d="M89196 74886
L89262 74361
" />
<path d="M89295 74099
L89253 74136
L89285 74174
L89328 74136
L89295 74099
L89285 74174
" />
<path d="M89524 74361
L89824 74361
" />
<path d="M89670 74099
L89585 74774
L89613 74849
L89684 74886
L89759 74886
" />
<path d="M90363 74849
L90284 74886
L90134 74886
L90063 74849
L90031 74811
L90002 74736
L90031 74511
L90077 74436
L90120 74399
L90199 74361
L90349 74361
L90420 74399
" />
<path d="M90696 74886
L90795 74099
" />
<path d="M91034 74886
L91085 74474
L91057 74399
L90987 74361
L90874 74361
L90795 74399
L90752 74436
" />
<path d="M92008 74886
L92107 74099
" />
<path d="M92449 74361
L92383 74886
" />
<path d="M92440 74436
L92482 74399
L92561 74361
L92674 74361
L92744 74399
L92772 74474
L92721 74886
" />
<path d="M93161 74361
L93063 75149
" />
<path d="M93157 74399
L93236 74361
L93386 74361
L93457 74399
L93489 74436
L93518 74511
L93489 74736
L93443 74811
L93400 74849
L93321 74886
L93171 74886
L93100 74849
" />
<path d="M94211 74361
L94146 74886
" />
<path d="M93874 74361
L93822 74774
L93850 74849
L93921 74886
L94033 74886
L94113 74849
L94155 74811
" />
<path d="M94474 74361
L94774 74361
" />
<path d="M94619 74099
L94535 74774
L94563 74849
L94633 74886
L94708 74886
" />
<path d="M95570 74886
L95669 74099
L95861 74661
L96194 74099
L96095 74886
" />
<path d="M96583 74886
L96513 74849
L96480 74811
L96452 74736
L96480 74511
L96527 74436
L96569 74399
L96648 74361
L96761 74361
L96831 74399
L96864 74436
L96892 74511
L96864 74736
L96817 74811
L96775 74849
L96695 74886
L96583 74886
" />
<path d="M97520 74886
L97619 74099
" />
<path d="M97525 74849
L97445 74886
L97295 74886
L97225 74849
L97192 74811
L97164 74736
L97192 74511
L97239 74436
L97281 74399
L97361 74361
L97511 74361
L97581 74399
" />
<path d="M98298 74361
L98233 74886
" />
<path d="M97961 74361
L97909 74774
L97937 74849
L98008 74886
L98120 74886
L98200 74849
L98242 74811
" />
<path d="M98720 74886
L98650 74849
L98622 74774
L98706 74099
" />
<path d="M99325 74849
L99245 74886
L99095 74886
L99025 74849
L98997 74774
L99034 74474
L99081 74399
L99161 74361
L99311 74361
L99381 74399
L99409 74474
L99400 74549
L99015 74624
" />
</g>
<g style="fill:#000000; fill-opacity:0.0; 
stroke:#000000; stroke-width:39.3701; stroke-opacity:1; 
stroke-linecap:round; stroke-linejoin:round;">
</g>
<g style="fill:#000000; fill-opacity:0.0; 
stroke:#000000; stroke-width:59.0551; stroke-opacity:1; 
stroke-linecap:round; stroke-linejoin:round;">
<text x="70079.6" y="73408.3"
textLength="10694" font-size="787.402" lengthAdjust="spacingAndGlyphs"
text-anchor="start" opacity="0">File: NOP100.kicad_pcb</text>
<path d="M70446 73070
L70249 73070
" />
<path d="M70249 73380
L70249 72789
L70530 72789
" />
<path d="M70755 73380
L70755 72986
" />
<path d="M70755 72789
L70727 72817
L70755 72845
L70784 72817
L70755 72789
L70755 72845
" />
<path d="M71121 73380
L71065 73352
L71037 73295
L71037 72789
" />
<path d="M71571 73352
L71515 73380
L71402 73380
L71346 73352
L71318 73295
L71318 73070
L71346 73014
L71402 72986
L71515 72986
L71571 73014
L71599 73070
L71599 73127
L71318 73183
" />
<path d="M71852 73323
L71880 73352
L71852 73380
L71824 73352
L71852 73323
L71852 73380
" />
<path d="M71852 73014
L71880 73042
L71852 73070
L71824 73042
L71852 73014
L71852 73070
" />
<path d="M72583 73380
L72583 72789
L72921 73380
L72921 72789
" />
<path d="M73314 72789
L73427 72789
L73483 72817
L73539 72874
L73568 72986
L73568 73183
L73539 73295
L73483 73352
L73427 73380
L73314 73380
L73258 73352
L73202 73295
L73174 73183
L73174 72986
L73202 72874
L73258 72817
L73314 72789
" />
<path d="M73821 73380
L73821 72789
L74046 72789
L74102 72817
L74130 72845
L74158 72902
L74158 72986
L74130 73042
L74102 73070
L74046 73099
L73821 73099
" />
<path d="M74721 73380
L74383 73380
" />
<path d="M74552 73380
L74552 72789
L74496 72874
L74439 72930
L74383 72958
" />
<path d="M75086 72789
L75142 72789
L75199 72817
L75227 72845
L75255 72902
L75283 73014
L75283 73155
L75255 73267
L75227 73323
L75199 73352
L75142 73380
L75086 73380
L75030 73352
L75002 73323
L74974 73267
L74946 73155
L74946 73014
L74974 72902
L75002 72845
L75030 72817
L75086 72789
" />
<path d="M75649 72789
L75705 72789
L75761 72817
L75789 72845
L75817 72902
L75845 73014
L75845 73155
L75817 73267
L75789 73323
L75761 73352
L75705 73380
L75649 73380
L75592 73352
L75564 73323
L75536 73267
L75508 73155
L75508 73014
L75536 72902
L75564 72845
L75592 72817
L75649 72789
" />
<path d="M76099 73323
L76127 73352
L76099 73380
L76070 73352
L76099 73323
L76099 73380
" />
<path d="M76380 73380
L76380 72789
" />
<path d="M76436 73155
L76605 73380
" />
<path d="M76605 72986
L76380 73211
" />
<path d="M76858 73380
L76858 72986
" />
<path d="M76858 72789
L76830 72817
L76858 72845
L76886 72817
L76858 72789
L76858 72845
" />
<path d="M77392 73352
L77336 73380
L77223 73380
L77167 73352
L77139 73323
L77111 73267
L77111 73099
L77139 73042
L77167 73014
L77223 72986
L77336 72986
L77392 73014
" />
<path d="M77898 73380
L77898 73070
L77870 73014
L77814 72986
L77701 72986
L77645 73014
" />
<path d="M77898 73352
L77842 73380
L77701 73380
L77645 73352
L77617 73295
L77617 73239
L77645 73183
L77701 73155
L77842 73155
L77898 73127
" />
<path d="M78433 73380
L78433 72789
" />
<path d="M78433 73352
L78376 73380
L78264 73380
L78208 73352
L78180 73323
L78151 73267
L78151 73099
L78180 73042
L78208 73014
L78264 72986
L78376 72986
L78433 73014
" />
<path d="M78573 73436
L79023 73436
" />
<path d="M79164 72986
L79164 73577
" />
<path d="M79164 73014
L79220 72986
L79332 72986
L79389 73014
L79417 73042
L79445 73099
L79445 73267
L79417 73323
L79389 73352
L79332 73380
L79220 73380
L79164 73352
" />
<path d="M79951 73352
L79895 73380
L79782 73380
L79726 73352
L79698 73323
L79670 73267
L79670 73099
L79698 73042
L79726 73014
L79782 72986
L79895 72986
L79951 73014
" />
<path d="M80204 73380
L80204 72789
" />
<path d="M80204 73014
L80260 72986
L80373 72986
L80429 73014
L80457 73042
L80485 73099
L80485 73267
L80457 73323
L80429 73352
L80373 73380
L80260 73380
L80204 73352
" />
</g>
<g style="fill:#000000; fill-opacity:0.0; 
stroke:#000000; stroke-width:39.3701; stroke-opacity:1; 
stroke-linecap:round; stroke-linejoin:round;">
</g>
<g style="fill:#000000; fill-opacity:0.0; 
stroke:#000000; stroke-width:59.0551; stroke-opacity:1; 
stroke-linecap:round; stroke-linejoin:round;">
<path d="M69685 71459
L112205 71459
" />
</g>
<g style="fill:#000000; fill-opacity:0.0; 
stroke:#000000; stroke-width:39.3701; stroke-opacity:1; 
stroke-linecap:round; stroke-linejoin:round;">
</g>
<g style="fill:#000000; fill-opacity:0.0; 
stroke:#000000; stroke-width:59.0551; stroke-opacity:1; 
stroke-linecap:round; stroke-linejoin:round;">
<text x="70079.6" y="72345.4"
textLength="3236.78" font-size="787.402" lengthAdjust="spacingAndGlyphs"
text-anchor="start" opacity="0">Sheet: </text>
<path d="M70221 72289
L70305 72317
L70446 72317
L70502 72289
L70530 72260
L70559 72204
L70559 72148
L70530 72092
L70502 72064
L70446 72036
L70334 72007
L70277 71979
L70249 71951
L70221 71895
L70221 71839
L70249 71782
L70277 71754
L70334 71726
L70474 71726
L70559 71754
" />
<path d="M70812 72317
L70812 71726
" />
<path d="M71065 72317
L71065 72007
L71037 71951
L70980 71923
L70896 71923
L70840 71951
L70812 71979
" />
<path d="M71571 72289
L71515 72317
L71402 72317
L71346 72289
L71318 72232
L71318 72007
L71346 71951
L71402 71923
L71515 71923
L71571 71951
L71599 72007
L71599 72064
L71318 72120
" />
<path d="M72077 72289
L72021 72317
L71908 72317
L71852 72289
L71824 72232
L71824 72007
L71852 71951
L71908 71923
L72021 71923
L72077 71951
L72105 72007
L72105 72064
L71824 72120
" />
<path d="M72274 71923
L72499 71923
" />
<path d="M72358 71726
L72358 72232
L72386 72289
L72443 72317
L72499 72317
" />
<path d="M72696 72260
L72724 72289
L72696 72317
L72668 72289
L72696 72260
L72696 72317
" />
<path d="M72696 71951
L72724 71979
L72696 72007
L72668 71979
L72696 71951
L72696 72007
" />
</g>
<g style="fill:#000000; fill-opacity:0.0; 
stroke:#000000; stroke-width:39.3701; stroke-opacity:1; 
stroke-linecap:round; stroke-linejoin:round;">
</g>
<g style="fill:#000000; fill-opacity:0.0; 
stroke:#000000; stroke-width:118.11; stroke-opacity:1; 
stroke-linecap:round; stroke-linejoin:round;">
<text x="70079.6" y="71164.3"
textLength="10857.7" font-size="787.402" lengthAdjust="spacingAndGlyphs"
text-anchor="start" opacity="0">PDJR &lt;preeve@pdjr.eu&gt;</text>
<path d="M70296 71136
L70296 70545
L70521 70545
L70578 70573
L70606 70601
L70634 70658
L70634 70742
L70606 70798
L70578 70826
L70521 70854
L70296 70854
" />
<path d="M70887 71136
L70887 70545
L71028 70545
L71112 70573
L71168 70629
L71196 70686
L71224 70798
L71224 70883
L71196 70995
L71168 71051
L71112 71108
L71028 71136
L70887 71136
" />
<path d="M71646 70545
L71646 70967
L71618 71051
L71562 71108
L71478 71136
L71421 71136
" />
<path d="M72265 71136
L72068 70854
" />
<path d="M71928 71136
L71928 70545
L72153 70545
L72209 70573
L72237 70601
L72265 70658
L72265 70742
L72237 70798
L72209 70826
L72153 70854
L71928 70854
" />
<path d="M73418 70742
L72968 70911
L73418 71079
" />
<path d="M73699 70742
L73699 71332
" />
<path d="M73699 70770
L73755 70742
L73868 70742
L73924 70770
L73952 70798
L73980 70854
L73980 71023
L73952 71079
L73924 71108
L73868 71136
L73755 71136
L73699 71108
" />
<path d="M74233 71136
L74233 70742
" />
<path d="M74233 70854
L74262 70798
L74290 70770
L74346 70742
L74402 70742
" />
<path d="M74824 71108
L74768 71136
L74655 71136
L74599 71108
L74571 71051
L74571 70826
L74599 70770
L74655 70742
L74768 70742
L74824 70770
L74852 70826
L74852 70883
L74571 70939
" />
<path d="M75330 71108
L75274 71136
L75162 71136
L75105 71108
L75077 71051
L75077 70826
L75105 70770
L75162 70742
L75274 70742
L75330 70770
L75358 70826
L75358 70883
L75077 70939
" />
<path d="M75555 70742
L75696 71136
L75836 70742
" />
<path d="M76286 71108
L76230 71136
L76118 71136
L76061 71108
L76033 71051
L76033 70826
L76061 70770
L76118 70742
L76230 70742
L76286 70770
L76314 70826
L76314 70883
L76033 70939
" />
<path d="M76933 70854
L76905 70826
L76849 70798
L76793 70798
L76736 70826
L76708 70854
L76680 70911
L76680 70967
L76708 71023
L76736 71051
L76793 71079
L76849 71079
L76905 71051
L76933 71023
" />
<path d="M76933 70798
L76933 71023
L76961 71051
L76989 71051
L77046 71023
L77074 70967
L77074 70826
L77018 70742
L76933 70686
L76821 70658
L76708 70686
L76624 70742
L76568 70826
L76539 70939
L76568 71051
L76624 71136
L76708 71192
L76821 71220
L76933 71192
L77018 71136
" />
<path d="M77327 70742
L77327 71332
" />
<path d="M77327 70770
L77383 70742
L77496 70742
L77552 70770
L77580 70798
L77608 70854
L77608 71023
L77580 71079
L77552 71108
L77496 71136
L77383 71136
L77327 71108
" />
<path d="M78114 71136
L78114 70545
" />
<path d="M78114 71108
L78058 71136
L77946 71136
L77889 71108
L77861 71079
L77833 71023
L77833 70854
L77861 70798
L77889 70770
L77946 70742
L78058 70742
L78114 70770
" />
<path d="M78395 70742
L78395 71248
L78367 71304
L78311 71332
L78283 71332
" />
<path d="M78395 70545
L78367 70573
L78395 70601
L78424 70573
L78395 70545
L78395 70601
" />
<path d="M78677 71136
L78677 70742
" />
<path d="M78677 70854
L78705 70798
L78733 70770
L78789 70742
L78845 70742
" />
<path d="M79042 71079
L79070 71108
L79042 71136
L79014 71108
L79042 71079
L79042 71136
" />
<path d="M79548 71108
L79492 71136
L79380 71136
L79323 71108
L79295 71051
L79295 70826
L79323 70770
L79380 70742
L79492 70742
L79548 70770
L79577 70826
L79577 70883
L79295 70939
" />
<path d="M80083 70742
L80083 71136
" />
<path d="M79830 70742
L79830 71051
L79858 71108
L79914 71136
L79998 71136
L80055 71108
L80083 71079
" />
<path d="M80364 70742
L80814 70911
L80364 71079
" />
</g>
<g style="fill:#000000; fill-opacity:0.0; 
stroke:#000000; stroke-width:39.3701; stroke-opacity:1; 
stroke-linecap:round; stroke-linejoin:round;">
</g>
<g style="fill:#000000; fill-opacity:0.0; 
stroke:#000000; stroke-width:59.0551; stroke-opacity:1; 
stroke-linecap:round; stroke-linejoin:round;">
<path d="M77559 75396
L77559 76577
" />
</g>
<g style="fill:#000000; fill-opacity:0.0; 
stroke:#000000; stroke-width:39.3701; stroke-opacity:1; 
stroke-linecap:round; stroke-linejoin:round;">
</g>
<g style="fill:#000000; fill-opacity:0.0; 
stroke:#000000; stroke-width:59.0551; stroke-opacity:1; 
stroke-linecap:round; stroke-linejoin:round;">
<path d="M102756 75396
L102756 77955
" />
<g >
</g>
<g >
</g>
<g >
</g>
<g >
</g>
<g >
</g>
<g >
</g>
<g >
</g>
<g >
</g>
<g >
</g>
<g >
</g>
<g >
</g>
<g >
</g>
<g >
</g>
<g >
</g>
<g >
</g>
<g >
</g>
<g >
</g>
<g >
</g>
<g >
</g>
<g >
</g>
<g >
</g>
<g >
</g>
<g >
</g>
<g >
</g>
<g >
</g>
<g >
</g>
<g >
</g>
<g >
</g>
<g >
</g>
<g >
</g>
<g >
</g>
<g >
</g>
<g >
</g>
<g >
</g>
<g >
</g>
<g >
</g>
<g >
</g>
<g >
</g>
<g >
</g>
<g >
</g>
<g >
</g>
<g >
</g>
<g >
</g>
<g >
</g>
<g >
</g>
<g >
</g>
<g >
</g>
<g >
</g>
<g >
</g>
<g >
</g>
<g >
</g>
<g >
</g>
<g >
</g>
<g >
</g>
<g >
</g>
<g >
</g>
<g >
</g>
<g >
</g>
<g >
</g>
<g >
</g>
<g >
</g>
<g >
</g>
<g >
</g>
<g >
</g>
<g >
</g>
<g >
</g>
<g >
</g>
<g >
</g>
<g >
</g>
<g >
</g>
<g >
</g>
<g >
</g>
<g >
</g>
<g >
</g>
<g >
</g>
<g >
</g>
<g >
</g>
</g>
<g style="fill:#000000; fill-opacity:0.0; 
stroke:#000000; stroke-width:59.0551; stroke-opacity:1; 
stroke-linecap:round; stroke-linejoin:round;">
</g>
<g style="fill:#C2C200; fill-opacity:0.0; 
stroke:#C2C200; stroke-width:59.0551; stroke-opacity:1; 
stroke-linecap:round; stroke-linejoin:round;">
</g>
<g style="fill:#C2C200; fill-opacity:0.0; 
stroke:#C2C200; stroke-width:39.3701; stroke-opacity:1; 
stroke-linecap:round; stroke-linejoin:round;">
<path d="M46850 39370
L46850 41338
" />
<path d="M47244 38582
L46850 39370
" />
<path d="M8267 39370
L8267 41338
" />
<path d="M7874 38582
L8267 39370
" />
<path d="M46850 9842
L46850 7874
" />
<path d="M47244 10629
L46850 9842
" />
<path d="M8267 9842
L8267 7874
" />
<path d="M7874 10629
L8267 9842
" />
<path d="M8267 41338
L46850 41338
" />
<path d="M7874 38582
L7874 10629
" />
<path d="M47244 10629
L47244 38582
" />
<path d="M8267 7873
L46850 7874
" />
<g >
</g>
<g >
</g>
<g >
</g>
<g >
</g>
<g >
</g>
<g >
</g>
<g >
</g>
<g >
</g>
<g >
</g>
<g >
</g>
<g >
</g>
<g >
</g>
<g >
</g>
<g >
</g>
<g >
</g>
<g >
</g>
<g >
</g>
<g >
</g>
<g >
</g>
<g >
</g>
<g >
</g>
<g >
</g>
<g >
</g>
<g >
</g>
<g >
</g>
<g >
</g>
<g >
</g>
<g >
</g>
<g >
</g>
<g >
</g>
<g >
</g>
<g >
</g>
<g >
</g>
<g >
</g>
<g >
</g>
<g >
</g>
<g >
</g>
<g >
</g>
<g >
</g>
<g >
</g>
<g >
</g>
<g >
</g>
<g >
</g>
<g >
</g>
<g >
</g>
<g >
</g>
<g >
</g>
<g >
</g>
<g >
</g>
<g >
</g>
<g >
</g>
<g >
</g>
<g >
</g>
<g >
</g>
<g >
</g>
<g >
</g>
<g >
</g>
<g >
</g>
<g >
</g>
<g >
</g>
<g >
</g>
<g >
</g>
<g >
</g>
<g >
</g>
<g >
</g>
<g >
</g>
<g >
</g>
<g >
</g>
<g >
</g>
<g >
</g>
<g >
</g>
<g >
</g>
<g >
</g>
<g >
</g>
<g >
</g>
</g> 
</svg>
